<?xml version="1.0" standalone="no"?>
<!DOCTYPE svg PUBLIC "-//W3C//DTD SVG 20010904//EN"
 "http://www.w3.org/TR/2001/REC-SVG-20010904/DTD/svg10.dtd">
<svg version="1.0" xmlns="http://www.w3.org/2000/svg"
 width="1600.000000pt" height="1067.000000pt" viewBox="0 0 1600.000000 1067.000000"
 preserveAspectRatio="xMidYMid meet">
<metadata>
Created by potrace 1.16, written by Peter Selinger 2001-2019
</metadata>
<g transform="translate(0.000000,1067.000000) scale(0.100000,-0.100000)"
fill="#000000" stroke="none">
<path d="M6912 9285 c-203 -115 -850 -305 -2226 -653 l-309 -78 -21 -60 c-12
-32 -50 -98 -85 -146 -66 -93 -67 -96 -109 -353 -5 -33 -17 -89 -27 -125 -25
-88 -16 -121 55 -220 73 -101 80 -130 51 -217 l-22 -66 26 -27 c29 -31 34 -83
9 -118 -9 -13 -13 -26 -10 -29 3 -4 41 1 84 10 143 31 212 17 212 -43 0 -23
-16 -43 -85 -105 -47 -43 -85 -81 -85 -86 0 -5 32 -9 70 -9 99 0 150 -30 150
-89 0 -53 -112 -128 -228 -152 -54 -11 -72 -10 -163 9 -56 12 -106 19 -111 16
-4 -3 -8 -18 -8 -35 0 -26 3 -29 34 -29 52 0 85 -16 143 -71 46 -44 57 -49 97
-49 64 0 154 -36 199 -80 44 -44 47 -71 11 -99 -35 -27 -97 -27 -165 -1 -42
17 -64 20 -119 14 -73 -7 -116 8 -193 69 -21 16 -39 28 -41 26 -2 -2 -9 -14
-15 -26 -10 -19 -7 -29 19 -64 16 -23 30 -48 30 -55 0 -21 50 -73 110 -114 32
-21 69 -53 84 -70 29 -35 34 -77 11 -86 -32 -13 -61 3 -213 111 -35 25 -69 45
-76 45 -10 0 -9 -23 1 -112 12 -97 19 -119 44 -153 94 -129 140 -204 146 -238
9 -57 -17 -48 -83 31 -31 37 -60 68 -63 70 -6 2 4 -140 14 -193 3 -16 6 -39 6
-49 0 -10 6 -28 14 -39 7 -10 11 -25 9 -32 -3 -7 13 -68 35 -136 22 -68 49
-159 61 -203 47 -177 196 -544 233 -575 9 -7 17 -22 17 -31 0 -10 14 -56 31
-102 17 -46 32 -90 33 -98 6 -36 39 -144 46 -150 4 -3 14 -31 24 -63 10 -32
20 -56 23 -54 5 6 -67 241 -102 335 -13 34 -19 62 -15 62 5 0 30 -39 56 -87
72 -136 113 -203 166 -270 l49 -62 29 -203 c33 -222 52 -324 107 -554 l36
-152 129 187 c148 214 242 367 234 380 -9 14 48 5 82 -13 16 -8 66 -49 112
-91 45 -41 93 -78 107 -81 32 -9 51 9 33 31 -8 9 -13 32 -12 50 2 26 -2 35
-17 40 -15 4 -20 14 -19 38 1 18 -2 39 -6 48 -6 14 -1 15 41 8 26 -4 84 -17
127 -28 44 -12 88 -21 98 -21 11 0 16 -4 13 -10 -3 -5 1 -10 10 -10 9 0 13 -5
9 -11 -3 -6 0 -15 7 -20 11 -7 11 -9 1 -9 -7 0 -10 -5 -7 -10 3 -6 20 -10 36
-10 16 0 87 -14 156 -32 l127 -32 166 22 c91 12 180 22 197 22 18 0 77 -18
132 -40 99 -40 174 -53 153 -27 -5 6 -12 38 -14 70 l-5 58 81 39 c83 40 263
175 352 264 l49 49 -45 -35 c-236 -182 -307 -232 -361 -258 -34 -16 -66 -27
-71 -24 -12 8 -10 43 8 130 19 91 40 138 81 175 33 32 274 192 356 239 50 28
63 41 85 89 15 31 31 59 36 62 5 4 6 11 3 16 -3 5 0 10 8 10 10 0 11 -5 4 -19
-6 -10 -7 -27 -4 -38 3 -10 1 -21 -5 -25 -13 -8 -13 -25 1 -25 5 0 7 5 3 12
-5 8 -2 9 10 5 37 -14 236 74 291 129 39 39 42 55 24 165 -14 84 -25 87 -100
27 -107 -88 -201 -158 -210 -158 -5 0 -87 -44 -181 -97 -171 -98 -244 -156
-340 -272 -32 -38 -57 -38 -71 2 -7 21 -5 34 7 52 23 35 343 314 463 404 141
104 267 179 336 198 62 18 78 43 27 43 -65 0 -189 -74 -425 -255 -163 -125
-257 -204 -337 -282 -73 -71 -83 -68 -53 16 23 67 71 128 210 267 71 71 184
187 250 257 139 146 173 167 284 169 82 1 77 -9 56 127 -9 53 -18 111 -21 128
-7 45 -36 50 -122 24 -109 -33 -314 -165 -412 -265 -24 -25 -50 -46 -57 -46
-19 0 -26 43 -18 107 7 61 10 65 195 253 102 104 223 138 333 96 52 -19 61
-18 51 7 -10 28 -87 50 -157 45 -118 -7 -166 -40 -345 -238 -22 -25 -43 -43
-45 -40 -9 9 69 196 102 243 27 40 47 54 126 92 104 50 140 85 165 162 13 40
19 48 40 48 16 0 31 -11 47 -34 17 -24 23 -29 23 -16 0 27 -51 329 -57 335 -2
3 -11 -4 -19 -14 -13 -18 -14 -17 -14 21 0 23 5 54 10 69 8 21 -14 175 -109
748 -142 853 -186 1121 -241 1476 -39 252 -51 315 -99 507 -12 46 -20 93 -20
105 2 38 -12 270 -19 315 l-7 43 -43 -25z m-254 -354 c6 -16 8 -32 5 -35 -4
-3 2 -6 12 -6 14 0 15 -3 5 -15 -10 -12 -9 -15 6 -15 26 -1 -59 -79 -149 -137
-100 -65 -297 -153 -297 -133 0 13 294 305 344 341 49 36 62 36 74 0z m78
-206 c-3 -10 1 -15 12 -15 16 -1 16 -1 0 -13 -15 -12 -15 -14 3 -25 10 -7 19
-17 19 -23 0 -5 -5 -7 -12 -3 -8 5 -9 2 -5 -10 9 -23 -68 -178 -126 -253 -51
-66 -151 -157 -249 -227 -68 -48 -76 -48 -58 -2 8 21 6 28 -11 40 -13 9 -16
16 -10 21 6 3 11 11 11 16 0 6 -5 7 -11 3 -26 -16 67 112 156 216 13 14 44 50
70 80 58 68 201 210 210 210 4 0 5 -7 1 -15z m80 -302 c3 -24 10 -43 14 -43 8
0 34 -84 33 -109 -2 -31 19 -84 27 -71 5 9 8 5 8 -11 1 -53 6 -99 12 -99 4 0
15 -69 25 -154 16 -139 17 -175 6 -387 -7 -129 -17 -272 -22 -319 -5 -47 -9
-95 -9 -107 0 -50 -21 -18 -54 85 -73 227 -114 391 -138 557 -17 121 -4 340
32 510 17 83 34 165 37 183 7 41 20 26 29 -35z m-2290 -55 c37 -32 44 -41 51
-66 3 -15 9 -29 12 -32 10 -9 51 -94 51 -107 0 -7 5 -13 10 -13 7 0 6 -5 -1
-12 -7 -8 -33 -12 -68 -11 l-56 2 51 -8 c53 -9 94 -26 94 -40 0 -4 -11 -13
-25 -19 -14 -6 -25 -16 -25 -21 0 -5 17 -44 37 -88 48 -102 53 -160 22 -293
-21 -93 -22 -109 -11 -199 14 -116 5 -161 -40 -203 -38 -35 -48 -35 -48 0 0
16 -3 32 -7 35 -3 4 -8 21 -10 38 -1 17 -10 37 -18 45 -10 11 -12 21 -6 31 11
21 -4 74 -25 90 -9 6 -15 23 -13 40 4 59 -1 95 -13 90 -9 -3 -14 7 -15 32 -4
80 -16 137 -33 158 -10 13 -18 40 -18 62 0 22 -6 49 -12 60 -6 12 -8 21 -5 21
3 0 1 8 -4 19 -9 16 -4 20 37 34 l47 16 -41 0 c-48 1 -60 12 -66 64 l-4 37 43
0 c24 0 43 5 43 10 0 6 -8 10 -19 10 -10 0 -31 5 -48 10 -27 10 -30 15 -32 60
-1 28 2 50 7 50 5 0 7 12 4 26 -8 41 15 72 57 77 71 7 82 7 97 -5z m991 -1163
c47 -31 64 -73 61 -147 -4 -68 -23 -103 -69 -128 -14 -8 -15 -3 -11 38 4 44 1
52 -42 109 -51 67 -66 114 -45 139 16 19 68 14 106 -11z m-147 -30 c0 -13 22
-56 50 -97 50 -74 60 -110 40 -149 -22 -40 -106 -11 -152 52 -29 38 -34 101
-13 154 26 69 75 95 75 40z m467 -250 c59 -17 113 -67 113 -103 0 -22 -3 -23
-27 -16 -16 5 -80 7 -143 6 -106 -3 -118 -2 -143 18 -15 12 -27 27 -27 34 0
31 84 75 146 76 17 0 53 -7 81 -15z m-414 -122 c11 -7 -2 -23 -20 -23 -30 0
-74 -42 -113 -111 -30 -51 -51 -74 -79 -89 -53 -26 -76 -10 -76 52 0 48 33
103 82 135 65 43 166 61 206 36z m205 0 c21 -15 49 -18 154 -18 107 0 130 -3
145 -17 16 -17 16 -19 -11 -47 -35 -36 -108 -56 -168 -46 -86 15 -158 70 -158
121 0 29 3 29 38 7z m-148 -52 c43 -81 -61 -207 -188 -227 -45 -7 -92 1 -92
16 0 5 14 17 31 25 17 9 49 45 73 83 51 78 73 100 112 112 44 13 52 12 64 -9z
m1309 -308 c18 -16 29 -49 56 -167 4 -22 10 -27 25 -23 37 10 16 -39 -27 -61
-53 -29 -85 -4 -98 76 -8 47 -21 54 -35 17 -13 -35 -1 -87 22 -92 25 -7 23
-18 -8 -42 -29 -23 -83 -28 -102 -9 -15 15 -16 62 -2 88 5 10 32 35 60 55 54
40 59 54 36 110 -11 25 -21 35 -38 35 -22 1 -22 1 -4 15 27 20 89 19 115 -2z
m-380 -115 c-15 -28 -6 -118 18 -166 15 -30 24 -38 52 -40 23 -2 43 3 63 18
39 29 38 2 -2 -44 -69 -79 -191 -71 -236 15 -20 40 -20 123 1 155 16 25 91 84
107 84 5 0 3 -10 -3 -22z m-665 -105 c15 -54 33 -125 41 -158 25 -116 37 -147
61 -171 l24 -25 -33 3 c-18 1 -44 -6 -57 -15 -14 -9 -32 -17 -42 -17 -19 0
-18 -3 -79 230 -29 111 -46 160 -61 173 -11 10 -19 19 -17 20 6 5 123 55 130
56 3 1 18 -43 33 -96z m460 30 c2 -10 16 -67 31 -127 14 -60 30 -115 36 -122
8 -10 -5 -18 -56 -33 -81 -25 -78 -25 -71 -3 9 28 -40 214 -60 229 -21 15 -22
14 41 46 60 31 72 33 79 10z m-206 -83 c40 -25 62 -73 62 -139 0 -58 -29 -100
-91 -131 -47 -25 -67 -26 -49 -5 21 25 8 153 -21 206 -20 36 -31 45 -59 49
l-35 5 40 17 c55 23 113 22 153 -2z m-472 -119 c32 -19 40 -36 71 -136 16 -55
21 -60 46 -60 34 1 34 -8 1 -34 -36 -29 -86 -36 -120 -18 -21 11 -31 27 -40
63 -31 125 -40 148 -65 167 -17 12 -34 17 -48 12 -27 -8 -27 -18 2 -30 25 -11
34 -49 17 -71 -26 -31 -90 -6 -90 35 0 21 45 69 75 82 38 15 119 10 151 -10z
m-281 -31 c35 -13 50 -55 31 -86 -9 -12 -25 -25 -36 -29 -23 -7 -80 12 -80 26
0 16 -19 10 -29 -10 -13 -24 32 -176 57 -190 23 -13 14 -19 -48 -31 -89 -17
-100 -15 -100 22 0 55 -52 210 -72 216 -32 8 -20 19 50 45 l67 25 16 -36 c15
-34 16 -35 23 -15 8 25 61 73 81 73 8 0 25 -4 40 -10z m-390 -88 c35 -22 47
-42 78 -137 21 -61 27 -70 50 -73 34 -4 34 -17 1 -39 -32 -21 -91 -20 -112 1
-14 14 -18 13 -38 -9 -16 -18 -34 -25 -59 -25 -48 0 -70 13 -84 49 -18 42 -1
68 65 98 60 27 61 33 25 98 -12 22 -26 31 -49 33 -18 2 -32 -1 -32 -7 0 -6 7
-11 15 -11 19 0 40 -43 32 -64 -8 -21 -51 -21 -71 0 -24 24 -19 50 15 78 38
32 117 36 164 8z m590 -22 c-26 -28 -11 -93 23 -98 31 -5 28 -19 -10 -42 -46
-28 -93 -26 -123 5 -45 44 -27 85 59 129 59 31 75 33 51 6z m173 -1039 c19
-24 26 -62 15 -80 -5 -9 -24 -20 -42 -26 -33 -10 -34 -12 -20 -65 3 -10 -5
-16 -21 -18 -20 -2 -26 2 -27 18 -2 26 -30 119 -44 143 -13 23 -12 24 42 41
49 15 78 12 97 -13z m-697 -987 l73 -86 -22 -131 c-12 -73 -27 -188 -33 -257
-11 -126 -16 -156 -23 -149 -3 2 -23 153 -45 334 -23 182 -43 340 -46 353 -10
44 24 22 96 -64z m299 -161 c0 -6 -4 -14 -9 -17 -14 -9 -118 -149 -177 -238
-29 -42 -54 -75 -57 -72 -5 5 -2 22 47 224 l28 116 84 -1 c58 0 84 -4 84 -12z"/>
<path d="M3515 8380 c-104 -21 -248 -46 -320 -55 -71 -9 -142 -20 -156 -23
l-27 -7 73 -180 c39 -99 127 -328 195 -509 89 -236 126 -323 131 -310 6 14 8
10 9 -16 0 -19 14 -66 30 -104 16 -38 27 -73 23 -79 -4 -6 -1 -7 7 -2 10 6 12
4 7 -8 -7 -20 32 -129 44 -122 4 3 11 -16 15 -42 3 -27 18 -76 32 -111 l25
-63 18 30 18 30 -74 153 c-41 84 -75 157 -75 163 0 5 35 -60 77 -145 l77 -155
7 46 c4 25 20 70 35 100 33 63 36 115 11 199 -10 31 -17 90 -17 135 0 92 -7
125 -26 125 -21 0 -29 -21 -29 -80 0 -49 -2 -55 -22 -58 -31 -4 -30 -38 1
-139 37 -118 38 -156 4 -151 -16 2 -31 20 -50 58 -33 66 -101 267 -95 283 2 6
9 -11 17 -39 23 -88 90 -251 110 -269 18 -17 20 -17 26 -1 4 10 -5 57 -19 104
-41 138 -41 139 -13 167 19 19 24 34 23 68 -2 55 15 77 59 77 25 0 38 -7 50
-26 21 -32 29 -23 49 52 17 68 12 108 -25 207 -25 66 -25 124 0 212 27 93 25
150 -6 253 -24 77 -26 97 -20 179 3 51 3 92 -1 92 -5 -1 -93 -18 -198 -39z"/>
<path d="M11751 8075 c3 -2 38 -18 79 -36 41 -17 89 -37 105 -45 17 -7 102
-44 191 -83 88 -38 202 -92 254 -121 92 -51 200 -125 200 -137 0 -3 -18 -3
-40 0 -22 3 -40 3 -40 1 0 -2 35 -27 78 -56 208 -140 357 -269 350 -304 -7
-39 -43 -27 -109 39 -74 74 -201 142 -287 156 -31 5 -50 5 -44 -1 5 -5 6 -29
2 -53 l-7 -44 71 -30 c39 -16 111 -41 160 -55 109 -31 121 -41 70 -55 -47 -13
-96 -14 -149 -1 -22 5 -74 12 -115 16 l-75 6 -20 -66 c-25 -78 -31 -75 102
-50 46 8 88 14 94 12 5 -2 -32 -38 -83 -80 -122 -101 -256 -228 -240 -228 9 0
6 -12 -8 -39 -11 -23 -17 -47 -13 -58 6 -16 5 -17 -12 -3 -17 14 -18 13 -12
-3 4 -10 -4 -41 -18 -73 -14 -31 -25 -62 -25 -68 0 -7 -9 -29 -20 -51 -11 -22
-20 -45 -20 -52 0 -16 -72 -157 -83 -161 -4 -2 -4 -8 -1 -14 6 -9 -27 -105
-67 -195 -10 -24 -16 -50 -12 -59 4 -12 3 -15 -5 -10 -7 4 -12 1 -12 -7 0 -8
-7 -28 -16 -46 -30 -59 -9 -52 69 25 42 43 80 75 83 72 8 -9 -19 -48 -34 -48
-9 0 -12 -10 -8 -32 6 -36 -2 -57 -15 -37 -4 7 -11 10 -15 6 -4 -3 -1 -13 5
-21 8 -10 9 -16 1 -21 -5 -3 -10 -23 -10 -44 0 -21 -6 -44 -14 -50 -8 -6 -19
-33 -26 -59 -6 -26 -16 -52 -22 -59 -7 -9 -7 -17 2 -28 10 -12 9 -15 -7 -15
-21 0 -21 0 -41 -110 -2 -14 -5 -37 -6 -52 -1 -19 -6 -28 -17 -28 -10 0 -19
-10 -21 -25 -4 -17 -1 -25 8 -25 18 0 18 -14 -1 -30 -8 -7 -13 -16 -10 -20 3
-5 1 -11 -5 -15 -6 -4 -8 -10 -5 -15 3 -5 -6 -20 -19 -35 -19 -20 -23 -34 -19
-59 3 -23 0 -38 -12 -49 -11 -12 -12 -17 -4 -17 7 0 5 -6 -6 -13 -12 -10 -14
-16 -7 -21 7 -4 17 -4 22 -1 6 3 10 -1 10 -9 0 -10 -9 -16 -25 -16 -31 0 -34
-29 -5 -37 23 -6 27 -23 5 -23 -9 0 -18 -7 -21 -15 -4 -8 -15 -15 -26 -15 -17
0 -19 -5 -13 -30 4 -18 3 -30 -4 -30 -6 0 -8 -6 -5 -14 3 -8 -2 -16 -13 -19
-16 -4 -15 -6 5 -12 28 -9 24 -29 -7 -33 -18 -3 -20 -6 -10 -18 9 -11 8 -14
-5 -14 -9 0 -16 -4 -16 -10 0 -5 7 -10 15 -10 22 0 19 -10 -12 -43 -19 -20
-24 -31 -15 -34 20 -8 14 -34 -15 -61 -31 -29 -43 -92 -17 -92 8 0 14 -4 14
-9 0 -5 6 -11 13 -14 6 -2 2 -2 -10 -1 -24 4 -40 -11 -22 -21 5 -4 8 -13 5
-21 -3 -8 -1 -14 4 -14 6 0 10 -7 10 -15 0 -8 -5 -15 -11 -15 -6 0 -21 -8 -34
-18 -22 -18 -23 -20 -7 -37 16 -16 15 -17 -15 -13 -31 4 -32 3 -26 -21 3 -14
10 -34 15 -44 13 -25 4 -31 -21 -16 -11 7 -24 10 -28 6 -4 -5 -1 -12 7 -17 11
-7 11 -12 2 -23 -7 -7 -8 -17 -4 -22 4 -4 -3 -5 -16 -2 -14 3 -20 1 -15 -6 4
-7 0 -8 -11 -4 -10 4 -15 3 -11 -3 4 -6 22 -8 43 -5 28 5 33 4 22 -4 -8 -6
-24 -11 -35 -11 -15 -1 -11 -5 12 -15 39 -17 64 -13 106 15 l32 21 -29 -7
c-25 -6 -28 -5 -23 11 6 13 3 16 -9 11 -8 -3 -19 -6 -22 -6 -4 0 0 -5 8 -11
13 -9 13 -10 0 -6 -22 6 -18 40 5 47 11 3 35 14 53 25 l32 20 -37 11 c-37 12
-38 12 -8 13 32 1 55 33 55 77 0 12 6 25 13 27 9 4 9 8 -2 15 -17 12 -5 72 14
72 19 0 30 -21 17 -29 -7 -4 -3 -12 11 -20 20 -13 21 -13 8 2 -9 11 -10 17 -2
17 7 0 9 9 5 25 -5 19 -2 25 10 25 9 0 16 5 16 10 0 15 -11 12 -32 -7 -25 -23
-47 -3 -22 21 15 15 15 18 1 29 -18 14 -26 45 -12 46 6 1 11 -3 11 -9 1 -5 2
-12 3 -15 0 -3 11 -1 22 6 17 9 19 13 8 20 -10 6 -8 10 10 17 20 7 21 9 7 21
-22 19 -20 40 3 34 14 -4 20 3 26 29 4 18 9 27 12 20 7 -17 23 -5 23 19 0 10
-7 19 -15 19 -8 0 -15 3 -15 6 0 3 7 12 15 20 8 9 15 24 15 35 0 10 5 19 10
19 6 0 10 -9 10 -20 0 -11 5 -20 10 -20 6 0 10 9 10 20 0 11 -5 20 -11 20 -7
0 -8 14 -4 40 5 27 3 40 -5 40 -6 0 -8 5 -5 11 4 6 14 8 22 5 14 -6 73 19 73
30 0 3 -10 5 -22 4 -45 -4 -52 -1 -38 15 7 8 16 12 21 9 5 -3 19 -2 31 2 l23
7 -23 8 c-24 9 -22 29 4 29 23 0 16 20 -11 30 -18 7 -23 14 -18 27 7 17 8 17
11 1 6 -32 20 -19 27 24 5 28 4 43 -4 46 -19 6 -12 22 10 22 15 0 19 5 15 15
-3 9 0 15 9 15 18 0 20 16 3 23 -17 7 7 25 45 34 23 5 27 11 27 39 0 26 -4 34
-17 34 -15 0 -16 2 -3 9 8 6 17 8 21 5 4 -2 10 3 13 12 9 23 8 27 -8 21 -10
-4 -13 -1 -9 9 3 8 11 13 19 10 7 -3 17 1 24 8 8 10 7 15 -3 19 -8 3 -17 14
-19 25 -4 15 -1 18 12 15 13 -4 17 2 18 28 1 39 27 62 60 54 29 -7 20 13 -11
24 -19 7 -19 9 11 27 30 17 31 19 12 26 -26 10 -25 42 2 73 24 27 43 32 51 13
3 -8 6 -6 6 5 1 11 -6 17 -20 17 -12 0 -19 5 -16 13 2 6 10 11 16 9 6 -1 12 2
12 8 5 40 4 57 -5 69 -9 12 -7 13 7 8 10 -4 20 -7 21 -7 2 0 2 -12 0 -27 -4
-28 -4 -28 6 2 6 20 6 31 -2 36 -6 4 -8 11 -5 17 8 12 -18 155 -39 210 l-16
42 49 73 c64 94 77 121 178 386 112 295 134 334 214 389 35 23 65 41 67 39 2
-2 -31 -73 -74 -158 -85 -169 -136 -299 -180 -459 -33 -117 -57 -241 -51 -259
11 -32 249 381 249 431 0 9 6 31 14 49 8 19 24 106 36 194 12 88 28 174 35
192 16 37 95 88 126 80 15 -4 19 -2 15 8 -4 11 0 12 17 6 23 -9 24 -15 13 -66
l-7 -30 17 29 c25 44 15 139 -22 202 -44 75 -171 195 -297 278 -179 119 -514
286 -754 376 -103 39 -121 45 -112 35z"/>
<path d="M4195 7313 c-6 -27 -8 -213 -2 -219 7 -7 297 81 297 90 0 8 -33 6
-217 -10 -81 -7 -89 0 -53 46 22 28 26 90 8 108 -18 18 -25 15 -33 -15z"/>
<path d="M4345 7106 c-140 -38 -150 -43 -153 -66 -1 -14 -12 -51 -23 -84 -12
-32 -17 -62 -12 -67 17 -17 129 -39 168 -34 76 11 215 47 215 56 0 16 -49 29
-110 29 -117 0 -117 16 -2 126 48 46 83 83 77 83 -5 -1 -77 -20 -160 -43z"/>
<path d="M10754 7061 c-93 -57 -112 -175 -39 -248 18 -18 38 -33 45 -33 6 0
25 13 41 30 29 29 30 31 27 127 -1 54 1 108 6 121 7 20 5 22 -20 22 -16 0 -43
-9 -60 -19z"/>
<path d="M10859 7049 c-20 -20 -21 -28 -15 -114 7 -90 6 -93 -19 -123 -33 -39
-26 -51 22 -45 80 9 133 75 133 163 0 64 -20 99 -71 125 -27 14 -30 14 -50 -6z"/>
<path d="M4485 6864 c-104 -28 -195 -35 -260 -18 -96 25 -98 24 -115 -24 -18
-53 -17 -54 101 -77 95 -19 129 -16 217 17 57 21 132 80 132 104 0 17 -10 16
-75 -2z"/>
<path d="M10460 6771 c-79 -26 -120 -65 -120 -113 0 -21 6 -29 26 -34 32 -8
96 10 154 44 35 21 58 27 108 27 76 0 80 17 14 53 -46 26 -139 37 -182 23z"/>
<path d="M9176 6703 c-12 -16 -21 -48 -23 -83 -4 -50 -1 -60 26 -94 59 -74 64
-161 9 -180 -33 -12 -72 12 -96 57 -23 43 -72 92 -81 81 -9 -10 -53 -120 -78
-194 -13 -37 -13 -61 -4 -145 10 -102 4 -172 -18 -199 -18 -22 -39 -9 -46 27
-14 72 -16 71 -47 -4 -16 -41 -32 -96 -35 -124 -7 -84 -24 -154 -39 -169 -8
-8 -14 -20 -14 -27 0 -7 -18 -97 -39 -199 -22 -102 -49 -230 -60 -285 -11 -55
-36 -174 -56 -265 -38 -182 -39 -183 -26 -176 4 3 17 -4 27 -15 17 -19 19 -37
17 -179 -2 -141 -4 -163 -27 -221 -88 -224 -242 -684 -290 -869 -39 -146 -56
-224 -47 -214 4 5 33 41 63 79 59 75 232 246 338 334 153 127 257 222 257 235
0 31 -269 -161 -405 -289 -45 -42 -82 -73 -82 -69 1 8 86 133 313 458 88 125
88 126 112 110 22 -14 24 -14 35 7 9 16 9 20 0 14 -7 -4 -5 4 4 18 12 18 14
26 5 29 -8 3 12 54 56 143 100 208 110 238 65 185 -16 -19 -30 -39 -30 -43 0
-5 -4 -5 -10 -2 -14 9 -12 35 4 67 8 15 22 69 31 120 25 148 31 174 41 189 4
8 10 32 11 54 2 22 6 47 9 55 8 18 11 27 18 59 3 13 10 38 16 55 5 17 11 55
12 85 2 32 7 55 15 58 7 3 13 19 13 37 0 31 33 176 44 194 3 6 8 34 11 63 3
28 10 58 16 66 9 10 8 13 0 13 -12 0 -6 40 8 50 4 3 8 16 9 30 1 14 9 66 18
115 8 50 16 102 17 118 1 15 5 27 8 27 4 0 7 10 7 23 -1 42 20 164 31 185 10
19 26 207 23 277 -1 22 1 26 8 15 5 -8 12 -11 16 -7 4 3 1 14 -6 23 -12 13
-11 17 1 25 10 6 10 9 2 9 -7 0 -13 5 -13 11 0 5 4 8 9 5 13 -9 21 20 21 78 0
29 5 57 12 64 9 9 8 12 -7 13 -19 0 -19 1 0 9 18 8 18 9 -5 10 -25 1 -25 1 4
13 28 12 28 13 -18 15 -52 2 -103 27 -112 54 -8 25 -26 22 -48 -9z m-525
-2455 c7 -23 30 -60 51 -82 l38 -39 -88 -131 c-123 -182 -223 -348 -304 -501
-37 -71 -68 -127 -68 -124 0 10 75 213 180 489 56 146 115 302 132 348 17 45
34 82 38 82 4 0 13 -19 21 -42z"/>
<path d="M10888 6679 c-50 -28 -1 -101 105 -156 39 -21 87 -54 106 -75 42 -44
61 -37 61 24 0 78 -69 165 -157 198 -59 22 -89 24 -115 9z"/>
<path d="M10514 6640 c-43 -22 -93 -40 -111 -40 -39 0 -49 -13 -26 -36 68 -68
256 -60 313 14 29 36 26 80 -6 92 -47 18 -90 11 -170 -30z"/>
<path d="M4074 6646 c-15 -39 0 -59 66 -83 36 -13 88 -34 115 -47 28 -13 84
-31 125 -41 41 -10 99 -26 128 -36 62 -21 71 -7 21 35 -42 36 -91 55 -166 66
-57 8 -70 14 -118 58 -51 47 -86 62 -142 62 -13 0 -26 -6 -29 -14z"/>
<path d="M10822 6625 c-16 -36 -15 -63 7 -110 47 -105 185 -179 260 -141 30
16 31 17 16 46 -17 33 -48 56 -131 98 -61 31 -107 74 -119 112 -9 27 -19 25
-33 -5z"/>
<path d="M4065 6555 c-3 -8 -7 -22 -10 -30 -6 -19 81 -89 131 -105 22 -8 60
-10 93 -7 42 5 74 1 120 -13 68 -22 117 -25 141 -10 20 12 -32 34 -154 64 -50
13 -111 33 -136 46 -24 12 -75 33 -113 46 -57 19 -69 21 -72 9z"/>
<path d="M10290 4550 c0 -29 -37 -160 -50 -175 -8 -9 -5 -14 12 -19 38 -10 51
-7 44 9 -3 8 -1 15 4 15 6 0 10 -6 10 -13 0 -21 34 -47 60 -47 22 0 22 1 7 18
-9 10 -20 32 -23 49 -5 25 -2 33 16 43 12 6 32 9 45 6 22 -6 22 -6 7 -60 -18
-66 -10 -81 46 -89 20 -3 45 -8 55 -12 13 -6 17 -2 17 18 0 13 7 44 15 68 12
34 13 44 3 51 -25 15 -45 9 -46 -14 0 -36 -20 -78 -37 -78 -18 0 -18 13 0 64
17 48 13 56 -26 56 -16 0 -29 4 -29 9 0 5 -12 12 -26 15 -20 5 -30 1 -45 -19
-41 -51 -45 -26 -13 70 10 30 10 41 1 47 -23 15 -47 9 -47 -12z"/>
<path d="M9991 4534 c-42 -53 -13 -114 53 -114 58 0 90 53 64 107 -11 23 -20
29 -54 31 -35 3 -45 -1 -63 -24z"/>
<path d="M10576 4377 c3 -8 1 -24 -5 -35 -6 -11 -13 -34 -16 -53 -3 -19 -13
-47 -21 -63 -15 -32 -12 -40 24 -51 18 -5 22 -2 22 14 0 41 9 49 50 44 50 -7
80 21 80 75 0 50 -21 69 -88 78 -45 6 -52 4 -46 -9z"/>
<path d="M7558 4184 c-50 -41 -147 -145 -148 -158 0 -5 -8 -15 -17 -22 -17
-13 -17 -14 1 -7 16 5 18 3 13 -12 -6 -15 -5 -16 8 -5 8 7 15 8 15 2 0 -5 -7
-15 -15 -22 -8 -7 -14 -22 -14 -34 1 -17 2 -18 6 -3 7 25 23 10 23 -22 0 -15
5 -32 12 -39 9 -9 8 -12 -4 -12 -9 0 -20 10 -24 23 -7 18 -9 15 -15 -23 -4
-28 -2 -50 5 -59 9 -12 8 -13 -6 -8 -12 4 -21 0 -27 -12 -6 -10 -8 -20 -6 -23
2 -2 -6 -4 -18 -5 -21 -2 -21 -1 -3 12 10 7 15 19 11 25 -3 6 -1 9 6 8 7 -2
15 6 17 17 4 16 2 17 -11 7 -18 -16 -41 6 -27 27 5 10 1 20 -13 31 -18 15 -19
20 -8 34 7 9 9 16 3 16 -16 0 -34 -28 -26 -41 4 -8 3 -9 -5 -5 -7 5 -73 -52
-171 -146 -88 -84 -160 -155 -160 -158 0 -3 20 -4 45 -2 27 3 56 -2 76 -12 18
-9 35 -16 40 -16 26 0 266 203 261 221 -1 5 3 8 10 7 7 -2 17 7 23 20 5 12 16
22 24 22 18 0 158 132 193 182 43 62 49 176 11 213 -22 22 -37 19 -85 -21z"/>
<path d="M7787 4028 c-4 -35 -14 -97 -23 -139 l-16 -76 -67 -5 c-90 -7 -145
-37 -261 -143 -52 -48 -135 -115 -185 -148 -49 -33 -84 -62 -76 -65 17 -6 82
41 210 151 167 143 254 188 338 172 l31 -6 -20 -72 c-26 -91 -85 -256 -133
-369 -30 -71 -43 -91 -76 -112 -41 -27 -56 -56 -19 -36 24 13 25 8 4 -31 -8
-17 -14 -35 -11 -42 4 -13 70 103 112 200 l32 74 7 -47 c3 -26 6 -82 6 -125 0
-46 4 -79 10 -79 6 0 10 62 9 165 l0 165 42 112 c53 145 88 298 96 421 7 108
-1 133 -10 35z"/>
<path d="M11400 3940 c0 -5 8 -14 18 -20 14 -9 12 -10 -13 -5 l-29 6 19 -21
c19 -21 19 -21 -1 -26 -14 -4 -20 -13 -19 -32 0 -24 3 -27 29 -24 20 3 27 0
24 -10 -3 -7 -13 -14 -24 -14 -10 -1 -27 -2 -36 -3 -10 -1 -18 -5 -18 -11 0
-5 10 -9 22 -7 15 1 23 -4 26 -17 3 -14 0 -17 -12 -13 -26 10 -47 -3 -41 -24
4 -11 2 -19 -4 -19 -5 0 8 -17 28 -37 21 -21 42 -48 45 -61 7 -22 26 -22 26 0
0 6 -3 8 -6 5 -4 -4 -14 8 -23 26 -15 30 -15 33 4 43 23 12 36 7 15 -6 -18
-11 -6 -25 15 -16 11 4 14 13 9 31 -4 18 -2 25 8 25 10 0 13 11 10 40 -5 49
-22 53 -22 5 0 -32 -30 -75 -52 -75 -16 0 -8 19 11 25 12 4 17 12 14 24 -3 10
0 22 6 25 6 4 11 23 11 42 0 39 11 43 40 14 11 -11 23 -20 26 -20 4 0 4 9 1
20 -6 23 3 26 23 8 8 -7 5 -2 -6 12 -12 14 -27 35 -33 48 -15 29 -29 28 -41
-3 -6 -15 -17 -25 -27 -24 -16 1 -16 2 -1 6 10 2 15 10 11 19 -3 8 0 14 7 14
7 0 10 7 6 16 -4 10 -2 13 6 8 7 -4 8 -3 4 4 -4 7 -14 12 -22 12 -8 0 -14 5
-14 10 0 6 -4 10 -10 10 -5 0 -10 -4 -10 -10z"/>
<path d="M7799 3743 c-13 -33 -1 -484 13 -498 9 -10 80 74 92 109 11 31 11 53
0 124 -30 188 -60 292 -85 292 -5 0 -14 -12 -20 -27z"/>
<path d="M7300 3446 c-58 -29 -106 -60 -108 -68 -2 -8 14 -30 34 -48 45 -39
81 -37 149 10 91 63 117 161 42 160 -7 0 -59 -24 -117 -54z"/>
<path d="M8661 3379 c-174 -33 -289 -77 -378 -147 -52 -42 -76 -81 -87 -145
l-7 -39 53 40 c72 54 193 113 313 152 55 18 122 42 149 53 40 17 46 22 30 28
-18 7 -18 8 -1 8 10 1 15 6 12 11 -3 6 2 10 12 10 17 1 17 1 0 11 -18 10 -18
11 0 25 10 7 16 13 13 13 -3 -1 -52 -10 -109 -20z"/>
<path d="M5305 3308 c-144 -62 -195 -86 -283 -136 l-83 -47 5 -44 c3 -24 7
-46 10 -48 19 -19 274 95 420 187 64 41 84 59 49 46 -16 -6 -16 -6 0 12 16 18
16 19 -9 33 l-26 14 23 5 c22 6 22 7 4 11 -11 3 -59 -11 -110 -33z"/>
<path d="M8465 3090 c-117 -21 -197 -49 -253 -90 -34 -24 -42 -38 -53 -85 -7
-30 -10 -58 -7 -60 3 -3 21 3 41 15 56 33 153 68 292 106 152 40 187 53 179
65 -3 5 -1 9 5 9 6 0 8 7 5 15 -4 8 -1 22 6 30 11 13 4 15 -51 14 -35 0 -109
-9 -164 -19z"/>
<path d="M5406 3064 c-60 -22 -258 -82 -372 -113 l-41 -11 15 -55 15 -55 42 0
c51 0 238 63 369 124 85 40 97 48 83 59 -9 6 -17 25 -19 41 -2 16 -7 31 -13
32 -5 1 -41 -9 -79 -22z"/>
<path d="M8255 2744 c-133 -27 -145 -33 -145 -81 0 -18 8 -19 123 -16 67 2
140 8 162 12 22 5 80 15 128 22 60 8 84 16 77 23 -6 6 -4 16 7 28 15 17 10 18
-158 17 -96 -1 -183 -3 -194 -5z"/>
<path d="M5556 2725 c-77 -21 -251 -37 -369 -33 -59 1 -107 -1 -107 -6 0 -5 9
-24 20 -42 15 -24 36 -39 76 -54 49 -18 63 -19 122 -10 88 14 193 43 267 74
33 14 56 25 51 26 -5 0 -3 6 3 14 9 11 8 15 -4 20 -9 3 -13 2 -10 -3 3 -5 1
-12 -4 -15 -5 -4 -8 1 -7 10 1 8 9 20 17 25 19 12 4 10 -55 -6z"/>
<path d="M8180 2624 c-25 -10 -38 -34 -32 -56 8 -32 116 -105 257 -173 570
-277 1749 -611 2230 -631 155 -7 208 5 213 47 16 135 -879 478 -1850 709 -307
73 -478 101 -653 106 -82 2 -157 1 -165 -2z"/>
<path d="M8568 1478 c-8 -8 -42 -13 -84 -14 -120 -2 -158 -21 -89 -45 19 -7
35 -16 35 -20 0 -10 104 -33 121 -27 8 3 27 -1 42 -9 17 -8 60 -15 103 -15 40
-1 71 -5 68 -9 -3 -5 -4 -9 -2 -9 2 -1 46 -4 98 -7 52 -3 98 -9 101 -14 3 -5
29 -7 58 -5 29 3 62 1 74 -4 50 -21 437 -44 752 -45 393 -2 495 -5 517 -16 11
-6 19 -5 24 2 4 7 30 9 74 6 44 -3 72 -1 80 6 10 9 14 9 17 0 6 -16 63 4 63
23 0 8 5 14 10 14 6 0 10 -4 10 -10 0 -5 5 -10 10 -10 17 0 11 30 -7 37 -10 4
-24 13 -32 21 -28 27 -57 41 -96 43 -22 2 -47 8 -55 14 -14 11 -81 22 -240 41
-30 3 -59 10 -65 14 -26 20 -363 30 -1110 33 -242 1 -445 6 -452 10 -6 4 -17
2 -25 -5z"/>
</g>
</svg>
