<?xml version="1.0" standalone="no"?>
<!DOCTYPE svg PUBLIC "-//W3C//DTD SVG 20010904//EN"
 "http://www.w3.org/TR/2001/REC-SVG-20010904/DTD/svg10.dtd">
<svg version="1.0" xmlns="http://www.w3.org/2000/svg"
 width="1600.000000pt" height="1067.000000pt" viewBox="0 0 1600.000000 1067.000000"
 preserveAspectRatio="xMidYMid meet">
<metadata>
Created by potrace 1.16, written by Peter Selinger 2001-2019
</metadata>
<g transform="translate(0.000000,1067.000000) scale(0.100000,-0.100000)"
fill="#000000" stroke="none">
<path d="M10980 8123 c0 -29 32 -42 155 -63 72 -13 147 -24 168 -24 21 -1 41
-7 45 -13 5 -8 13 -9 22 -3 21 13 43 12 34 -1 -5 -8 3 -9 27 -3 44 12 228 8
519 -10 212 -14 450 -25 825 -41 156 -6 498 -7 540 0 17 2 59 15 95 29 l65 24
-505 -5 c-483 -5 -764 1 -1240 28 -315 17 -664 58 -736 86 -7 3 -14 1 -14 -4z"/>
<path d="M4811 8099 c-43 -17 -235 -41 -286 -36 -35 4 -44 3 -30 -4 17 -8 16
-9 -5 -4 -14 4 -29 7 -35 8 -18 3 -248 -14 -345 -25 -52 -6 -113 -12 -135 -15
-209 -23 -1054 -35 -1400 -19 -99 5 -177 5 -174 2 3 -4 44 -9 90 -12 95 -6
349 -41 357 -49 3 -3 16 4 28 16 21 20 28 21 125 13 l103 -9 -3 -60 c-1 -33
-5 -62 -7 -64 -13 -13 -455 37 -608 69 -114 23 -106 22 -106 11 0 -5 24 -11
53 -15 28 -4 113 -18 187 -30 74 -13 198 -29 275 -36 214 -17 208 -16 201 -51
-3 -17 -24 -61 -46 -99 -22 -38 -40 -73 -40 -79 0 -16 -23 -13 -80 9 -74 29
-74 24 0 -13 37 -18 66 -39 68 -49 3 -16 -6 -18 -70 -20 l-73 -1 63 -6 c36 -4
66 -12 71 -20 5 -7 14 -45 21 -85 14 -83 6 -125 -42 -219 -21 -43 -32 -82 -38
-143 -5 -45 -13 -92 -19 -102 -15 -28 -68 -71 -96 -78 -14 -3 -27 -15 -30 -25
-4 -10 -39 -40 -78 -65 l-72 -47 52 -17 c66 -22 83 -36 83 -70 0 -36 -35 -65
-103 -85 -64 -19 -108 -19 -154 0 -20 8 -37 14 -38 13 -9 -11 -14 -48 -7 -48
5 0 21 -18 36 -40 16 -25 36 -42 54 -46 80 -17 142 -67 142 -116 0 -52 -52
-62 -124 -23 -28 15 -64 25 -87 25 -44 0 -72 11 -106 42 l-21 20 -54 -77 c-55
-79 -71 -126 -84 -250 -3 -33 -7 -73 -9 -90 -2 -16 -11 -65 -20 -107 -15 -69
-15 -105 -6 -320 13 -279 34 -420 62 -403 5 4 9 2 9 -3 0 -6 19 -30 43 -55 30
-30 48 -60 57 -93 18 -68 41 -124 50 -124 4 0 10 24 13 53 8 65 25 117 40 117
7 0 8 -41 4 -129 l-6 -130 52 -55 c29 -31 60 -56 68 -56 9 0 38 45 73 115 32
63 62 115 67 115 13 0 -1 -68 -35 -172 l-31 -96 58 -49 c32 -26 63 -50 68 -52
25 -8 109 110 109 152 0 8 9 22 21 33 20 18 20 18 14 -11 -13 -52 -41 -108
-79 -159 -21 -27 -34 -51 -29 -55 5 -3 29 -20 53 -37 80 -55 215 -122 291
-144 40 -12 119 -46 174 -75 55 -29 123 -60 150 -69 28 -9 61 -23 75 -31 25
-14 25 -14 -10 -9 -19 2 -78 9 -132 14 -53 5 -103 13 -112 16 -9 3 -16 1 -16
-6 0 -6 -4 -8 -10 -5 -6 3 -7 -1 -4 -9 3 -9 9 -15 12 -14 26 3 33 -5 12 -14
-24 -10 -24 -10 -5 -18 11 -5 14 -9 7 -9 -9 -1 -11 -8 -7 -21 4 -13 2 -20 -7
-20 -10 0 -10 -2 0 -8 10 -7 10 -14 -2 -38 -11 -21 -14 -48 -11 -101 4 -62 3
-73 -11 -73 -8 0 -12 -5 -9 -10 4 -6 11 -8 16 -5 5 4 9 2 9 -4 0 -5 -6 -11
-12 -14 -10 -3 -10 -7 1 -20 11 -14 11 -20 0 -33 -10 -13 -10 -17 2 -25 11 -7
11 -9 -4 -9 -10 0 -15 -5 -12 -10 4 -6 10 -8 15 -5 17 11 -4 -70 -22 -83 -14
-10 -16 -18 -8 -32 7 -13 6 -21 -5 -30 -8 -7 -12 -16 -9 -21 7 -12 -216 -11
-356 2 -181 16 -410 72 -456 110 -8 7 -14 7 -14 2 0 -18 118 -64 227 -88 181
-40 397 -58 703 -58 430 0 790 39 1054 117 45 13 133 36 196 51 63 15 123 31
132 36 10 5 27 9 37 9 11 0 22 4 25 9 4 5 25 12 48 16 23 4 49 11 58 15 55 27
90 38 90 29 0 -5 5 -7 10 -4 6 4 7 11 4 17 -5 8 -1 9 11 4 16 -6 17 -2 11 46
-3 29 -10 161 -16 293 -6 132 -14 294 -19 360 -5 66 -9 131 -9 145 1 25 -7 94
-19 159 -4 26 -3 32 7 26 10 -6 11 -4 4 6 -9 15 -25 126 -28 204 -1 28 -4 55
-5 60 -2 6 -2 18 -1 28 1 10 -4 24 -10 32 -6 7 -8 25 -4 39 3 15 0 33 -9 46
-13 18 -14 13 -10 -52 8 -148 44 -504 53 -526 6 -13 10 -67 10 -121 0 -55 4
-143 9 -197 19 -199 24 -344 11 -344 -7 0 -10 7 -6 15 3 10 -1 15 -11 15 -9 0
-21 7 -27 15 -13 17 -123 33 -261 38 l-90 3 0 54 c0 53 12 297 22 470 3 47 6
157 7 245 1 88 7 178 13 200 13 45 17 79 32 310 6 88 15 219 21 290 17 222 39
567 39 635 1 71 19 279 26 289 2 4 -1 54 -7 111 -5 58 -11 159 -12 225 -1 71
-7 129 -14 142 -14 26 -16 93 -2 93 5 0 14 -9 20 -20 6 -11 15 -20 20 -20 6 0
-3 19 -20 42 -16 22 -30 48 -30 58 0 9 -4 20 -9 25 -5 6 -13 44 -17 85 l-7 75
22 -19 c35 -32 27 -10 -15 37 -6 7 -13 31 -16 55 -5 35 -3 44 13 53 11 5 24 7
31 3 6 -4 9 -1 6 7 -3 8 -17 14 -32 14 -27 -1 -28 0 -22 42 3 24 9 63 12 87 4
31 11 46 24 49 23 6 49 -10 34 -20 -13 -10 -44 -72 -44 -90 0 -17 18 -16 50 2
14 8 34 14 45 15 11 0 45 12 75 27 30 14 59 25 64 24 5 -1 6 5 2 14 -3 9 -2
13 4 10 11 -7 30 35 30 63 0 15 -20 20 -117 35 -152 22 -220 42 -262 76 -43
35 -47 83 -10 112 29 23 130 54 226 69 56 9 72 15 76 31 6 21 -5 23 -42 8z
m-1451 -1369 c0 -16 9 -53 21 -81 17 -44 18 -57 8 -81 -14 -35 -42 -36 -74 -4
-45 45 -45 121 0 170 31 34 45 33 45 -4z m95 7 c51 -43 41 -157 -14 -187 -29
-15 -30 -13 -24 24 3 22 -2 54 -15 89 -33 88 -6 126 53 74z m152 -248 c36 -13
73 -47 84 -77 13 -33 2 -44 -24 -28 -12 8 -40 17 -62 21 -66 11 -102 25 -121
46 -18 20 -18 21 1 35 22 17 82 18 122 3z m-299 -15 l37 -17 -38 -7 c-25 -5
-53 -21 -80 -48 -43 -41 -91 -67 -108 -56 -5 3 -9 17 -9 32 1 42 34 75 97 98
49 17 57 17 101 -2z m56 -60 c23 -60 -112 -143 -187 -115 -29 11 -37 31 -12
31 8 0 40 23 70 50 43 39 62 50 89 50 21 0 36 -6 40 -16z m90 -366 c3 -18 7
-90 8 -160 3 -107 1 -126 -12 -126 -8 1 -27 -3 -42 -7 l-27 -7 -3 144 c-2 78
-7 151 -11 160 -7 14 -2 17 30 21 21 2 41 4 45 5 4 1 9 -13 12 -30z m-650 -97
c13 -13 22 -41 27 -83 4 -37 13 -66 23 -73 12 -9 13 -14 4 -23 -17 -17 -59
-15 -80 5 -14 13 -21 14 -30 5 -21 -21 -76 -14 -92 11 -29 43 9 87 75 87 24 0
25 36 3 68 -18 27 -39 30 -23 3 17 -26 4 -53 -22 -49 -35 5 -47 33 -25 57 32
35 101 31 140 -8z m170 3 c3 -9 6 -47 6 -85 0 -39 5 -79 10 -90 10 -18 7 -19
-42 -19 l-54 0 4 69 c3 49 0 79 -11 100 l-15 30 37 4 c20 2 41 4 47 5 7 1 15
-5 18 -14z m279 -6 c36 -19 46 -40 47 -95 0 -39 5 -58 20 -73 20 -20 20 -20
-7 -26 -14 -4 -38 -3 -52 2 -24 9 -27 16 -36 93 -8 63 -15 86 -29 97 -19 13
-18 14 8 14 15 0 37 -5 49 -12z m366 -22 c20 -21 26 -36 26 -71 0 -53 -31 -91
-84 -101 -31 -7 -34 -5 -26 12 5 10 11 45 13 78 3 49 0 63 -18 89 l-23 30 43
-6 c28 -3 52 -15 69 -31z m170 -1778 c-5 -29 -12 -68 -15 -85 -3 -18 -8 -33
-12 -33 -4 0 -43 22 -87 50 -54 34 -73 51 -63 55 51 20 174 64 179 64 4 1 2
-23 -2 -51z"/>
<path d="M1860 8081 c0 -3 14 -105 30 -225 27 -195 87 -684 137 -1111 l17
-150 13 45 c10 33 11 71 4 155 -10 119 -5 136 44 180 38 34 45 73 30 177 -11
78 -11 104 1 163 8 39 17 86 20 105 11 69 14 77 51 125 20 27 42 64 48 83 11
32 9 41 -23 111 -36 78 -54 144 -45 168 3 7 17 14 32 14 23 2 24 2 4 6 -30 6
-29 11 8 56 17 21 30 40 28 42 -2 1 -54 8 -116 15 -62 6 -151 19 -198 29 -47
9 -85 15 -85 12z"/>
<path d="M8134 7849 c11 -49 47 -404 125 -1257 13 -141 22 -196 32 -203 10 -6
10 -9 2 -9 -14 0 -17 -49 -7 -124 5 -33 10 -43 16 -34 6 8 7 4 2 -12 -4 -14
-6 -45 -5 -69 3 -77 21 -79 41 -4 12 48 22 115 24 165 0 14 4 30 9 34 4 4 7
15 7 24 0 9 20 49 45 90 25 41 47 91 50 110 13 78 39 187 53 217 12 24 13 38
5 55 l-11 23 -5 -25 c-18 -79 -36 -141 -31 -105 2 22 8 65 11 95 l6 55 -22
-19 c-11 -11 -21 -26 -22 -35 0 -11 -2 -12 -6 -3 -3 7 3 24 12 38 20 31 56 29
70 -3 5 -13 13 -23 16 -23 4 0 17 24 30 53 21 46 24 67 24 177 1 123 2 127 40
215 l38 90 -1 130 c-1 104 3 145 19 204 11 40 17 77 12 81 -4 4 -87 15 -183
25 -148 15 -250 32 -378 62 -20 5 -22 2 -18 -18z"/>
<path d="M7728 7845 c-11 -11 -304 -54 -468 -69 -307 -28 -602 -38 -1095 -40
-424 -1 -469 -2 -385 -13 142 -18 451 -29 870 -32 532 -3 645 -7 646 -23 0 -7
2 -18 2 -24 1 -5 14 -9 30 -8 21 1 27 -3 28 -20 0 -11 4 -30 8 -41 7 -17 6
-17 -4 -5 -10 13 -11 12 -5 -5 13 -38 12 -50 -9 -65 -27 -21 -298 -189 -354
-220 -71 -40 -36 -44 112 -16 75 15 147 31 160 35 13 6 29 5 37 0 11 -7 11 -9
-3 -9 -21 0 -24 -16 -6 -22 9 -3 8 -10 -5 -22 -15 -15 -16 -36 -1 -36 3 0 2 5
-2 12 -4 7 -3 8 5 4 18 -11 2 -26 -102 -97 -51 -35 -131 -91 -178 -126 -103
-75 -205 -181 -190 -196 16 -16 198 47 330 114 79 40 119 55 126 48 7 -7 5 -8
-6 -4 -11 4 -18 0 -22 -14 -6 -23 18 -30 26 -8 2 6 4 0 4 -15 0 -19 -5 -28
-16 -28 -10 0 -12 -3 -5 -8 11 -6 20 -39 14 -52 -1 -3 -3 -24 -4 -48 -1 -24
-7 -46 -12 -50 -11 -8 -74 -256 -74 -293 0 -14 -2 -28 -5 -31 -11 -10 -161 22
-185 40 -14 10 -49 50 -78 88 -30 38 -79 96 -111 129 -113 119 -150 181 -172
286 -17 86 -59 188 -93 227 -38 44 -111 79 -131 62 -14 -12 -9 -48 11 -67 7
-7 12 -27 11 -45 -2 -28 -6 -33 -24 -31 -34 4 -28 -14 7 -22 31 -7 38 -19 19
-31 -6 -3 -9 -19 -5 -35 3 -17 1 -29 -5 -29 -6 0 -7 -5 -4 -10 4 -6 15 -8 26
-5 31 10 21 -5 -11 -16 -35 -13 -43 -49 -10 -49 11 0 20 -4 20 -10 0 -5 -9
-10 -20 -10 -40 0 -19 -20 23 -21 23 -1 33 -3 22 -6 -27 -7 -43 -23 -24 -24 7
0 4 -4 -8 -9 -16 -6 -23 -19 -25 -37 -5 -101 -4 -139 6 -145 8 -6 6 -11 -4
-19 -11 -8 -12 -12 -2 -16 21 -8 13 -23 -14 -23 -21 0 -25 -3 -19 -17 4 -10
12 -31 17 -48 6 -16 17 -37 24 -46 18 -20 18 -30 0 -23 -19 7 -27 -21 -12 -41
16 -22 0 -115 -19 -115 -7 0 -15 -7 -19 -15 -6 -17 5 -20 21 -4 6 6 28 9 49 7
35 -3 39 -6 36 -28 -1 -14 -4 -32 -5 -41 0 -9 -7 -14 -14 -12 -9 4 -11 -1 -7
-13 4 -14 3 -15 -3 -6 -11 14 -30 13 -49 -3 -9 -7 -9 -12 0 -17 6 -4 -11 -8
-39 -8 -53 -1 -85 -17 -85 -43 0 -8 -7 -17 -15 -21 -11 -4 -13 -14 -8 -38 9
-50 36 -81 92 -107 28 -13 48 -28 45 -33 -3 -4 2 -8 11 -8 12 0 14 -7 10 -31
-3 -17 0 -37 6 -45 8 -10 8 -14 0 -14 -6 0 -11 4 -11 10 0 5 -7 7 -16 3 -16
-6 -16 -7 0 -18 23 -18 20 -34 -6 -27 -21 5 -22 4 -9 -12 12 -14 12 -18 -5
-31 -17 -13 -18 -14 -1 -15 9 0 17 5 17 10 0 18 18 11 23 -10 3 -11 0 -18 -6
-17 -11 2 -11 -69 -1 -105 4 -13 0 -15 -18 -12 -13 2 -5 -4 18 -15 22 -10 48
-30 57 -44 23 -35 22 -125 -1 -152 -22 -26 -90 -57 -104 -49 -7 4 -8 2 -4 -4
4 -7 2 -12 -5 -12 -7 0 -10 -3 -7 -6 4 -3 20 2 37 10 37 20 47 20 32 2 -7 -8
-9 -25 -5 -40 5 -23 3 -26 -20 -26 -20 0 -26 -5 -24 -17 2 -15 -3 -17 -31 -15
-23 3 -31 0 -26 -8 4 -6 15 -8 26 -5 11 4 19 2 19 -4 0 -6 -4 -11 -9 -11 -14
0 -1 -38 15 -44 8 -3 14 -2 14 2 0 4 11 7 24 7 27 0 25 -15 -2 -16 -14 0 -13
-2 3 -8 15 -6 20 -18 21 -50 0 -22 -3 -36 -6 -31 -4 7 -11 5 -20 -5 -11 -14
-10 -17 8 -22 12 -3 22 -10 22 -15 0 -5 -4 -7 -8 -4 -18 11 -35 -15 -39 -58
-4 -45 0 -50 37 -48 3 0 6 -16 8 -36 1 -20 7 -41 12 -46 18 -18 11 -26 -22
-26 -33 0 -60 -11 -59 -24 3 -20 -1 -24 -21 -18 -14 3 -19 2 -14 -6 4 -7 17
-12 29 -12 17 0 19 -2 7 -10 -18 -11 -8 -23 13 -14 13 4 14 10 7 24 -14 27
-13 30 13 29 12 0 17 -3 10 -5 -8 -4 -8 -15 -2 -40 12 -40 4 -58 -22 -51 -15
4 -19 0 -19 -18 0 -13 5 -27 10 -30 16 -10 12 -19 -12 -30 -19 -8 -22 -16 -19
-50 3 -35 1 -38 -13 -26 -9 7 -13 18 -9 25 3 6 -3 3 -14 -7 -11 -9 -24 -17
-30 -17 -6 0 -16 -7 -23 -15 -12 -14 -15 -13 -32 5 -24 26 -48 25 -82 -1 -20
-16 -26 -17 -26 -6 0 8 -6 17 -12 19 -11 3 -120 2 -138 -1 -3 -1 -4 -21 -2
-46 3 -35 8 -45 22 -45 13 0 16 6 12 25 -2 13 -1 32 2 42 6 15 8 15 16 3 6 -8
10 -27 10 -42 0 -20 5 -28 18 -28 15 0 17 6 14 35 -3 26 0 35 11 35 11 0 15
-9 13 -34 -2 -23 2 -37 11 -41 23 -8 31 2 27 32 -2 16 -1 21 2 13 20 -47 77
-67 103 -36 10 11 17 11 48 -5 21 -11 45 -17 54 -14 9 3 27 1 40 -5 22 -10 21
-10 -9 -5 -20 3 -31 1 -27 -5 3 -6 18 -11 33 -11 26 -2 26 -2 3 -6 -13 -3 -35
1 -47 8 -13 7 -27 9 -31 6 -3 -4 1 -7 11 -7 9 0 14 -4 11 -10 -3 -6 5 -10 19
-10 14 0 28 -4 31 -10 4 -6 -5 -8 -22 -6 -15 2 -20 1 -10 -1 9 -2 22 -13 27
-23 12 -22 3 -53 -13 -43 -6 4 -8 0 -4 -10 3 -10 2 -17 -3 -17 -6 0 -10 -4
-10 -10 0 -5 9 -10 21 -10 11 0 17 -4 14 -10 -3 -5 -15 -10 -26 -10 -28 0 -24
-18 6 -26 27 -7 34 -24 10 -24 -8 0 -15 -7 -15 -16 0 -8 5 -12 10 -9 6 3 10
-3 10 -14 0 -11 -4 -23 -10 -26 -6 -3 -7 1 -4 9 4 10 1 16 -9 16 -21 0 -29
-27 -14 -51 10 -16 9 -21 -2 -29 -12 -7 -12 -11 -2 -24 9 -11 10 -24 2 -50 -5
-22 -6 -36 0 -36 24 0 5 -21 -23 -27 -32 -7 -32 -7 -8 -13 22 -5 25 -11 25
-55 0 -28 4 -53 10 -57 5 -4 6 -10 2 -14 -4 -4 -14 1 -21 12 -17 22 -21 19
-29 -21 -4 -16 -4 -24 -1 -17 9 20 28 14 41 -14 11 -23 10 -24 -9 -18 -14 4
-18 2 -14 -5 11 -17 -5 -36 -15 -20 -6 9 -7 -3 -3 -30 5 -32 4 -42 -4 -37 -7
4 -20 2 -29 -4 -15 -9 -14 -10 6 -4 16 4 21 3 17 -5 -4 -6 -4 -10 1 -9 4 1 18
-3 30 -10 12 -6 30 -9 40 -6 13 4 15 3 4 -4 -30 -21 10 -20 65 2 33 13 83 29
112 37 49 12 56 17 77 60 13 25 37 57 53 71 27 23 241 99 322 114 19 4 47 13
62 20 27 14 124 131 115 140 -6 7 -275 -70 -331 -95 -26 -11 -70 -37 -97 -57
-56 -41 -83 -41 -87 -2 -3 22 4 32 35 52 78 51 477 216 523 216 10 0 23 -7 30
-15 11 -13 10 -14 -4 -9 -13 5 -15 1 -10 -27 4 -19 11 -39 16 -46 11 -14 0
-125 -14 -134 -5 -3 -10 -16 -11 -27 -1 -12 -5 -22 -9 -22 -4 0 -2 -14 4 -31
8 -25 8 -33 -3 -40 -12 -8 -11 -11 3 -19 13 -8 16 -23 13 -77 -1 -38 -4 -70
-5 -73 -2 -3 -4 -10 -4 -17 -1 -6 -12 -21 -25 -32 -20 -17 -22 -24 -13 -49 9
-27 8 -31 -27 -50 -29 -17 -32 -22 -15 -22 29 0 56 -61 34 -75 -6 -3 -10 -19
-10 -36 0 -16 -5 -29 -11 -29 -6 0 -7 -5 -2 -12 9 -15 5 -51 -7 -58 -13 -9
-22 -50 -10 -50 20 0 -65 -108 -98 -124 -18 -9 -31 -20 -27 -25 12 -20 -143
-50 -370 -73 -193 -19 -703 -16 -894 6 -84 9 -156 15 -158 13 -2 -3 38 -10 89
-16 582 -71 1346 -16 1646 120 68 31 183 110 243 168 20 20 60 56 87 81 27 25
48 48 46 52 -2 4 5 9 16 13 11 3 20 12 20 20 0 7 7 16 16 19 9 3 14 11 12 18
-6 18 42 63 63 60 26 -4 24 17 -3 28 -18 7 -10 9 35 9 53 1 74 12 45 24 -7 3
6 6 30 6 25 1 42 -4 42 -10 0 -16 71 -4 82 13 6 10 8 8 8 -4 0 -26 26 -22 34
5 l7 22 11 -25 c9 -21 12 -22 15 -7 5 17 33 25 33 8 0 -5 59 -9 132 -9 115 0
134 -3 145 -18 8 -11 13 -13 13 -5 0 9 14 11 48 8 45 -4 47 -5 50 -38 13 -147
14 -149 35 -160 32 -18 174 -23 270 -10 101 14 119 19 110 33 -3 6 -6 23 -5
38 l1 27 -152 6 c-172 6 -247 20 -247 46 0 14 11 18 61 19 117 3 335 45 324
62 -3 5 3 13 12 19 10 6 12 11 6 11 -7 0 -13 9 -13 21 0 20 -3 21 -82 14 -46
-3 -119 -10 -163 -16 -113 -13 -120 -12 -105 6 7 9 72 61 144 115 170 130 200
156 192 169 -5 7 0 9 11 6 12 -4 11 -2 -3 6 -19 10 -35 2 -125 -57 -57 -38
-108 -70 -112 -72 -6 -3 103 186 119 207 2 2 18 -4 37 -12 60 -29 100 -25 147
14 76 62 128 117 143 151 24 54 36 96 29 104 -4 4 -2 4 5 0 17 -9 28 14 12 25
-11 7 -10 9 4 9 20 0 23 16 5 23 -8 3 -6 6 5 6 17 1 43 -46 32 -57 -3 -3 -5 0
-5 6 0 7 -4 12 -8 12 -12 0 -2 -64 11 -72 8 -5 7 -15 -3 -32 -12 -24 -14 -24
-26 -8 -13 16 -13 16 -14 0 0 -10 -25 -48 -56 -84 l-57 -67 24 -18 c13 -10 56
-34 94 -54 109 -54 247 -143 233 -148 -18 -8 22 -43 109 -95 73 -44 77 -45
310 -82 63 -10 82 -19 145 -65 93 -69 108 -73 109 -32 2 71 10 80 74 93 63 11
107 28 239 88 127 59 81 51 -60 -10 -128 -55 -234 -80 -234 -55 0 24 61 138
89 165 28 27 168 83 316 127 39 12 78 28 87 36 23 20 71 103 65 110 -9 8 -248
-56 -305 -82 -30 -14 -71 -38 -92 -55 -48 -38 -80 -40 -80 -5 0 31 17 42 220
141 200 97 321 149 401 170 35 10 68 21 73 26 56 48 -442 -140 -603 -228 -35
-19 -65 -33 -67 -31 -8 7 55 85 88 110 18 14 80 51 138 83 58 32 151 88 208
126 118 78 182 100 265 94 31 -3 60 -7 65 -10 10 -6 34 183 25 197 -20 32
-324 -38 -455 -104 l-61 -31 6 42 c6 49 30 88 60 100 12 4 58 31 102 59 44 29
98 56 120 62 54 15 123 5 184 -25 56 -29 61 -30 61 -16 0 5 -23 21 -52 36 -94
48 -196 33 -331 -47 -38 -23 -71 -38 -74 -35 -9 8 72 111 111 141 24 19 59 31
116 41 87 15 127 36 150 78 7 14 21 26 31 26 18 0 49 -40 49 -65 0 -8 4 -15 8
-15 9 0 35 250 27 259 -3 3 -15 0 -25 -7 -11 -7 -20 -10 -20 -7 0 12 33 70 43
77 6 3 12 15 13 25 1 10 7 59 13 108 5 50 22 214 36 365 39 426 78 756 90 769
3 2 5 -41 6 -95 2 -235 3 -264 8 -264 7 0 6 -237 -2 -338 -8 -105 11 -523 28
-617 7 -44 17 -188 21 -320 7 -248 18 -410 24 -345 6 67 15 -78 18 -307 l3
-221 -28 -6 c-15 -3 -44 -8 -63 -11 -19 -2 -64 -10 -100 -18 -36 -7 -91 -12
-122 -11 l-58 2 0 -31 c0 -18 -5 -50 -10 -72 -6 -22 -12 -101 -15 -175 -3 -74
-8 -147 -11 -162 -8 -39 4 -54 26 -30 18 19 208 88 217 78 3 -2 15 -1 27 4 22
8 112 17 281 27 50 3 97 5 105 6 8 0 28 -2 43 -6 16 -5 26 -4 24 0 -5 7 36 9
53 3 9 -4 75 1 94 7 10 3 16 1 13 -4 -3 -4 11 -7 31 -6 21 1 84 -3 142 -8 314
-26 536 -32 764 -21 439 23 699 80 776 170 17 20 28 42 26 49 -3 7 -1 13 5 13
7 0 9 11 5 28 -5 21 -4 24 5 12 9 -12 10 -10 5 10 -3 14 -6 32 -6 40 -1 34
-29 -23 -35 -73 -10 -72 -54 -113 -160 -150 -171 -59 -687 -102 -741 -62 -10
8 -26 15 -35 15 -18 0 -33 26 -23 41 3 5 0 9 -5 9 -6 0 -11 7 -11 15 0 8 -4
15 -9 15 -12 0 -23 38 -23 78 -1 17 -4 32 -9 32 -5 0 -9 -4 -9 -10 0 -5 -4
-10 -10 -10 -5 0 -10 9 -10 20 0 11 -5 20 -11 20 -6 0 -8 9 -4 21 4 11 1 34
-6 51 -10 24 -10 31 1 38 8 5 10 15 6 26 -6 15 -9 16 -16 4 -7 -11 -11 -12
-25 0 -10 8 -12 17 -6 23 5 5 7 16 4 23 -3 8 1 14 11 14 9 0 16 5 16 10 0 6
-11 10 -25 10 -23 0 -25 3 -22 43 l2 42 80 1 c63 1 99 8 173 34 90 32 94 34
117 81 14 26 37 56 52 67 16 10 99 43 187 72 107 35 154 55 145 61 -8 5 -9 9
-4 9 6 0 12 16 13 35 2 19 -1 35 -5 35 -4 0 -45 -9 -91 -20 -87 -21 -146 -47
-199 -88 -38 -28 -63 -23 -63 13 0 22 14 31 124 84 68 33 147 69 175 82 28 12
49 24 47 27 -6 5 -196 -69 -268 -105 -60 -29 -62 -29 -44 6 20 38 76 81 172
132 43 23 100 55 126 71 l46 29 7 97 c4 53 12 103 18 110 6 7 -16 2 -48 -13
-68 -30 -81 -24 -65 31 15 49 27 66 65 88 17 10 22 15 13 12 -26 -8 -22 5 13
54 24 32 33 57 35 94 5 87 16 181 20 185 2 2 -1 10 -7 17 -6 8 -8 22 -4 31 4
10 9 29 11 43 2 14 6 40 9 59 4 18 6 64 6 102 0 38 3 69 7 69 4 0 6 19 4 43
-4 53 -31 70 -75 48 -22 -10 -35 -11 -53 -2 -54 24 -36 73 36 101 36 14 46 23
48 45 2 15 -4 35 -14 46 -17 18 -16 19 22 19 22 0 46 -6 53 -12 11 -11 12 -8
7 15 -4 16 -3 26 1 24 4 -3 8 25 8 61 1 121 15 287 25 290 6 2 10 8 10 13 0 6
-4 7 -10 4 -5 -3 -10 3 -10 15 0 12 4 19 8 16 5 -3 7 23 5 57 -2 34 0 69 3 77
8 17 12 51 15 130 2 30 7 58 11 61 5 3 -16 11 -47 18 -61 14 -90 38 -162 138
-21 28 -69 89 -107 135 -82 99 -98 134 -125 258 -27 121 -62 194 -110 225 -49
33 -177 65 -283 72 -72 5 -105 1 -200 -22 -62 -15 -152 -45 -201 -68 l-88 -42
7 -95 c6 -90 5 -98 -21 -152 -16 -34 -32 -55 -38 -51 -6 4 -8 0 -4 -10 4 -11
2 -14 -8 -10 -8 3 -12 10 -9 15 4 6 0 15 -7 20 -10 7 -7 7 9 3 26 -8 29 3 5
21 -10 7 -18 18 -18 26 0 7 -10 12 -23 11 -16 -2 -22 3 -22 16 0 28 -11 52
-21 46 -5 -3 -11 5 -14 18 -4 14 -18 30 -31 36 -14 6 -22 15 -19 21 3 5 -5 12
-19 16 -13 3 -32 14 -42 25 -9 10 -23 19 -31 19 -7 0 -13 5 -13 12 0 19 -47
-31 -61 -65 -17 -42 -39 -65 -39 -42 0 9 -4 14 -9 10 -5 -3 -16 1 -24 9 -8 8
-17 13 -20 10 -3 -4 -16 3 -28 15 -33 30 -58 26 -72 -12 -6 -17 -8 -17 -23 -3
-8 9 -24 21 -35 27 -22 11 -22 48 -1 87 8 14 10 28 4 38 -7 12 -13 9 -33 -20
-13 -20 -32 -36 -41 -36 -20 0 -24 -25 -7 -36 6 -3 7 -9 3 -13 -12 -8 -36 -79
-31 -88 3 -5 1 -28 -3 -53 l-7 -45 -2 60 c-1 65 31 312 37 282 5 -23 22 -12
22 14 0 12 3 19 8 17 4 -2 24 -12 44 -23 21 -10 41 -15 45 -12 9 10 -7 25 -32
29 -11 1 -23 6 -26 10 -3 5 -17 9 -32 10 -25 2 -27 5 -21 38 l6 35 -22 -30
c-20 -28 -21 -28 -15 -5 4 14 16 45 27 69 11 24 22 59 25 79 6 33 5 35 -18 28
-72 -23 -248 -48 -434 -63 -154 -11 -398 -17 -910 -21 l-700 -5 -32 -64 c-17
-35 -27 -61 -22 -58 5 3 6 -1 3 -10 -4 -9 -13 -14 -21 -11 -8 4 -4 -7 10 -24
36 -42 51 -181 22 -202 -5 -4 -2 -14 8 -26 21 -23 21 -39 2 -75 -12 -24 -12
-29 0 -34 11 -4 15 -24 15 -82 0 -42 5 -116 10 -166 6 -57 6 -93 0 -99 -16
-16 -12 -29 6 -22 13 5 14 2 9 -11 -5 -10 -11 -54 -16 -98 -4 -44 -10 -92 -14
-107 -7 -29 -90 -108 -112 -108 -7 0 -13 -7 -13 -16 0 -8 4 -12 10 -9 6 4 7
-1 3 -11 -4 -11 -8 -13 -11 -6 -2 7 -8 10 -12 7 -5 -3 -6 -13 -3 -22 4 -11 2
-14 -8 -11 -14 5 -86 -27 -122 -54 -17 -13 -13 -16 45 -33 34 -10 67 -17 72
-16 5 1 6 -5 3 -12 -3 -8 -1 -19 5 -25 12 -12 -14 -73 -40 -94 -9 -8 -13 -8
-9 -1 4 6 -16 2 -46 -9 -75 -29 -156 -27 -236 6 -65 28 -77 26 -83 -8 -2 -15
5 -21 32 -27 33 -7 56 -27 90 -77 9 -14 35 -27 68 -36 61 -16 132 -76 132
-112 0 -57 -69 -70 -150 -29 -27 14 -65 25 -84 25 -50 0 -79 14 -119 57 -34
35 -38 37 -53 22 -13 -14 -14 -23 -5 -50 5 -19 13 -47 16 -62 3 -15 30 -55 61
-88 38 -42 54 -67 52 -82 -7 -50 -88 -17 -141 57 -13 19 -1 11 31 -21 59 -59
108 -77 55 -20 -16 17 -43 50 -58 72 -23 33 -19 30 23 -15 28 -30 51 -58 52
-62 0 -5 7 -8 15 -8 23 0 3 34 -52 91 -34 35 -46 56 -50 87 -8 63 -28 72 -51
25 -35 -69 -37 -84 -11 -105 l24 -19 -23 11 c-13 6 -25 10 -27 8 -2 -2 -11
-51 -20 -108 -9 -58 -23 -139 -31 -180 -9 -41 -21 -102 -28 -136 -8 -39 -12
-142 -10 -295 2 -224 9 -309 39 -429 10 -39 16 -160 19 -425 3 -203 9 -407 12
-452 6 -80 6 -82 -15 -76 -11 3 -29 2 -38 -2 -10 -5 -26 -7 -35 -6 -11 1 -18
-4 -18 -13 0 -20 -19 -21 -26 -1 -8 20 -24 19 -24 -1 0 -12 -10 -15 -45 -13
-24 2 -47 0 -51 -4 -4 -4 -18 -7 -30 -7 -13 0 -26 -5 -30 -11 -4 -8 -9 -7 -14
2 -7 10 -12 10 -25 -1 -14 -12 -18 -12 -27 1 -7 11 -11 11 -15 2 -2 -7 -15
-13 -28 -13 -16 0 -22 -5 -21 -17 0 -12 -6 -18 -19 -19 -44 -1 -95 -16 -95
-27 0 -8 -3 -8 -9 2 -7 11 -11 10 -20 -5 -9 -16 -12 -16 -20 -5 -5 7 -14 10
-20 6 -9 -5 -9 -10 -1 -20 16 -19 -2 -27 -53 -24 -24 2 -49 -1 -56 -5 -10 -6
-12 -3 -7 12 6 17 2 20 -21 19 -15 -1 -30 -5 -33 -8 -3 -4 -62 -2 -131 3
l-126 11 3 76 c26 576 45 875 56 882 9 6 9 14 1 32 -12 26 -6 110 7 102 8 -5
16 60 26 211 5 71 3 103 -5 108 -17 11 -13 37 7 52 16 12 16 14 0 30 -16 16
-16 19 1 43 15 21 22 66 35 221 9 107 17 231 17 275 0 44 0 127 0 185 -1 112
6 163 19 155 4 -3 10 5 14 18 10 36 7 87 -5 87 -11 0 -9 57 6 200 3 25 7 74
10 110 21 255 45 479 55 504 8 18 22 125 45 338 3 31 10 139 15 240 5 100 15
208 23 238 30 114 30 110 4 110 -13 0 -26 -2 -29 -5z m3418 -217 c5 -7 3 -8
-7 -3 -12 8 -12 6 0 -8 7 -9 11 -24 7 -32 -7 -18 5 -20 22 -3 7 7 12 8 12 3 0
-15 -39 -55 -105 -110 -84 -69 -82 -67 -61 -59 16 6 17 4 7 -14 -7 -13 -7 -23
-1 -27 12 -8 78 27 112 59 31 30 38 32 38 11 0 -8 5 -15 10 -15 6 0 10 -7 10
-15 0 -8 -6 -12 -12 -10 -12 5 -71 -126 -97 -215 -13 -45 -37 -207 -56 -385
-17 -150 -50 -351 -66 -392 -5 -14 -7 -29 -3 -34 3 -5 0 -8 -6 -7 -6 2 -35
-62 -64 -142 -29 -80 -64 -166 -77 -190 l-24 -45 -6 110 c-14 246 21 527 86
705 17 46 29 101 31 142 1 37 7 83 13 103 5 19 6 35 3 35 -4 0 -29 -14 -57
-30 -58 -34 -70 -37 -60 -12 4 9 9 44 10 77 3 59 3 60 61 112 32 29 62 53 66
53 4 0 5 10 3 21 -3 12 -1 27 3 33 3 6 8 22 10 34 3 22 0 23 -28 18 -16 -3
-43 -8 -59 -12 l-28 -5 10 51 c9 45 16 55 71 99 63 50 104 74 165 96 46 17 58
18 67 3z m42 -317 c-1 -45 -6 -77 -11 -74 -11 7 1 -38 14 -51 11 -13 12 -163
1 -170 -5 -3 -10 -28 -11 -57 -1 -28 -8 -61 -16 -72 -8 -12 -15 -26 -15 -32 0
-5 5 -3 11 5 13 18 8 -14 -16 -110 -9 -36 -16 -72 -17 -80 0 -8 -12 -53 -27
-100 l-26 -85 -3 125 c-3 133 7 253 38 443 18 107 70 337 77 337 1 0 2 -36 1
-79z m-1491 -903 c-3 -12 3 -46 13 -77 25 -68 25 -103 3 -123 -41 -36 -103 27
-103 103 0 40 5 55 31 84 36 40 65 47 56 13z m107 -9 c48 -56 29 -161 -34
-194 -34 -18 -34 -18 -20 22 9 24 7 41 -10 84 -20 54 -26 100 -13 112 16 16
53 5 77 -24z m179 -275 c38 -25 74 -85 62 -104 -4 -6 -15 -4 -28 5 -12 8 -56
21 -97 30 -78 16 -110 36 -110 67 0 44 107 46 173 2z m-349 6 c35 -13 33 -30
-4 -30 -22 0 -44 -12 -78 -44 -53 -49 -82 -66 -111 -66 -17 0 -21 6 -21 35 0
79 124 140 214 105z m211 -77 c11 -6 43 -14 70 -18 55 -8 105 -32 105 -52 0
-33 -107 -45 -159 -18 -44 22 -81 72 -81 108 l0 30 23 -20 c12 -11 31 -25 42
-30z m2640 -114 l0 -154 -37 -2 -38 -3 0 139 c0 77 -3 146 -6 154 -4 12 3 17
28 20 18 2 38 3 43 2 6 -1 10 -61 10 -156z m-2804 141 c5 0 9 -12 9 -27 -1
-72 -116 -135 -202 -112 -43 11 -49 24 -14 33 13 3 46 26 74 51 53 47 88 67
110 59 8 -2 18 -4 23 -4z m3273 -117 c-16 -33 -18 -96 -4 -124 12 -22 59 -26
78 -7 9 9 12 8 12 -6 0 -11 -16 -24 -43 -36 -80 -36 -152 7 -152 91 0 42 24
75 70 95 47 21 56 18 39 -13z m-324 2 c69 -36 54 -158 -22 -184 -53 -19 -57
-16 -40 34 19 58 9 129 -21 150 -21 15 -20 15 16 15 21 0 51 -7 67 -15z m175
-87 l-5 -103 -40 0 -41 0 -2 97 c-2 97 -2 97 23 101 75 12 71 18 65 -95z
m-3659 -253 c14 -11 15 -14 3 -9 -10 3 -19 -1 -22 -10 -5 -14 5 -16 68 -16 69
0 75 -2 75 -21 l0 -20 26 20 c32 25 61 27 86 4 35 -31 16 -73 -34 -73 -17 0
-33 8 -40 19 -9 15 -15 17 -25 9 -16 -13 -18 -134 -3 -143 25 -15 5 -23 -55
-21 -61 2 -96 -10 -78 -27 3 -4 2 -7 -4 -7 -6 0 -14 -7 -17 -16 -5 -14 -4 -15
9 -4 18 15 20 13 29 -17 5 -14 3 -23 -3 -23 -6 0 -11 7 -11 16 0 14 -3 14 -15
4 -17 -14 -21 -35 -5 -25 6 3 13 -1 16 -10 5 -12 10 -13 20 -4 7 6 22 8 34 4
24 -8 28 -56 5 -75 -8 -7 -15 -8 -15 -3 0 6 -10 10 -22 9 -16 -1 -23 -7 -22
-19 1 -10 -3 -16 -9 -14 -7 2 -12 10 -12 18 0 8 -4 42 -9 77 -7 51 -12 65 -30
72 -20 8 -20 9 -1 10 17 0 18 2 5 10 -11 8 -7 9 14 4 21 -5 27 -3 24 7 -2 7
-20 15 -39 17 -19 2 -41 10 -51 18 -11 10 -18 12 -23 5 -10 -17 -66 -13 -87 6
-10 9 -18 29 -18 45 0 24 6 32 35 44 19 7 44 14 55 14 15 0 20 7 20 26 0 35
-17 64 -38 64 -10 0 -13 -3 -6 -8 34 -23 14 -75 -25 -65 -64 17 -10 99 58 90
55 -7 82 -15 98 -29 14 -11 15 -10 8 11 -5 16 -3 26 6 32 10 6 11 9 2 9 -9 0
-13 15 -12 43 l1 42 8 -38 c4 -21 16 -44 26 -52z m629 -71 c0 -82 4 -158 8
-169 6 -18 2 -20 -43 -22 l-50 -3 0 153 c0 103 -4 157 -12 165 -9 9 -8 13 3
16 18 7 71 13 84 11 6 -1 10 -60 10 -151z m-3177 113 c21 -16 14 -54 -15 -75
l-28 -20 28 5 27 5 0 -104 c0 -68 4 -108 12 -116 9 -9 2 -12 -34 -12 -26 0
-52 -2 -60 -5 -7 -3 -19 -1 -27 4 -12 8 -12 12 -2 24 13 17 13 154 0 163 -21
12 -7 33 24 36 l32 4 -26 11 c-32 14 -39 30 -28 61 14 37 61 47 97 19z m459
-103 c18 -20 22 -36 22 -86 -1 -39 3 -64 10 -66 21 -7 -9 -32 -39 -32 -43 0
-52 20 -46 99 6 61 4 73 -13 90 -11 11 -16 22 -13 26 12 12 57 -6 79 -31z
m3510 10 c23 -23 25 -31 20 -85 -4 -45 -1 -63 10 -74 13 -13 11 -16 -11 -27
-20 -8 -32 -8 -51 0 -24 11 -25 13 -19 92 5 69 3 84 -12 101 -16 18 -16 19 10
19 16 0 38 -11 53 -26z m-3796 -10 c-29 -37 -29 -116 0 -145 20 -20 31 -21 74
-3 19 8 19 7 4 -16 -41 -62 -151 -60 -189 3 -45 74 -11 150 79 178 48 14 54
11 32 -17z m3505 4 c-10 -14 -16 -44 -16 -80 0 -51 3 -60 25 -74 21 -14 31
-15 51 -5 43 19 24 -11 -20 -33 -32 -16 -44 -17 -76 -7 -49 14 -80 53 -80 98
0 58 28 94 85 112 45 14 47 13 31 -11z m-695 -17 c26 -26 29 -36 29 -90 0 -50
4 -62 21 -75 21 -15 21 -15 -12 -24 -44 -11 -88 3 -94 31 -3 12 -6 53 -7 92
-3 63 -5 71 -28 82 -24 12 -23 13 18 13 35 0 49 -6 73 -29z m364 -1 c67 -63
25 -174 -72 -193 -38 -8 -38 -9 -17 32 21 43 15 148 -9 166 -28 21 -19 28 29
22 28 -3 54 -13 69 -27z m170 -80 l0 -110 -53 0 c-50 0 -52 1 -42 21 6 11 10
57 9 102 l-2 82 29 6 c63 14 60 19 59 -101z m-2885 -724 c0 -3 -7 -12 -16 -20
-12 -12 -12 -16 -2 -16 7 -1 -11 -9 -40 -20 -28 -10 -86 -39 -128 -65 -42 -25
-79 -44 -82 -41 -8 9 69 97 117 134 36 27 51 32 97 32 30 0 54 -2 54 -4z m-7
-96 c9 0 9 -2 1 -8 -15 -9 -24 -90 -12 -94 6 -2 -34 -19 -88 -37 -55 -18 -123
-46 -151 -62 -85 -47 -101 -35 -64 48 17 36 31 47 112 90 101 53 157 74 177
67 8 -2 19 -4 25 -4z m1296 -132 c7 -29 28 -87 47 -129 l36 -77 -31 -188 c-17
-104 -36 -241 -41 -304 -6 -63 -15 -119 -20 -124 -5 -5 -9 179 -9 433 -1 242
0 441 3 441 2 0 9 -24 15 -52z m-1316 -212 c3 -8 3 -17 -1 -20 -3 -4 -7 -12
-9 -19 -20 -88 -3 -75 -193 -154 -96 -41 -218 -95 -270 -121 -52 -26 -98 -48
-102 -50 -23 -11 -2 33 37 76 36 39 73 65 168 113 67 34 154 81 192 104 63 38
150 82 166 84 4 1 9 -5 12 -13z m1507 -171 l32 -61 -69 -129 c-38 -72 -73
-139 -77 -150 -21 -51 -14 20 19 207 19 112 35 208 35 213 0 17 27 -19 60 -80z"/>
<path d="M13314 7364 c-150 -94 -284 -210 -269 -233 14 -23 299 90 345 136 13
14 13 15 0 7 -12 -6 -13 -5 -4 7 6 8 12 30 13 49 1 19 3 47 5 63 2 15 2 27 1
27 -1 0 -42 -25 -91 -56z"/>
<path d="M2496 6638 c-12 -28 -12 -34 0 -41 27 -16 113 -19 163 -7 48 11 101
42 101 59 0 5 -46 8 -102 7 -57 0 -113 3 -126 7 -19 7 -24 4 -36 -25z"/>
<path d="M8809 6468 c-12 -24 -30 -53 -41 -64 -19 -22 -19 -22 14 -42 48 -29
83 -34 165 -26 87 8 91 21 13 44 -53 15 -71 32 -51 45 17 10 13 25 -5 18 -13
-5 -15 1 -12 28 3 32 1 34 -29 37 -29 3 -34 -1 -54 -40z"/>
<path d="M2381 6434 c-20 -45 15 -71 106 -80 32 -4 75 -15 95 -25 39 -20 88
-25 88 -10 0 4 -28 21 -62 36 -35 15 -93 45 -129 66 -36 21 -70 39 -75 39 -6
0 -16 -12 -23 -26z"/>
<path d="M6186 6424 c-10 -27 -7 -70 9 -107 21 -51 17 -60 -5 -12 -10 22 -19
59 -19 83 -1 47 -19 55 -57 24 -49 -39 -63 -131 -28 -179 32 -42 69 -61 93
-46 15 10 21 10 24 0 3 -9 11 -8 32 3 63 34 92 119 61 180 -18 36 -12 55 13
45 12 -5 13 -4 4 6 -10 10 -15 9 -27 0 -12 -10 -20 -10 -38 3 -29 20 -54 20
-62 0z"/>
<path d="M8716 6336 c-26 -40 -23 -46 34 -71 88 -39 191 -30 267 21 l28 19
-110 5 c-88 4 -118 9 -153 28 -23 12 -44 22 -46 22 -2 0 -11 -11 -20 -24z"/>
<path d="M8644 6173 c-4 -16 -3 -28 3 -30 6 -2 37 -20 69 -40 83 -50 244 -124
244 -112 0 22 -59 68 -110 85 -40 14 -60 29 -82 59 -47 65 -113 85 -124 38z"/>
<path d="M5975 6124 c-54 -28 -85 -65 -85 -101 0 -62 53 -57 127 12 46 44 87
64 100 51 4 -3 -4 -6 -16 -6 -13 0 -44 -21 -74 -49 -29 -28 -65 -55 -81 -61
-23 -8 -26 -13 -16 -25 34 -42 151 -24 206 32 37 37 48 96 19 107 -8 3 -15 12
-15 21 0 34 -111 47 -165 19z"/>
<path d="M8615 6110 c-8 -25 26 -75 65 -95 16 -8 48 -15 72 -15 25 0 64 -10
93 -25 52 -26 101 -33 89 -14 -3 6 -36 25 -73 43 -36 17 -100 53 -142 79 -42
26 -81 47 -87 47 -6 0 -14 -9 -17 -20z"/>
<path d="M5123 4480 c-7 -25 -18 -92 -23 -150 -6 -58 -15 -132 -20 -165 -18
-112 -40 -402 -38 -494 2 -96 2 -95 46 -54 7 7 33 29 58 49 29 24 43 42 39 52
-4 12 -2 12 8 3 11 -8 18 -6 33 10 16 17 16 22 4 29 -21 14 -24 13 -61 -19
-38 -34 -58 -31 -34 5 9 14 13 30 9 36 -4 7 -3 8 4 4 11 -7 16 7 15 41 -1 7 3
10 8 8 11 -7 28 26 35 69 7 45 -9 47 -29 4 -13 -28 -77 -188 -102 -253 -16
-43 -16 10 -1 138 9 72 18 152 21 177 5 49 23 214 30 269 5 41 -4 34 -16 -11
-9 -33 -9 -33 -4 6 2 21 11 43 20 50 13 9 15 31 13 126 -3 111 -3 114 -15 70z"/>
<path d="M10345 3615 c-200 -114 -183 -103 -160 -110 11 -3 39 -15 62 -27 48
-23 57 -21 166 35 l58 30 -2 52 c-1 28 1 57 5 63 4 7 4 12 -1 12 -4 0 -1 5 7
10 8 5 11 10 5 9 -5 0 -68 -33 -140 -74z"/>
<path d="M5116 3549 c-59 -9 -69 -18 -64 -55 3 -28 4 -29 63 -29 85 1 135 12
129 29 -3 8 2 16 13 19 14 4 14 5 -4 6 -26 1 -29 11 -11 29 14 14 -46 15 -126
1z"/>
<path d="M10817 3478 c-8 -18 -31 -111 -51 -207 -19 -97 -41 -178 -48 -182
-30 -20 8 -7 51 17 67 36 83 69 89 180 5 100 -5 224 -18 224 -4 0 -15 -15 -23
-32z"/>
<path d="M5066 3343 c6 -49 20 -61 74 -63 85 -5 147 1 125 10 l-20 9 20 1 c19
1 19 1 1 11 -15 9 -16 13 -5 20 12 7 12 9 0 9 -10 0 -11 3 -2 14 9 11 -3 14
-66 20 -135 11 -132 12 -127 -31z"/>
<path d="M10429 3366 c-3 -3 -30 -10 -59 -16 -68 -13 -76 -21 -61 -58 25 -60
98 -60 167 0 46 41 44 72 -6 76 -20 2 -38 1 -41 -2z"/>
<path d="M8534 3238 c10 -62 33 -89 116 -131 208 -105 671 -165 1180 -154 270
6 369 14 565 44 160 24 113 27 -62 4 -536 -72 -1214 -41 -1558 71 l-70 23 90
2 c122 4 131 7 130 40 0 26 -3 28 -72 39 -106 18 -222 52 -272 80 -24 13 -46
24 -49 24 -2 0 -2 -19 2 -42z"/>
</g>
</svg>
