<?xml version="1.0" standalone="no"?>
<!DOCTYPE svg PUBLIC "-//W3C//DTD SVG 20010904//EN"
 "http://www.w3.org/TR/2001/REC-SVG-20010904/DTD/svg10.dtd">
<svg version="1.0" xmlns="http://www.w3.org/2000/svg"
 width="626.000000pt" height="417.000000pt" viewBox="0 0 626.000000 417.000000"
 preserveAspectRatio="xMidYMid meet">
<metadata>
Created by potrace 1.16, written by Peter Selinger 2001-2019
</metadata>
<g transform="translate(0.000000,417.000000) scale(0.100000,-0.100000)"
fill="#000000" stroke="none">
<path d="M0 3968 l0 -202 20 22 c12 12 25 22 31 22 6 0 8 4 5 9 -3 4 7 6 22 4
21 -4 24 -2 12 6 -12 9 -10 11 10 11 14 0 35 -3 47 -6 21 -6 22 -7 7 -36 -19
-37 -75 -62 -120 -53 l-33 6 1 -67 c1 -63 2 -65 17 -46 10 13 21 18 29 14 9
-6 4 -16 -18 -37 -37 -35 -40 -77 -8 -99 12 -9 28 -26 35 -38 12 -22 12 -22
13 -3 1 15 6 11 20 -17 14 -25 18 -46 13 -68 -5 -28 -9 -31 -32 -25 -14 4 -36
16 -49 27 -12 12 -22 17 -22 12 1 -12 39 -39 67 -48 17 -6 22 -16 25 -59 4
-48 1 -57 -44 -126 -53 -82 -57 -97 -30 -132 26 -34 33 -56 16 -56 -7 0 -10 5
-7 11 4 6 -1 5 -10 -3 -14 -11 -17 -32 -17 -120 0 -78 3 -102 11 -91 9 12 9
11 3 -5 -12 -29 -17 -195 -6 -195 5 0 17 9 26 19 10 11 32 23 50 27 17 3 38
12 46 20 9 8 21 10 29 5 17 -11 -18 -44 -63 -61 -91 -34 -96 -38 -96 -77 l0
-36 23 20 c33 30 65 45 72 33 3 -5 0 -10 -7 -10 -10 0 -10 -2 -1 -8 9 -6 -2
-22 -37 -55 -38 -36 -50 -54 -50 -77 0 -34 6 -37 32 -13 10 9 21 13 24 10 10
-9 -14 -69 -38 -94 -12 -13 -19 -26 -15 -29 3 -3 19 13 36 37 26 35 31 51 31
99 0 50 4 61 36 98 20 24 48 49 64 57 34 18 60 79 60 143 0 28 8 64 20 87 24
47 27 152 6 213 -16 45 -81 159 -71 125 4 -16 -2 -31 -25 -55 -23 -23 -30 -27
-25 -13 4 11 8 29 10 40 7 48 16 55 65 55 27 0 55 3 63 6 10 4 16 -5 21 -31
12 -61 92 -135 146 -135 31 0 82 29 74 42 -4 7 -3 8 4 4 6 -4 18 4 27 17 12
18 22 23 48 20 l32 -3 -27 11 c-20 8 -28 18 -28 35 0 36 26 41 57 10 14 -14
33 -26 41 -26 8 0 -3 13 -24 28 -40 29 -70 60 -63 65 26 18 63 26 75 16 8 -6
12 -14 10 -18 -6 -9 16 -36 37 -44 23 -9 22 -2 -7 36 -33 43 -39 87 -12 87 23
0 66 -40 59 -55 -3 -8 0 -15 6 -15 6 0 11 -6 12 -12 1 -18 64 -68 91 -73 20
-4 16 3 -24 47 -27 28 -47 52 -45 54 5 5 124 -41 141 -55 13 -11 14 -16 4 -22
-7 -5 -8 -9 -2 -9 18 0 25 12 14 25 -8 9 -4 11 15 7 14 -2 25 -11 25 -18 0
-11 19 -14 82 -14 l83 0 -40 27 c-22 14 -69 51 -105 82 -36 30 -57 46 -47 35
9 -11 14 -24 10 -27 -3 -4 -1 -7 6 -7 7 0 9 -4 6 -10 -4 -6 1 -7 11 -3 12 4
15 2 12 -8 -3 -8 -11 -13 -18 -11 -10 2 -11 0 -2 -11 7 -8 9 -16 6 -19 -11
-12 -132 24 -216 64 -74 35 -88 45 -88 65 0 12 5 23 11 23 8 0 8 5 -1 15 -7 8
-9 15 -6 15 10 0 -34 62 -54 77 -61 46 -57 42 -33 40 12 0 19 -5 17 -9 -3 -4
2 -5 10 -2 9 3 13 10 11 15 -3 4 17 20 44 34 54 27 65 30 56 16 -3 -5 -1 -12
4 -15 11 -7 8 20 -3 31 -4 4 -18 8 -31 8 -19 1 -22 -2 -13 -12 13 -17 -4 -17
-22 0 -12 10 -12 9 -1 -5 15 -20 2 -25 -16 -7 -8 8 -22 1 -51 -25 -23 -21 -50
-36 -64 -36 -14 0 -47 -11 -73 -25 -26 -14 -50 -23 -53 -20 -3 3 0 5 6 5 7 0
3 9 -8 20 -25 25 -26 41 -2 33 14 -5 13 -3 -3 11 -20 17 -20 17 5 12 14 -3 19
-3 13 0 -7 3 -13 10 -13 15 0 6 9 5 23 -1 22 -11 22 -11 2 6 -19 16 -19 16 10
10 22 -5 26 -4 15 4 -13 8 -12 10 5 11 l20 0 -20 9 c-27 12 -43 12 -25 0 13
-8 13 -10 1 -10 -8 0 -27 -12 -42 -26 l-26 -25 -37 25 c-34 23 -35 25 -16 31
12 4 19 9 17 11 -3 3 -21 -2 -41 -10 -20 -8 -34 -11 -31 -6 8 13 -2 13 -27 -1
-25 -13 -104 -14 -138 0 -18 7 -20 10 -7 10 10 1 16 5 12 10 -3 5 4 12 15 16
11 3 20 10 20 15 0 5 6 8 12 6 7 -1 10 -1 6 1 -4 2 -4 11 -1 19 3 7 9 11 14 8
5 -3 19 -2 30 1 17 6 19 9 8 16 -12 7 -11 9 1 9 11 0 12 2 2 8 -10 7 -8 16 5
43 11 20 18 57 18 91 l0 57 59 31 c39 21 61 28 66 21 3 -6 22 -23 41 -36 30
-23 42 -26 114 -24 79 2 81 2 175 -51 134 -75 138 -78 155 -104 9 -13 20 -52
26 -87 24 -151 92 -230 279 -322 70 -35 181 -81 246 -103 95 -31 124 -46 148
-72 16 -18 35 -31 42 -28 8 3 13 0 11 -6 -3 -13 49 -29 71 -21 10 3 24 12 33
19 13 11 34 10 130 -11 63 -13 131 -27 152 -30 21 -3 35 -10 31 -16 -19 -31
67 -127 107 -121 11 2 26 -1 32 -6 7 -6 21 -6 35 -1 26 10 31 59 7 79 -21 17
-19 30 5 30 13 0 24 10 30 24 7 20 17 25 52 28 24 2 63 -3 88 -11 95 -28 108
-31 149 -31 23 0 55 7 70 15 23 11 34 12 55 2 26 -12 35 -27 16 -27 -5 0 -10
-18 -10 -39 0 -68 75 -106 120 -61 31 31 26 73 -12 105 -18 15 -32 37 -32 49
0 18 5 21 36 18 45 -4 95 21 110 54 7 16 35 36 75 55 57 27 70 30 119 23 55
-6 56 -6 50 17 -4 19 -3 18 6 -3 11 -27 15 -28 77 -27 36 0 84 4 106 8 l40 7
-36 12 c-19 7 -50 25 -68 40 -30 24 -34 35 -43 107 -20 160 -75 292 -139 333
-27 18 -44 41 -63 87 -33 76 -58 93 -115 77 -67 -21 -109 -15 -142 17 -29 30
-37 51 -19 51 20 0 50 65 50 108 0 54 -22 97 -63 122 -26 16 -50 20 -122 20
-81 -1 -94 -3 -130 -28 -23 -16 -48 -45 -60 -69 -11 -23 -26 -42 -33 -43 -7 0
-40 15 -72 32 -52 29 -59 37 -64 71 l-6 38 -70 -2 c-38 -1 -67 -6 -64 -11 3
-4 9 -6 14 -3 11 6 46 -44 46 -65 -1 -9 -13 -16 -33 -18 -23 -2 -40 5 -67 28
-20 18 -36 41 -36 51 0 17 -8 19 -66 19 -36 0 -97 -7 -136 -16 l-70 -16 20
-21 c19 -18 25 -19 60 -9 22 7 57 12 79 12 37 0 41 -3 46 -29 8 -41 61 -97
103 -111 43 -15 107 6 144 45 21 23 40 23 68 0 1 -1 -18 -22 -43 -47 -43 -43
-56 -79 -45 -123 1 -5 3 -16 3 -22 0 -7 4 -13 9 -13 4 0 8 -7 8 -15 0 -26 78
-70 124 -69 43 1 78 8 99 20 9 5 9 4 1 -5 -6 -7 -9 -23 -6 -37 5 -27 22 -43
22 -21 0 8 7 21 17 28 15 13 15 12 5 -7 -6 -12 -9 -31 -7 -43 2 -13 0 -19 -7
-15 -6 4 -8 -1 -4 -14 4 -13 -3 -40 -18 -71 -13 -28 -22 -60 -19 -71 4 -14 0
-20 -10 -20 -9 0 -18 4 -21 8 -3 5 -26 6 -50 2 -34 -5 -46 -3 -51 7 -7 20 -6
25 3 20 4 -3 8 11 9 30 1 19 8 42 15 51 11 13 11 14 -2 7 -13 -8 -13 -7 -1 8
7 9 10 17 5 17 -4 0 7 15 25 34 18 19 28 36 23 40 -10 6 -30 -12 -30 -29 0 -5
-6 -11 -13 -14 -7 -2 -9 1 -5 8 4 6 2 11 -4 11 -7 0 -9 -7 -6 -16 4 -10 2 -13
-6 -8 -6 4 -8 3 -4 -4 3 -6 1 -14 -5 -18 -8 -5 -9 -3 -4 5 11 20 -28 -4 -46
-26 -12 -15 -10 -15 9 1 31 27 44 11 36 -47 l-7 -46 -71 76 c-97 105 -403 373
-493 433 -92 62 -153 81 -268 86 -72 3 -98 0 -132 -16 -31 -14 -41 -23 -37
-34 4 -9 1 -16 -6 -16 -10 0 -10 -3 0 -15 9 -11 9 -15 1 -15 -7 0 -3 -9 8 -21
18 -20 20 -20 52 -4 l32 17 -23 18 c-42 31 -7 49 69 34 27 -6 31 -11 29 -33
-3 -25 -1 -26 45 -24 27 2 57 8 67 13 27 14 115 -30 124 -62 7 -27 73 -76 206
-155 52 -31 97 -60 100 -63 3 -4 28 -19 56 -33 65 -33 149 -101 199 -163 31
-37 40 -57 41 -89 1 -39 0 -41 -36 -53 -31 -9 -45 -9 -74 3 -47 20 -106 19
-136 -2 -13 -9 -43 -17 -65 -18 -83 -1 -124 -58 -90 -122 29 -53 10 -50 -47 7
-29 29 -44 47 -33 40 11 -8 30 -25 42 -39 13 -14 23 -23 23 -19 0 4 -14 23
-31 43 -26 29 -38 35 -70 35 -33 0 -40 -4 -45 -26 -4 -17 0 -44 13 -75 l21
-48 -85 42 c-73 36 -83 45 -77 62 15 41 9 104 -12 132 -45 61 -124 30 -124
-49 0 -33 -2 -37 -17 -29 -85 43 -111 57 -132 73 -13 10 -31 18 -40 19 -13 0
-78 68 -154 162 -18 22 -18 21 -12 -33 9 -69 31 -106 106 -174 48 -43 88 -66
205 -117 94 -41 141 -66 135 -72 -13 -13 -250 88 -326 138 -158 106 -253 306
-217 461 9 40 9 41 -32 66 -23 14 -66 38 -96 53 -30 15 -142 79 -248 141
l-194 114 -204 0 -204 0 0 -202z m2523 -313 c-1 -49 2 -94 6 -100 4 -5 11 -19
15 -29 6 -16 4 -17 -11 -6 -10 7 -2 -3 18 -21 33 -30 59 -67 59 -83 0 -13 -38
-5 -44 10 -3 8 -11 12 -17 8 -8 -5 -9 -3 -5 5 11 17 -22 40 -56 41 -18 0 -31
-7 -38 -21 -11 -19 -13 -20 -30 -4 -15 13 -16 23 -9 58 5 23 14 54 20 69 l11
28 29 -40 c16 -22 31 -40 33 -40 10 0 -1 28 -20 53 -17 21 -20 34 -14 71 4 26
3 46 -2 46 -5 0 -6 6 -1 13 4 6 8 15 9 20 1 4 2 10 3 13 0 3 11 4 24 2 21 -3
22 -7 20 -93z m-2110 -454 c-2 -6 11 -18 28 -27 17 -8 28 -11 25 -6 -3 6 0 13
6 16 7 3 4 4 -7 1 -11 -2 -27 0 -35 5 -13 9 -13 10 0 11 8 0 25 2 37 3 12 1
20 -1 18 -5 -7 -10 21 -30 30 -21 5 4 5 1 1 -5 -4 -7 -2 -13 4 -13 6 0 8 -5 5
-10 -4 -6 -15 -1 -27 12 l-20 23 20 -35 c11 -19 30 -39 41 -45 32 -15 25 -32
-13 -30 -19 0 -34 -2 -34 -5 2 -25 -4 -31 -24 -24 -13 4 -25 10 -28 15 -3 4
-26 21 -50 38 -31 21 -45 37 -46 55 0 14 3 23 8 20 4 -3 8 2 8 10 0 17 29 37
45 32 6 -2 9 -8 8 -15z"/>
<path d="M886 4161 c5 -5 52 -38 104 -75 l94 -65 36 26 c19 14 42 34 51 44 9
10 55 27 105 40 49 12 98 25 109 30 17 6 15 8 -11 8 -17 1 -48 -6 -67 -14 -20
-8 -46 -15 -58 -15 -15 0 -19 5 -15 15 5 13 -19 15 -176 15 -108 0 -178 -4
-172 -9z"/>
<path d="M2980 4159 c0 -6 7 -9 15 -6 8 4 17 2 20 -4 4 -5 10 -7 15 -4 15 9
23 -82 16 -174 -7 -79 -5 -89 14 -112 11 -13 20 -19 19 -14 -1 6 -1 12 1 15 1
3 3 16 6 30 2 14 7 32 11 40 10 24 10 34 -1 49 -8 11 -8 13 2 7 7 -4 12 -2 12
4 0 6 6 8 13 4 6 -4 3 2 -7 14 -11 12 -15 22 -11 22 4 0 0 10 -11 22 l-19 22
26 -20 c18 -12 23 -21 15 -26 -8 -6 -8 -8 1 -8 16 0 26 17 13 25 -6 4 -8 10
-5 15 3 5 0 12 -6 16 -8 5 -9 3 -4 -7 5 -8 4 -10 0 -6 -12 10 -15 37 -5 37 18
0 81 -90 86 -122 3 -18 -1 -59 -9 -90 -13 -51 -13 -58 2 -73 9 -10 10 -15 4
-11 -7 4 -13 3 -13 -2 0 -6 7 -13 16 -16 22 -8 26 -8 19 4 -4 6 1 7 12 4 16
-6 16 -5 -1 8 -25 20 -30 49 -8 41 10 -4 14 -3 10 2 -4 4 -4 13 1 19 5 6 14
30 20 54 7 23 18 42 26 42 7 0 20 3 29 6 9 3 16 1 16 -6 0 -6 -6 -8 -12 -5 -7
4 -5 0 5 -8 16 -13 16 -18 2 -57 -25 -72 -14 -114 32 -117 19 -2 20 0 8 23
-15 30 -10 56 16 80 10 9 19 22 19 28 0 15 36 46 54 46 27 0 38 -26 27 -64 -7
-28 -6 -39 5 -51 21 -21 42 -9 36 21 -2 13 0 24 6 24 9 0 25 36 23 52 0 4 12
6 27 5 23 -2 27 -7 30 -37 5 -67 11 -80 37 -80 22 0 24 2 14 18 -13 21 -1 73
19 80 21 7 52 -37 52 -73 0 -33 2 -35 33 -35 20 0 27 3 19 8 -6 5 -11 19 -10
33 l2 25 34 -17 c18 -10 40 -15 48 -12 8 3 14 -1 14 -11 0 -9 5 -16 11 -16 6
0 9 7 5 15 -3 8 -1 15 4 15 6 0 10 -4 10 -10 0 -16 13 -12 68 24 28 19 52 32
52 28 0 -4 12 11 27 33 42 62 95 126 101 120 3 -3 -5 -16 -17 -29 -17 -18 -20
-28 -13 -43 5 -10 15 -44 22 -75 7 -32 17 -55 21 -53 4 3 4 19 -1 35 -5 17 -5
32 0 35 5 3 6 15 3 28 -12 50 -6 98 16 120 l21 21 0 -39 c0 -56 19 -122 30
-105 5 8 6 19 2 25 -16 25 -20 69 -8 84 8 11 8 13 -1 7 -18 -10 -16 9 2 24 8
7 13 16 10 20 -3 4 4 19 15 33 11 14 20 27 20 30 0 10 -30 0 -48 -16 -10 -9
-32 -17 -49 -17 -17 0 -33 -6 -36 -14 -6 -14 16 -16 29 -3 4 4 11 7 16 7 18 0
-56 -79 -83 -89 -15 -5 -56 -8 -90 -6 -34 3 -59 2 -56 -1 3 -3 11 -6 19 -8 7
-1 19 -5 26 -9 6 -5 12 -5 12 0 0 4 5 1 10 -7 9 -13 10 -13 10 0 0 13 1 13 10
0 6 -10 10 -11 10 -2 0 6 6 12 13 12 16 -1 -38 -46 -84 -70 -20 -11 -39 -16
-43 -13 -4 4 -13 8 -21 9 -24 4 -73 43 -80 64 -4 11 -10 18 -15 15 -5 -3 -10
-2 -12 3 -6 14 -93 78 -157 116 -59 34 -69 37 -130 34 -58 -3 -66 -5 -66 -23
0 -13 -6 -19 -18 -17 -9 2 -17 -2 -17 -7 0 -14 -30 -29 -71 -36 -19 -3 -43 -8
-54 -11 -16 -4 -17 -3 -5 5 16 11 12 12 -63 15 -16 1 -31 7 -35 13 -4 7 -13 9
-21 4 -14 -9 37 -54 110 -96 48 -27 46 -34 -2 -10 -16 9 -35 13 -41 9 -7 -4
-8 -3 -4 4 3 6 -3 16 -14 22 -11 6 -51 37 -88 69 -54 46 -74 58 -104 59 -21 1
-38 -3 -38 -9z"/>
<path d="M4675 4126 c6 -35 3 -52 -10 -72 -9 -14 -14 -32 -11 -40 3 -8 2 -13
-3 -10 -12 8 -41 -56 -62 -139 -22 -83 -23 -110 -4 -74 7 14 32 38 54 54 37
25 46 27 97 21 31 -3 64 -11 74 -16 13 -7 21 -5 31 6 17 21 108 66 122 61 20
-7 59 19 107 69 l45 48 -59 -52 c-64 -56 -96 -70 -55 -24 66 70 179 202 179
207 0 3 -84 5 -187 5 -136 0 -184 -3 -173 -11 11 -8 8 -9 -15 -5 -16 3 -54 9
-83 13 l-54 6 7 -47z"/>
<path d="M5333 4148 c-25 -29 -43 -59 -22 -40 7 6 19 12 27 12 8 0 10 -5 6
-12 -6 -10 -4 -10 7 0 7 6 20 12 28 12 10 0 8 -8 -10 -27 l-24 -28 26 23 c26
23 55 30 43 11 -4 -7 1 -7 16 1 40 22 34 0 -16 -53 l-49 -52 55 53 c72 68 99
68 35 0 -49 -51 -30 -40 26 15 39 38 59 34 23 -5 -57 -62 -58 -73 -1 -19 31
30 59 52 63 48 3 -3 -18 -32 -47 -64 l-54 -58 55 51 c85 78 114 85 40 10 -35
-36 -59 -66 -52 -66 7 0 12 4 12 8 0 19 130 122 158 126 16 2 34 6 41 10 6 4
11 3 11 -2 0 -5 -26 -31 -59 -58 -32 -27 -64 -58 -71 -69 -13 -20 8 -3 100 81
35 32 53 41 79 41 l34 0 -81 -79 c-45 -43 -79 -78 -75 -78 3 0 44 34 90 76 46
42 86 74 89 72 2 -3 -28 -38 -68 -78 -45 -45 -58 -61 -33 -42 22 17 58 49 80
71 21 23 46 41 54 41 9 0 -7 -24 -39 -57 -53 -55 -26 -39 34 20 15 15 31 26
34 22 3 -3 -21 -33 -54 -67 -33 -35 -46 -52 -29 -40 17 11 46 36 64 56 19 20
40 36 45 36 6 0 -14 -25 -44 -55 -30 -30 -50 -55 -44 -55 5 0 28 18 49 40 54
55 66 50 19 -7 -32 -41 -33 -44 -8 -23 60 52 74 63 74 57 0 -4 -16 -25 -36
-47 -46 -51 -33 -52 19 -2 24 22 35 29 29 16 -6 -11 -18 -26 -26 -34 -9 -7
-16 -17 -16 -23 0 -6 14 2 30 18 41 39 37 19 -5 -29 -23 -25 -35 -33 -35 -22
0 9 -4 16 -9 16 -5 0 -16 3 -25 6 -9 3 -16 1 -16 -6 0 -6 4 -9 9 -5 5 3 12 2
14 -3 3 -4 -6 -13 -20 -19 -21 -10 -23 -10 -13 3 26 30 -16 14 -48 -19 -32
-33 -45 -60 -18 -38 10 8 16 9 21 1 10 -17 -25 -24 -42 -8 -13 14 -11 18 15
36 16 12 37 33 45 46 16 24 16 24 -8 12 -14 -7 -34 -25 -46 -40 -11 -14 -25
-26 -32 -26 -6 0 2 13 18 30 38 40 24 52 -17 14 -19 -16 -24 -19 -14 -6 28 33
10 40 -22 9 -35 -34 -53 -36 -22 -2 16 17 19 25 9 25 -8 0 -36 -25 -62 -55
-27 -31 -53 -53 -58 -49 -6 3 8 22 30 41 23 19 46 44 52 55 11 20 10 20 -20
-2 -18 -12 -38 -31 -44 -41 -7 -11 -16 -19 -21 -19 -4 0 -1 11 8 25 9 13 16
28 16 32 0 10 -60 -49 -72 -72 -11 -20 -11 -20 11 -1 11 11 24 16 29 12 9 -9
-26 -36 -47 -36 -8 0 -22 -7 -32 -16 -14 -13 -15 -21 -7 -45 5 -16 14 -29 19
-29 5 0 9 -7 9 -15 0 -17 -16 -20 -25 -5 -3 5 -22 14 -42 19 -45 13 -73 0 -73
-34 0 -30 -14 -32 -41 -6 -25 23 -74 20 -127 -7 -20 -11 -56 -25 -79 -31 -22
-6 -55 -25 -73 -41 -26 -24 -35 -28 -51 -19 -52 27 -103 17 -126 -25 -10 -17
-11 -17 -31 4 -12 13 -19 27 -16 32 3 5 0 7 -8 6 -14 -3 -14 -1 -4 48 16 76
-102 77 -172 1 -57 -61 15 -107 104 -68 l44 20 43 -46 c23 -25 48 -54 55 -64
7 -10 32 -23 55 -29 63 -16 87 -28 87 -44 0 -7 11 -21 25 -30 19 -13 23 -22
19 -44 -6 -29 26 -82 49 -82 7 0 48 -34 91 -75 80 -75 178 -135 222 -135 17 0
31 -12 50 -41 14 -22 39 -48 55 -57 22 -13 28 -22 25 -38 -8 -31 12 -92 37
-109 28 -19 81 -19 97 1 34 40 3 108 -61 134 -23 10 -29 19 -29 42 0 29 0 30
42 23 24 -4 52 -13 63 -20 11 -7 48 -21 83 -31 56 -15 63 -19 58 -38 -3 -12
-6 -31 -6 -43 0 -16 -6 -23 -18 -23 -24 0 -52 -31 -52 -58 0 -33 41 -72 82
-79 84 -13 124 24 89 82 -18 31 -18 35 -4 47 9 7 24 31 34 52 l17 39 74 2 c71
1 178 28 178 45 0 4 -8 14 -17 21 -15 12 -16 12 -10 -5 6 -16 5 -17 -8 -6 -17
14 -21 35 -5 25 6 -3 10 -2 10 4 0 6 7 8 15 4 14 -5 16 25 14 262 -1 259 -2
267 -21 262 -16 -4 -17 -3 -7 9 8 10 8 14 0 14 -6 0 -11 7 -11 15 0 8 -7 15
-16 15 -14 0 -15 -2 -3 -17 13 -16 12 -17 -4 -4 -14 11 -15 16 -5 29 11 13 10
15 -5 9 -15 -6 -17 -3 -12 13 5 15 3 18 -9 14 -30 -11 -16 9 42 61 31 29 54
56 50 60 -4 5 -32 -19 -62 -51 -30 -32 -57 -56 -61 -52 -5 4 -2 15 6 24 13 16
12 16 -8 5 -42 -22 -24 5 52 80 l75 74 -1 93 c-1 50 -4 92 -8 92 -4 0 -13 -6
-21 -12 -8 -7 -5 -1 8 13 30 34 28 43 -5 23 l-28 -16 28 25 c22 21 27 35 27
72 0 32 -4 45 -14 45 -18 0 -76 -32 -76 -42 0 -12 5 -10 47 14 43 24 36 15
-19 -25 -41 -30 -57 -35 -38 -12 15 18 7 19 -23 4 l-22 -10 21 18 c11 10 31
26 45 35 46 32 3 18 -51 -17 l-55 -35 40 35 c47 41 40 46 -13 10 -48 -32 -66
-32 -27 1 l30 25 -32 -16 c-40 -19 -53 -19 -27 0 15 11 16 14 3 15 -8 0 -20
-5 -27 -12 -9 -9 -12 -9 -12 0 0 9 -45 11 -172 10 -156 -1 -176 -3 -203 -21
l-30 -21 19 22 c22 25 4 31 -20 7 -10 -9 -24 -13 -40 -9 -14 4 -24 2 -24 -5 0
-6 -5 -11 -12 -11 -6 0 -3 9 7 20 26 28 2 25 -33 -5 -17 -14 -33 -25 -37 -25
-4 0 3 9 16 19 13 11 21 23 17 27 -5 4 -16 0 -25 -8 -32 -27 -49 -33 -29 -10
24 28 7 29 -24 2 -27 -24 -48 -27 -25 -4 26 26 7 30 -20 4 -25 -23 -37 -16
-13 8 7 7 8 12 2 12 -6 0 -20 -10 -31 -22z"/>
<path d="M4011 3866 c-103 -143 -221 -259 -221 -216 0 6 -7 10 -16 10 -8 0
-12 5 -9 10 3 6 2 10 -2 10 -5 0 -23 -32 -40 -70 l-32 -71 90 48 c49 26 85 49
79 51 -17 6 -12 16 39 69 l50 52 -6 -37 c-3 -20 -10 -45 -14 -54 -12 -22 -11
-28 2 -28 16 0 43 71 44 121 2 42 28 98 47 99 11 0 21 -86 14 -117 -6 -26 -5
-27 8 -10 14 19 17 92 3 113 -9 16 -1 50 21 82 26 38 34 52 28 52 -2 0 -41
-51 -85 -114z"/>
<path d="M4168 3458 c18 -20 22 -36 22 -86 0 -53 3 -62 18 -62 15 0 17 7 14
43 l-3 42 28 -35 c44 -56 83 -93 90 -86 4 4 -3 13 -15 22 -18 13 -22 25 -22
73 0 43 4 60 15 65 12 4 15 -6 15 -59 l0 -65 38 0 c47 0 72 24 72 68 0 53 -28
72 -107 70 l-68 -1 3 -38 c2 -22 0 -39 -4 -39 -5 1 -24 21 -42 45 -18 24 -42
50 -55 56 l-22 12 23 -25z"/>
<path d="M4095 3437 c13 -21 13 -28 -1 -72 l-17 -48 -18 24 c-21 27 -24 39 -9
39 6 0 10 13 10 29 0 32 -14 41 -63 41 l-32 0 0 -70 c0 -60 3 -70 18 -70 14 0
17 10 17 65 0 38 4 65 10 65 17 0 24 -31 11 -52 -27 -43 53 -143 95 -120 12 7
10 11 -10 20 -18 8 -23 16 -19 31 8 32 39 25 62 -14 15 -26 27 -35 47 -35 l26
0 -21 18 c-11 9 -32 48 -47 87 -25 69 -37 85 -62 85 -9 0 -9 -6 3 -23z"/>
<path d="M4886 3418 c-28 -39 -18 -86 27 -135 46 -51 104 -7 94 69 -10 76 -86
117 -121 66z"/>
<path d="M3676 3168 c-3 -7 -21 -63 -40 -123 -20 -61 -36 -114 -36 -118 0 -5
10 -7 22 -5 15 2 24 13 30 36 8 30 11 32 53 32 42 0 45 -2 53 -32 6 -23 15
-34 30 -36 30 -4 29 4 -16 138 -36 106 -41 115 -65 118 -16 2 -29 -2 -31 -10z"/>
<path d="M3840 3050 c0 -123 1 -130 20 -130 17 0 20 7 20 51 0 46 2 50 22 47
14 -2 32 -20 48 -48 16 -28 34 -46 48 -48 28 -4 28 2 -4 55 -26 44 -26 45 -6
66 27 31 33 52 21 85 -13 37 -46 52 -114 52 l-55 0 0 -130z"/>
<path d="M4107 3173 c-6 -10 -77 -238 -77 -248 0 -3 10 -5 22 -3 15 2 24 13
30 36 8 30 11 32 52 32 40 0 44 -2 52 -32 7 -23 17 -34 32 -36 12 -2 22 0 22
5 0 4 -17 62 -38 128 -35 110 -41 120 -64 123 -14 2 -28 0 -31 -5z"/>
<path d="M4270 3050 l0 -133 67 6 c57 4 71 9 90 32 29 34 29 61 -1 88 -21 18
-22 23 -9 32 20 15 20 63 -1 83 -10 10 -39 18 -81 20 l-65 4 0 -132z"/>
<path d="M4480 3160 c0 -16 7 -20 30 -20 l30 0 0 -90 0 -90 -30 0 c-24 0 -30
-4 -30 -20 0 -20 5 -21 82 -18 70 3 83 6 86 21 3 13 -3 17 -27 17 l-31 0 0 90
0 90 30 0 c23 0 30 4 30 20 0 18 -7 20 -85 20 -78 0 -85 -2 -85 -20z"/>
<path d="M4724 3146 c-31 -31 -34 -39 -34 -96 0 -57 3 -65 34 -96 27 -27 42
-34 73 -34 49 0 89 26 72 46 -8 10 -16 11 -29 4 -53 -29 -99 3 -107 72 -4 34
0 49 18 72 20 25 27 28 66 23 24 -2 46 0 50 6 10 17 -28 37 -70 37 -31 0 -46
-7 -73 -34z"/>
<path d="M4965 3168 c-23 -62 -75 -225 -75 -235 0 -7 9 -13 20 -13 14 0 22 10
28 33 8 29 12 32 54 35 43 3 45 2 54 -30 7 -23 17 -34 32 -36 12 -2 22 -1 22
3 0 3 -18 62 -41 130 -37 115 -42 125 -65 125 -13 0 -27 -6 -29 -12z"/>
<path d="M1140 3102 c-61 -9 -84 -86 -35 -118 36 -24 122 -15 147 16 16 19 16
25 3 50 -8 15 -21 30 -30 34 -9 3 -14 2 -11 -2 2 -4 -19 -5 -47 -2 l-52 4 45
6 c29 3 38 7 25 10 -11 3 -31 4 -45 2z"/>
<path d="M2882 3043 c-17 -30 37 -119 65 -109 7 3 12 0 10 -6 -3 -19 49 -33
81 -22 32 11 40 45 21 81 -31 57 -155 96 -177 56z"/>
<path d="M3131 3027 c-13 -6 -29 -20 -35 -30 -9 -15 -5 -23 24 -47 29 -24 44
-30 88 -30 59 0 86 11 102 40 14 25 3 48 -31 65 -34 18 -115 19 -148 2z"/>
<path d="M1652 3008 c-6 -6 -12 -30 -12 -52 0 -39 0 -40 -16 -18 -18 27 -40
28 -67 5 -11 -10 -18 -13 -14 -7 8 14 -29 49 -63 62 -14 4 -38 6 -55 3 -39 -8
-46 -48 -15 -91 l21 -30 175 0 c169 0 174 1 174 20 0 67 -92 144 -128 108z"/>
<path d="M2282 2922 c-7 -5 -15 -25 -19 -45 -4 -30 -1 -43 22 -73 l27 -36 -21
-14 c-35 -25 -27 -61 17 -80 73 -31 173 2 180 60 3 22 -3 29 -35 44 -30 14
-37 22 -35 40 4 30 -21 68 -61 92 -34 21 -55 24 -75 12z"/>
<path d="M3009 2853 c-9 -10 -14 -41 -14 -84 0 -58 4 -71 24 -93 14 -14 33
-26 43 -26 15 0 18 -5 12 -22 -4 -13 -16 -35 -28 -49 -18 -21 -26 -24 -51 -17
-60 17 -155 -19 -155 -57 0 -8 17 -26 37 -40 44 -30 132 -36 153 -10 8 9 29
15 56 15 36 0 50 7 89 40 25 22 54 40 63 40 26 0 62 29 62 49 0 32 -71 72
-128 73 -28 0 -56 -4 -63 -8 -9 -5 -10 -2 -4 12 15 37 17 61 6 101 -21 78 -70
115 -102 76z"/>
<path d="M2622 2823 c-6 -2 -10 -9 -7 -14 4 -5 -1 -6 -9 -3 -32 12 -41 -58
-13 -94 6 -7 12 -35 13 -62 3 -53 18 -91 36 -87 7 1 12 -7 13 -18 0 -14 12
-24 42 -34 57 -20 78 -4 70 54 -5 35 -3 42 16 50 12 6 29 24 38 41 14 29 17
31 40 19 50 -26 86 -28 109 -5 l21 21 -23 41 c-40 73 -137 107 -180 64 -8 -7
-24 -17 -37 -21 -12 -4 -20 -9 -18 -12 8 -7 -14 -63 -24 -63 -5 0 -3 14 6 30
9 17 11 30 5 30 -5 0 -10 6 -10 14 0 16 -47 56 -64 55 -6 0 -17 -3 -24 -6z"/>
<path d="M4073 2793 c-36 -7 -63 -50 -63 -99 0 -23 4 -45 8 -48 5 -3 7 8 4 23
-5 35 21 87 48 96 69 22 122 -103 98 -235 -19 -111 -95 -155 -158 -92 -15 16
-33 46 -39 68 -17 60 -13 172 8 232 10 28 16 52 14 52 -12 0 -61 -31 -80 -52
-29 -31 -53 -90 -53 -131 0 -103 -65 -197 -136 -197 -86 0 -129 61 -129 185 0
66 4 86 23 117 25 40 70 61 111 52 37 -9 52 -23 72 -69 l19 -40 0 58 c0 53 -2
58 -26 67 -34 13 -146 13 -181 -1 -70 -26 -123 -110 -123 -194 0 -127 101
-217 229 -202 55 6 89 31 122 91 l26 47 13 -30 c57 -139 289 -146 368 -12 35
60 36 155 4 218 -35 67 -114 110 -179 96z"/>
<path d="M4293 2772 c24 -27 25 -342 1 -366 -14 -15 -8 -16 63 -16 58 1 73 3
61 11 -15 8 -18 24 -18 90 l0 80 77 -3 c71 -3 79 -5 90 -28 12 -23 13 -19 13
40 0 61 -1 63 -16 42 -13 -19 -24 -22 -90 -22 l-74 0 0 80 0 80 40 0 c30 0 47
-7 65 -25 l25 -24 0 39 0 40 -127 0 c-122 0 -126 -1 -110 -18z"/>
<path d="M4593 2779 c15 -9 17 -29 17 -189 0 -160 -2 -180 -17 -189 -13 -8 3
-10 62 -11 52 0 75 4 66 9 -11 7 -14 29 -14 83 1 40 2 76 2 81 1 4 32 7 70 7
61 0 72 -3 85 -22 15 -21 16 -20 16 37 0 57 -1 58 -16 37 -13 -19 -24 -22 -88
-22 l-72 0 0 78 1 77 34 3 c39 4 81 -15 81 -35 0 -8 4 -12 8 -9 4 3 6 21 4 40
l-4 36 -127 0 c-90 -1 -121 -3 -108 -11z"/>
<path d="M4893 2778 c15 -8 17 -31 17 -188 0 -160 -2 -180 -17 -189 -13 -7 26
-10 135 -11 l152 0 0 29 c0 16 2 44 6 62 l5 34 -21 -37 c-26 -47 -46 -58 -109
-58 l-51 0 0 75 0 75 39 0 c30 0 44 -6 58 -23 l18 -24 1 63 1 63 -19 -25 c-15
-18 -29 -24 -59 -24 l-39 0 0 80 c0 58 4 80 13 80 17 -1 47 -25 47 -38 0 -6 4
-13 9 -16 4 -3 8 15 7 39 l-1 46 -104 -2 c-71 -1 -99 -4 -88 -11z"/>
<path d="M5203 2772 c24 -27 25 -342 1 -366 -14 -15 -2 -16 129 -16 l145 0 7
51 c4 27 4 53 1 56 -3 4 -6 0 -6 -7 0 -8 -12 -27 -27 -42 -23 -24 -34 -28 -85
-28 l-58 0 0 75 0 75 45 0 c38 0 46 -4 59 -27 15 -27 15 -26 15 42 1 63 -1 67
-12 45 -10 -21 -21 -26 -60 -28 l-47 -3 0 75 c0 41 5 78 10 81 16 10 58 -22
63 -47 2 -13 5 1 6 30 l1 52 -102 0 c-97 0 -100 -1 -85 -18z"/>
<path d="M6115 2774 c-33 -33 9 -109 78 -143 64 -31 67 -29 67 39 0 46 -5 65
-19 79 -43 43 -97 54 -126 25z"/>
<path d="M5560 2710 c-44 -44 -10 -110 58 -110 45 0 98 30 107 61 13 39 -61
88 -90 60 -12 -10 -65 -24 -65 -16 0 2 15 9 33 14 31 9 31 9 5 10 -16 1 -37
-8 -48 -19z"/>
<path d="M5935 2621 c-43 -26 -68 -58 -61 -76 6 -18 46 -35 81 -35 12 0 26 -7
29 -16 20 -53 -23 -225 -57 -230 -34 -5 -47 -13 -56 -36 -11 -30 7 -81 25 -74
8 3 13 0 11 -7 -1 -7 10 -13 26 -15 15 -2 27 -9 27 -16 0 -7 14 -33 30 -59 17
-26 30 -52 30 -57 0 -6 -16 -10 -35 -10 -92 0 -138 -70 -72 -110 35 -22 90
-26 132 -10 21 8 35 5 75 -15 27 -13 51 -29 55 -35 3 -6 -9 -25 -28 -43 -37
-35 -54 -97 -38 -140 12 -30 -2 -47 -38 -47 -23 0 -23 1 -7 19 24 26 17 53
-16 62 -23 6 -28 4 -28 -11 0 -19 -25 -34 -42 -24 -6 4 -6 10 1 17 19 19 12
47 -15 57 -31 12 -37 12 -30 2 2 -4 1 -14 -4 -21 -12 -21 -31 -3 -24 24 5 20
0 25 -47 40 -58 20 -114 24 -174 13 -38 -7 -42 -6 -58 22 -38 64 -119 41 -125
-36 -3 -50 26 -106 63 -119 24 -8 30 -6 51 18 13 16 24 39 24 53 0 18 6 24 23
25 43 3 69 0 82 -11 17 -14 55 -95 55 -117 0 -9 19 -36 43 -59 23 -23 56 -58
73 -78 20 -22 40 -36 55 -36 13 0 44 -10 69 -21 42 -20 43 -22 23 -30 -31 -11
-29 -20 2 -15 28 5 49 -21 35 -43 -6 -11 -14 -10 -41 6 -26 16 -40 19 -58 12
-13 -5 -26 -7 -29 -4 -3 3 9 10 27 16 18 6 30 13 28 16 -3 2 -22 -3 -42 -12
-21 -8 -36 -17 -34 -18 35 -25 62 -38 54 -26 -7 10 -5 9 5 -1 8 -9 23 -19 34
-23 18 -7 18 -8 0 -29 -11 -12 -14 -18 -7 -14 7 4 16 -2 22 -13 16 -29 13 -35
-6 -20 -16 13 -17 12 -4 -3 7 -10 17 -16 21 -13 4 2 15 -4 25 -15 18 -19 17
-20 -8 -20 -15 0 -27 5 -27 11 0 5 -4 7 -10 4 -5 -3 -25 16 -44 43 -19 26 -47
54 -61 62 -14 8 -23 20 -21 27 3 7 2 13 -3 13 -10 0 -31 -32 -48 -70 -9 -23
-8 -26 8 -27 11 -1 19 3 19 8 0 6 -5 7 -12 3 -7 -4 -8 -3 -4 4 4 7 11 12 15
12 14 0 81 -73 81 -87 0 -7 6 -13 13 -13 8 0 7 -4 -3 -10 -28 -18 -55 -10 -98
30 -24 22 -46 40 -49 40 -3 0 -30 -12 -60 -27 -35 -18 -56 -24 -61 -17 -6 9
-32 23 -54 29 -5 2 -10 4 -13 5 -3 1 -9 3 -14 4 -5 0 -12 4 -16 8 -4 4 -12 5
-19 2 -8 -3 -11 12 -11 49 l1 53 -33 -4 c-30 -4 -84 -50 -94 -81 -2 -6 -18
-13 -34 -15 -58 -7 -215 -113 -215 -145 0 -6 -4 -11 -10 -11 -5 0 -10 -7 -10
-15 0 -8 -5 -15 -10 -15 -6 0 -9 -3 -8 -7 0 -5 -2 -15 -5 -23 -38 -87 -46
-201 -21 -273 8 -22 14 -41 14 -42 0 -1 -12 -1 -27 1 -34 3 -53 -11 -53 -41 0
-53 81 -58 88 -6 3 22 5 21 30 -15 14 -22 32 -45 39 -52 17 -17 16 -33 0 -56
-13 -17 -18 -18 -66 -6 -56 13 -81 7 -37 -9 14 -6 26 -13 26 -16 0 -9 -85 7
-91 17 -5 8 -69 -15 -69 -25 0 -1 28 -3 63 -3 73 -2 147 -8 147 -12 0 -2 -7
-17 -16 -34 -14 -28 -19 -30 -52 -24 -100 18 -129 18 -143 4 -7 -8 -21 -13
-30 -11 -12 4 -16 -2 -16 -20 0 -23 0 -24 17 -7 18 18 65 21 88 6 7 -4 12 -5
12 -3 0 2 18 1 40 -3 32 -6 42 -4 50 9 15 26 11 2 -5 -29 -20 -38 -74 -53
-157 -44 -51 6 -60 5 -53 -7 6 -11 5 -12 -6 -1 -16 15 -29 16 -29 1 0 -5 6 -7
13 -3 8 5 7 2 -2 -9 -19 -24 -10 -29 21 -12 22 11 29 11 38 0 6 -7 19 -12 28
-11 9 2 28 0 42 -4 17 -5 34 -1 54 13 27 19 28 19 17 1 -36 -64 -43 -67 -127
-61 -121 10 -171 -11 -141 -60 4 -6 3 -14 -3 -18 -6 -4 -8 -10 -5 -15 5 -9
-24 -25 -39 -21 -5 1 -4 -5 4 -13 7 -9 10 -17 6 -17 -3 -1 -12 -2 -18 -3 -7
-1 -12 -7 -11 -12 1 -6 -4 -11 -11 -11 -19 0 -2 48 28 80 12 13 21 32 20 41
-1 9 2 14 7 10 5 -3 9 0 9 5 0 6 -6 11 -12 11 -10 0 -9 3 1 9 19 12 7 28 -39
51 -36 18 -39 19 -42 2 -2 -9 6 -25 17 -35 20 -18 20 -18 -2 -8 -14 7 -24 8
-28 1 -3 -5 -4 -10 0 -10 3 0 -1 -13 -10 -30 -8 -16 -15 -32 -15 -35 -1 -18
-14 -33 -26 -28 -16 6 -14 23 6 41 8 8 9 11 3 7 -9 -4 -11 -1 -7 9 3 9 10 13
15 10 5 -3 9 -2 10 3 6 49 4 63 -8 63 -7 0 -13 4 -13 9 0 14 -30 22 -64 16
-29 -6 -31 -9 -30 -46 0 -23 -4 -39 -11 -39 -6 0 -18 -11 -25 -25 -8 -16 -22
-25 -37 -25 -28 0 -29 9 -6 49 16 27 16 32 3 44 -8 8 -30 17 -48 21 -30 5 -32
4 -26 -18 6 -27 -17 -56 -46 -56 -16 0 -18 4 -11 23 16 41 2 75 -33 82 -17 4
-40 9 -51 11 -19 5 -19 4 1 -8 25 -15 19 -50 -9 -54 -13 -2 -17 6 -17 36 0 45
-3 46 -105 55 -80 8 -153 -13 -218 -63 -37 -27 -90 -92 -83 -100 3 -2 22 10
43 26 50 40 99 53 143 38 26 -8 46 -30 88 -91 90 -134 76 -127 222 -122 69 2
136 7 149 12 17 6 22 5 17 -3 -5 -9 212 -12 854 -12 l860 0 0 254 c0 252 0
255 -22 270 -13 9 -43 16 -69 16 -30 0 -51 6 -60 16 -21 26 -123 102 -161 119
-34 17 -34 18 -35 83 0 93 -5 153 -14 178 -7 21 -7 21 34 7 42 -15 146 -13
194 2 15 5 27 1 39 -14 17 -19 41 -20 29 0 -4 5 10 9 29 9 40 0 44 6 19 27
-17 14 -17 14 0 9 12 -4 17 0 17 14 0 25 -11 25 -44 -1 -14 -11 -34 -18 -44
-16 -14 4 -14 5 3 6 16 1 17 3 6 10 -11 7 -9 14 10 34 74 78 70 59 67 271 -3
162 -5 191 -18 188 -11 -3 -11 1 3 16 9 10 17 34 17 54 0 45 -20 104 -30 88
-4 -6 -10 12 -13 42 -6 50 3 82 17 59 15 -24 26 -9 26 34 0 33 -4 45 -15 46
-8 1 -20 2 -27 3 -13 1 -21 36 -8 36 5 0 15 -7 24 -15 8 -8 17 -15 20 -15 3 0
5 85 5 189 0 163 -2 190 -15 195 -15 6 -15 8 0 31 9 13 16 45 16 70 0 45 0 45
-34 45 -24 0 -46 10 -73 33 -66 54 -135 131 -122 136 40 13 63 73 37 99 -18
18 -99 14 -133 -7z m-298 -1447 c92 -31 178 -108 189 -170 3 -15 10 -37 17
-48 6 -12 12 -61 12 -111 0 -84 -3 -95 -34 -153 -19 -35 -54 -81 -79 -102 -49
-44 -136 -81 -185 -79 -27 1 -25 3 13 9 112 19 193 78 242 178 28 57 33 77 33
142 0 91 -31 166 -94 229 -63 63 -112 84 -213 89 -76 4 -92 1 -141 -21 -74
-34 -131 -88 -164 -155 -24 -49 -28 -69 -28 -142 0 -98 20 -152 80 -218 43
-48 143 -101 194 -103 29 -2 31 -3 9 -6 -37 -6 -99 13 -144 43 -21 15 -44 27
-50 28 -18 3 -44 27 -39 36 3 4 -2 11 -11 14 -8 3 -27 32 -42 63 -36 78 -39
212 -5 285 40 87 136 172 223 199 45 13 167 10 217 -7z m-81 -130 c-9 -23 3
-37 20 -23 12 10 13 9 7 -7 -6 -17 -5 -18 13 -4 10 8 22 19 25 23 8 12 76 -49
95 -84 20 -40 17 -50 -5 -14 -10 17 -29 39 -42 50 -20 18 -20 16 4 -13 25 -32
58 -119 56 -151 0 -9 -5 0 -11 19 -11 40 -46 82 -60 73 -14 -8 -1 -60 23 -95
18 -24 19 -33 10 -51 -6 -12 -10 -15 -7 -5 3 10 -3 18 -15 21 -17 5 -18 3 -8
-9 6 -8 9 -17 5 -21 -3 -3 -6 -1 -6 5 0 7 -5 12 -11 12 -6 0 -9 -6 -6 -13 3
-9 -4 -12 -29 -9 -29 4 -32 6 -21 23 6 10 13 16 15 14 3 -2 13 0 23 6 25 13
24 49 -1 56 -11 3 -20 10 -20 17 0 12 -45 36 -67 36 -7 0 -12 3 -12 8 4 26 -2
52 -12 46 -6 -3 -9 -15 -6 -25 3 -11 1 -17 -4 -13 -5 3 -9 13 -9 22 0 15 -1
15 -16 0 -22 -21 -11 -36 34 -45 l37 -8 -55 -5 -55 -5 2 -48 c1 -26 7 -54 13
-62 10 -12 9 -15 -10 -15 -13 0 -20 -5 -18 -12 3 -9 33 -14 91 -16 51 -2 87
-7 87 -13 0 -6 -5 -7 -12 -3 -6 4 -17 -1 -25 -11 -12 -18 -13 -18 -13 -1 0 12
-5 16 -16 12 -9 -3 -24 -6 -35 -6 -32 0 -21 -18 14 -23 31 -4 31 -4 -5 -5 -31
-2 -38 -6 -38 -22 0 -13 -6 -20 -17 -19 -11 0 -13 3 -5 6 19 8 14 23 -8 23
-53 0 -111 96 -105 175 l3 40 -13 -40 c-10 -35 -9 -46 7 -85 23 -54 34 -68 73
-92 17 -10 24 -18 17 -18 -7 0 -32 18 -57 41 -111 103 -93 274 38 349 38 22
65 30 101 30 40 0 47 -3 42 -16z m-16 -634 c19 0 40 -35 40 -65 0 -37 12 -95
21 -101 18 -11 9 -26 -12 -21 -43 11 -85 -62 -50 -89 10 -8 0 -9 -38 -4 -28 3
-51 3 -51 -1 0 -4 -18 -6 -40 -6 -22 1 -40 5 -40 10 0 4 5 7 10 7 6 0 10 8 10
18 0 14 2 15 10 2 8 -12 10 -9 10 13 0 17 4 26 10 22 7 -4 9 9 7 39 -2 27 1
42 7 39 5 -4 7 1 3 12 -4 9 -2 24 4 32 7 7 12 27 11 43 -1 34 44 78 62 60 5
-5 17 -10 26 -10z"/>
<path d="M876 2553 c-7 -62 -22 -223 -31 -335 -5 -57 -4 -68 10 -68 8 0 38
-11 65 -24 28 -13 50 -21 50 -17 0 14 -81 496 -84 499 -2 1 -6 -23 -10 -55z"/>
<path d="M2205 2550 c-17 -18 -17 -24 3 -107 11 -49 24 -106 28 -128 9 -54 17
-65 24 -35 5 21 11 24 36 22 19 -2 39 4 54 16 l24 20 39 -44 c38 -43 77 -58
92 -34 23 38 -2 148 -41 180 -22 19 -148 26 -138 8 4 -7 4 -10 0 -6 -5 4 -20
-6 -35 -22 -24 -26 -27 -27 -41 -12 -13 14 -12 15 2 9 20 -7 68 44 68 73 0 26
-21 70 -34 71 -6 1 -23 3 -38 4 -16 2 -33 -4 -43 -15z"/>
<path d="M5714 2545 c-31 -47 6 -115 63 -115 47 0 76 99 37 127 -30 22 -81 16
-100 -12z"/>
<path d="M2490 2545 c-30 -36 18 -105 93 -134 28 -11 46 -20 38 -20 -24 -1
-79 -66 -90 -106 -15 -55 8 -108 45 -103 64 7 118 135 80 192 -15 23 -14 25 4
31 41 13 13 88 -47 130 -43 28 -103 34 -123 10z"/>
<path d="M2760 2462 l-22 -18 21 -42 c26 -50 98 -97 136 -88 17 4 31 0 45 -14
24 -24 72 -26 106 -4 46 31 70 108 42 132 -21 16 -87 7 -119 -17 l-30 -22 -20
26 c-42 52 -123 76 -159 47z"/>
<path d="M1670 2348 c0 -6 -8 -20 -17 -31 -11 -13 -12 -17 -4 -12 11 6 13 4 8
-9 -4 -10 -7 -28 -7 -40 0 -16 -16 -31 -62 -58 -88 -51 -125 -81 -121 -95 2
-6 43 13 99 49 l96 60 125 -7 c104 -6 125 -5 121 6 -3 10 -35 16 -114 22 -129
9 -138 11 -129 35 9 23 17 92 10 92 -3 0 -5 -5 -5 -12z"/>
<path d="M4515 2331 c-3 -6 0 -11 8 -11 8 0 26 -12 40 -26 25 -25 26 -30 24
-125 l-2 -99 30 0 30 0 -3 61 c-2 36 0 59 5 56 5 -3 36 -40 68 -81 61 -78 106
-109 128 -87 8 8 6 11 -9 11 -11 0 -33 13 -48 29 -27 28 -27 31 -24 130 l3
101 -30 0 -30 0 3 -67 c2 -45 0 -65 -6 -58 -6 6 -37 45 -71 88 -34 42 -65 77
-70 77 -5 0 -16 3 -24 6 -8 3 -18 1 -22 -5z"/>
<path d="M5502 2318 c-13 -13 -16 -56 -6 -83 17 -44 131 -62 158 -24 33 47
-30 119 -104 119 -20 0 -41 -5 -48 -12z"/>
<path d="M2756 2289 c-35 -28 -35 -70 0 -98 32 -25 62 -26 111 -6 l36 15 -6
-29 c-7 -34 25 -71 62 -71 54 0 125 68 114 110 -5 19 -43 40 -71 40 -9 0 -28
-12 -41 -25 -22 -24 -42 -33 -40 -17 7 45 -3 71 -35 86 -47 22 -98 20 -130 -5z"/>
<path d="M4435 2275 l24 -36 -27 -74 c-16 -45 -29 -68 -32 -59 -5 13 -9 12
-24 -5 -11 -12 -32 -21 -48 -21 -27 0 -28 2 -28 45 0 40 2 45 23 45 13 0 28
-5 35 -12 9 -9 12 -6 12 14 0 25 -3 26 -34 21 l-34 -5 0 46 c0 42 1 45 19 36
15 -9 19 -7 19 7 0 15 -7 17 -47 15 l-48 -4 0 -109 0 -109 93 0 c50 0 91 3 91
8 -5 31 3 42 31 42 25 0 32 -6 44 -35 22 -51 60 -85 95 -85 35 0 51 17 19 22
-26 4 -45 36 -87 153 -35 98 -62 135 -97 135 l-23 0 24 -35z"/>
<path d="M4819 2282 c-15 -13 -22 -30 -22 -52 0 -27 8 -40 46 -73 52 -44 61
-79 26 -98 -28 -15 -67 2 -73 33 -3 13 -7 32 -9 43 -3 11 -5 3 -6 -17 -1 -51
26 -78 78 -78 48 0 81 35 81 86 0 26 -8 40 -42 68 -23 20 -46 36 -50 36 -5 0
-8 10 -6 22 4 29 34 35 59 12 18 -16 19 -16 19 3 0 15 -9 22 -31 27 -43 8 -44
8 -70 -12z"/>
<path d="M4068 2232 c2 -32 2 -73 0 -92 l-3 -35 -18 30 c-10 17 -16 22 -13 12
3 -10 6 -23 6 -27 0 -18 42 -48 74 -54 84 -16 150 58 99 110 -11 10 -16 29
-14 46 4 46 -22 68 -83 68 l-51 0 3 -58z"/>
<path d="M2472 2124 c-15 -10 -22 -25 -22 -48 0 -56 51 -85 119 -66 51 13 75
44 58 74 -14 24 -38 45 -52 46 -5 0 -3 -5 5 -11 12 -9 12 -10 -3 -5 -10 3 -33
7 -50 7 l-32 2 35 7 35 7 -35 2 c-20 0 -46 -6 -58 -15z"/>
<path d="M22 2100 c-22 -9 -22 -12 -22 -190 0 -155 2 -181 16 -187 8 -3 37
-35 64 -72 71 -95 80 -103 111 -96 18 4 38 -1 60 -14 46 -28 87 -27 119 4 20
19 43 27 101 35 75 9 165 35 174 50 2 4 -13 10 -33 14 -51 8 -70 31 -91 113
-30 116 -82 203 -138 231 -19 10 -44 36 -56 57 -12 22 -34 46 -48 54 -23 13
-28 12 -55 -7 -41 -29 -83 -31 -121 -4 -34 24 -46 26 -81 12z"/>
<path d="M2030 1986 c0 -14 -4 -35 -9 -48 -16 -45 -21 -78 -12 -78 5 0 12 9
16 19 7 23 42 34 49 16 7 -19 -15 -85 -28 -85 -7 0 -10 -18 -8 -49 3 -39 0
-49 -14 -55 -10 -4 -20 -3 -22 2 -1 5 -14 7 -27 4 -23 -4 -25 -1 -25 30 0 41
8 52 27 37 10 -9 13 -7 13 11 0 16 -4 20 -16 16 -9 -3 -28 -6 -42 -6 l-27 0 3
-99 3 -99 70 -4 c46 -2 69 1 69 8 0 7 38 14 101 18 134 9 707 -2 786 -16 55
-9 67 -8 100 9 46 24 73 65 57 90 -12 19 -33 25 -91 24 -42 -1 -43 0 -43 32 0
17 -3 42 -6 53 -4 16 0 23 15 27 12 3 24 12 27 21 8 20 -24 89 -37 80 -5 -3
-8 0 -7 6 4 17 -61 50 -97 50 -54 0 -72 -42 -39 -89 l16 -23 -68 8 c-83 10
-451 10 -516 0 -39 -6 -47 -4 -50 9 -3 15 -6 15 -28 -2 -14 -11 -36 -19 -49
-19 -21 1 -26 8 -36 51 -13 60 -21 75 -41 75 -8 0 -14 -10 -14 -24z"/>
<path d="M1575 1923 c-30 -109 -25 -100 -47 -74 -17 22 -17 26 -3 41 35 39 2
89 -51 76 -21 -6 -24 -12 -26 -61 -1 -30 -2 -62 -2 -72 -1 -9 5 -18 12 -20 8
-3 12 6 12 26 0 37 16 40 32 6 14 -31 63 -35 73 -6 10 34 55 38 55 5 0 -8 7
-14 15 -14 19 0 19 -1 -6 81 -12 40 -26 69 -34 69 -8 0 -20 -24 -30 -57z"/>
<path d="M3305 1957 c-25 -19 -13 -60 28 -90 43 -33 90 -43 110 -23 13 14 13
19 0 49 -17 37 -68 77 -99 77 -11 0 -28 -6 -39 -13z"/>
<path d="M1510 1751 c-5 -11 -9 -30 -9 -43 1 -19 3 -17 8 7 4 21 13 31 28 33
18 3 24 -4 33 -38 26 -95 -32 -182 -76 -115 -13 20 -16 41 -12 94 4 54 2 68
-8 64 -18 -7 -44 -66 -44 -103 0 -51 -26 -90 -60 -90 -38 0 -50 23 -50 93 0
40 5 58 18 70 25 23 47 21 65 -5 l16 -23 0 23 c1 14 -8 26 -23 33 -39 18 -98
-16 -114 -65 -36 -110 74 -199 135 -108 20 31 22 32 32 14 13 -25 59 -41 95
-35 71 14 105 135 51 188 -29 30 -70 33 -85 6z"/>
<path d="M4268 1615 c-22 -49 25 -98 60 -63 9 9 12 9 12 0 0 -7 5 -12 10 -12
6 0 10 7 10 15 0 19 29 20 36 1 3 -9 19 -13 42 -12 46 1 56 30 21 57 -13 10
-21 21 -17 25 4 4 14 1 22 -5 10 -8 16 -9 21 -1 12 20 25 -1 25 -41 0 -21 5
-39 10 -39 6 0 10 20 10 45 0 35 3 43 15 39 10 -4 15 -20 15 -45 l0 -39 40 2
c32 1 40 5 40 20 0 24 16 23 23 -1 4 -15 13 -19 48 -17 52 1 64 26 27 55 -13
11 -19 23 -14 28 5 4 11 2 13 -5 3 -6 9 -10 14 -6 16 9 -1 24 -27 24 -32 0
-33 -35 -1 -60 12 -10 19 -22 15 -26 -4 -4 -14 -1 -22 5 -8 7 -20 10 -26 6 -5
-3 -10 0 -11 7 -1 7 -2 24 -2 38 -2 19 -8 26 -29 28 -27 3 -28 1 -28 -37 0
-34 -3 -41 -20 -41 -11 0 -20 7 -20 16 0 8 4 13 9 9 5 -3 12 -1 16 5 3 5 -1
10 -9 10 -9 0 -16 7 -16 16 0 10 6 14 15 10 8 -3 15 -1 15 4 0 6 -37 10 -91 9
-72 -1 -92 -4 -96 -17 -4 -9 2 -22 15 -33 21 -17 30 -39 15 -39 -17 1 -40 27
-50 55 -13 40 -33 38 -49 -5 -11 -31 -13 -32 -13 -9 -2 51 -53 68 -73 24z"/>
<path d="M3277 1603 c-36 -39 -54 -111 -38 -151 36 -87 124 -20 125 94 0 84
-37 108 -87 57z"/>
<path d="M5518 1569 c-25 -14 -22 -42 8 -79 35 -41 80 -63 111 -55 23 5 24 9
18 43 -8 42 -27 67 -67 88 -32 16 -47 17 -70 3z"/>
<path d="M2 1353 c3 -196 3 -198 24 -195 25 3 29 -9 39 -113 4 -38 11 -91 15
-117 l7 -46 -41 1 -41 2 -2 -149 -2 -149 38 6 38 5 -8 -35 c-4 -19 -21 -61
-37 -92 l-30 -56 0 -207 0 -208 199 0 c188 0 200 1 211 20 16 26 28 26 28 0 0
-16 7 -20 35 -20 33 0 34 1 29 33 -3 17 -12 55 -20 84 -23 85 -19 114 21 146
34 27 34 27 45 6 16 -28 86 -59 136 -59 101 0 159 126 99 215 -24 35 -25 39
-10 55 16 17 22 14 134 -61 65 -43 125 -79 134 -79 9 0 19 -5 22 -10 4 -7 12
-7 24 0 10 5 21 7 24 3 4 -3 13 0 21 6 9 7 24 10 37 6 15 -5 18 -9 9 -15 -7
-4 -9 -13 -6 -19 4 -6 3 -11 -3 -11 -5 0 -9 -9 -8 -20 1 -11 5 -20 10 -20 4 0
5 -4 2 -10 -4 -6 1 -7 12 -4 17 5 17 5 1 -9 -17 -14 -18 -25 -1 -88 12 -45 8
-87 -12 -108 -8 -10 -12 -21 -8 -25 4 -4 0 -4 -10 0 -9 3 -14 11 -10 18 16 25
12 36 -9 25 -12 -6 -17 -14 -12 -18 16 -11 13 -27 -6 -27 -14 0 -16 3 -8 13 6
7 7 13 3 13 -4 0 -3 6 3 13 6 6 10 16 10 20 0 5 4 12 8 15 4 4 4 0 -1 -8 -5
-8 -4 -12 0 -7 12 10 15 38 4 31 -5 -3 -9 0 -9 7 0 8 -5 8 -17 -2 -10 -7 -7 0
7 16 14 16 17 23 8 16 -14 -10 -18 -11 -18 -1 0 9 -4 9 -17 -1 -16 -13 -17
-12 -4 3 7 10 17 16 21 13 4 -3 13 1 19 8 8 11 7 14 -7 14 -9 0 -22 -4 -29 -9
-14 -11 -33 19 -25 42 3 11 2 12 -8 4 -9 -9 -8 -23 4 -65 9 -29 16 -74 16
-100 l0 -48 68 2 c37 2 73 6 80 11 23 14 65 14 87 0 16 -10 23 -10 37 0 10 7
16 16 13 19 -3 4 -2 4 3 1 4 -3 7 -11 7 -17 0 -9 111 -13 432 -15 l432 -2 53
64 c29 35 64 84 77 108 l24 43 -24 -22 c-29 -26 -90 -53 -120 -53 -12 0 -62
18 -110 40 -48 22 -122 47 -165 55 -69 14 -83 14 -130 0 -29 -8 -54 -15 -57
-15 -2 0 -1 19 4 43 11 58 11 61 -6 47 -8 -7 -46 -14 -84 -15 -38 -2 -79 -9
-92 -16 -13 -7 -33 -13 -44 -15 -11 -1 -27 -5 -36 -8 -12 -6 -15 1 -15 35 1
28 -4 44 -13 47 -8 3 -11 0 -7 -7 5 -7 1 -9 -9 -4 -12 4 -13 8 -5 13 9 6 9 9
-1 14 -8 3 -4 3 9 0 31 -8 28 2 -6 14 l-27 9 3 -71 c3 -64 1 -73 -20 -93 -21
-20 -98 -57 -98 -48 0 3 13 11 28 19 23 12 28 21 27 50 0 19 -5 39 -9 43 -5 4
-6 3 -2 -4 4 -7 2 -13 -3 -13 -6 0 -11 7 -11 15 0 8 -6 15 -12 15 -7 1 -2 7
12 16 22 13 23 14 3 9 -18 -5 -21 -2 -18 14 2 12 -3 25 -13 32 -16 10 -16 10
1 5 9 -3 17 -2 17 2 0 15 104 21 133 8 12 -6 17 -5 15 4 -2 8 15 18 42 26 62
17 32 17 -80 -1 -52 -8 -171 -24 -265 -35 -189 -22 -166 -26 -247 49 -31 29
-35 37 -25 50 10 12 9 14 -8 7 -18 -7 -18 -5 3 14 26 25 27 29 7 56 -8 12 -12
24 -10 26 11 10 -62 0 -84 -12 -25 -13 -27 -11 -50 30 -12 22 2 170 17 179 10
6 11 42 3 177 -18 286 -28 299 -30 39 -1 -126 -5 -235 -9 -240 -4 -6 -20 -12
-37 -14 -16 -1 -35 -7 -42 -13 -7 -5 -16 -7 -21 -4 -4 2 -28 7 -53 10 -30 4
-39 2 -29 -4 8 -5 10 -10 4 -10 -6 0 -17 7 -24 15 -18 21 -62 19 -82 -5 -18
-20 -14 -27 12 -25 8 0 14 6 13 13 -4 18 14 15 21 -4 4 -11 13 -14 27 -11 l21
6 -20 -22 c-12 -12 -28 -39 -37 -59 l-15 -37 -38 25 c-69 47 -162 21 -207 -59
l-21 -36 -32 85 c-18 46 -32 103 -32 127 0 23 -7 54 -14 69 -18 33 -36 149
-45 280 l-6 97 25 -16 c29 -19 96 -21 127 -5 12 7 35 29 50 49 23 29 28 47 28
90 0 51 -3 57 -42 94 -27 25 -55 41 -80 45 -32 5 -41 12 -55 44 -20 49 -69 80
-126 80 l-42 0 2 -197z m167 -793 c13 -36 35 -87 49 -114 25 -45 25 -49 9 -61
-9 -7 -43 -15 -74 -19 -38 -4 -68 -15 -91 -33 l-34 -26 7 34 c4 19 24 70 46
114 23 46 42 102 46 133 3 29 9 49 13 45 4 -4 17 -37 29 -73z m1147 -205 c-3
-9 -1 -48 6 -89 14 -94 7 -120 -43 -151 -22 -14 -37 -30 -34 -34 2 -5 -3 -15
-13 -22 -16 -13 -16 -13 -2 5 14 18 13 19 -4 12 -20 -7 -20 -7 0 15 16 18 16
21 2 16 -20 -7 -18 17 2 36 11 9 11 8 0 -7 -14 -18 -13 -19 3 -13 11 4 16 3
12 -3 -4 -6 1 -7 11 -3 12 4 14 8 6 11 -10 3 -10 7 -1 18 10 12 9 13 -6 8 -14
-6 -16 -4 -10 7 6 9 -1 8 -20 -5 l-30 -19 25 29 25 28 -30 -18 -30 -19 30 33
30 33 -30 -19 c-16 -11 -26 -13 -22 -6 5 7 3 12 -3 12 -6 0 -8 5 -5 10 9 15
27 12 19 -2 -4 -7 -3 -9 1 -5 13 11 15 37 4 37 -6 0 -7 5 -3 12 5 8 1 9 -12 5
-18 -7 -18 -6 1 9 20 16 19 16 -5 11 l-25 -6 25 20 c21 16 22 18 5 13 -15 -4
-13 -1 5 10 14 8 19 15 11 16 -25 0 -3 13 36 20 63 13 76 12 69 -5z m186 -54
c-8 -4 -14 -12 -14 -16 0 -4 6 -12 14 -16 10 -7 10 -9 -2 -9 -12 -1 -11 -3 2
-11 12 -7 25 -6 40 1 22 11 22 10 4 -4 -15 -12 -16 -16 -5 -16 8 0 20 5 27 12
7 7 36 11 72 10 36 -2 74 4 96 13 45 18 44 18 44 0 0 -23 -31 -33 -86 -28 -43
5 -55 2 -73 -16 -16 -16 -28 -19 -53 -14 -18 3 -36 10 -39 15 -3 5 -36 -7 -73
-28 -65 -36 -89 -61 -27 -29 18 9 37 13 43 9 6 -4 8 -3 5 3 -4 6 0 13 8 17 8
3 15 0 15 -6 0 -7 6 -6 16 2 12 11 15 11 12 -1 -2 -8 5 -14 14 -14 9 0 20 -3
23 -7 4 -4 14 -4 23 -1 10 4 5 -7 -12 -25 -19 -21 -39 -32 -55 -31 -44 1 -142
24 -135 32 12 12 -11 8 -31 -6 -11 -7 -38 -24 -60 -36 -35 -20 -37 -21 -15 -2
14 11 67 44 118 72 65 36 89 54 80 60 -10 7 -10 9 2 9 13 0 13 1 0 10 -8 5
-10 10 -4 10 14 0 14 30 0 30 -6 0 -4 5 4 10 8 5 20 10 25 10 6 0 4 -4 -3 -9z"/>
<path d="M2350 1361 c0 -39 20 -61 20 -23 1 16 1 16 14 0 14 -19 46 -24 46 -8
0 6 7 10 15 10 8 0 15 -4 15 -10 0 -5 32 -9 70 -9 39 0 70 5 70 10 0 5 -4 9
-9 9 -6 0 -9 9 -8 20 1 11 5 20 9 20 4 0 8 4 8 9 0 6 -27 10 -60 10 l-60 -1
-1 -36 0 -37 -12 34 c-16 45 -33 50 -42 12 -9 -43 -26 -49 -23 -9 3 29 0 33
-24 36 -27 3 -28 1 -28 -37z"/>
<path d="M2362 1288 c-5 -7 -13 -23 -17 -36 -16 -53 67 -86 99 -40 l16 22 0
-22 c0 -13 6 -22 15 -22 9 0 15 9 15 25 0 14 6 25 13 25 22 0 40 -18 34 -34
-5 -11 -1 -16 13 -16 14 0 20 7 20 21 0 15 5 20 23 17 15 -2 21 -9 19 -20 -3
-16 7 -18 78 -18 69 0 80 2 80 17 0 13 -3 14 -12 5 -18 -18 -28 -15 -28 8 0
13 5 18 15 14 9 -4 15 0 15 10 0 10 -6 13 -15 10 -9 -4 -15 0 -15 10 0 9 5 16
10 16 6 0 10 5 10 10 0 6 -14 10 -31 10 -26 0 -29 -3 -24 -20 9 -27 -2 -58
-26 -70 -16 -9 -19 -7 -19 9 0 14 5 19 15 15 9 -4 15 0 15 10 0 10 -6 13 -15
10 -10 -4 -15 0 -15 11 0 9 5 13 10 10 6 -3 10 1 10 9 0 11 -10 16 -31 16 -22
0 -30 -4 -26 -14 6 -16 -11 -36 -30 -36 -7 0 -13 7 -13 16 0 10 6 14 15 10 9
-3 15 0 15 9 0 10 -11 15 -33 15 -28 0 -33 -4 -33 -22 1 -17 -5 -24 -21 -26
-18 -3 -23 2 -23 17 0 14 5 19 15 15 8 -4 15 -1 15 5 0 6 -13 11 -30 11 -24 0
-30 -4 -30 -22 l0 -22 -16 22 c-17 24 -39 29 -50 10 -5 -7 -3 -8 6 -3 28 17
41 -53 14 -76 -24 -20 -47 15 -39 59 6 34 3 39 -13 20z"/>
<path d="M3490 1232 c-47 -23 -74 -71 -60 -106 22 -58 98 -54 146 9 26 34 32
89 12 101 -24 15 -65 13 -98 -4z"/>
<path d="M4345 1203 c13 -79 17 -99 21 -116 8 -27 58 -47 120 -47 52 0 59 3
90 35 18 19 41 35 52 35 10 0 27 9 37 20 15 17 16 24 7 45 -6 13 -22 27 -36
31 -16 4 -23 11 -19 20 4 12 -19 14 -136 14 l-142 0 6 -37z"/>
<path d="M1757 1006 c-3 -8 -22 -16 -44 -18 l-38 -3 2 -45 c1 -26 8 -49 17
-56 19 -13 10 -24 -17 -24 -11 0 -18 -3 -14 -6 9 -10 147 7 147 18 0 5 -20 7
-47 4 -27 -3 -36 -2 -21 2 28 7 98 66 98 82 0 5 -13 17 -30 27 -16 9 -30 21
-30 25 0 14 -18 9 -23 -6z"/>
<path d="M3248 955 c-32 -18 -42 -44 -29 -78 13 -34 40 -47 94 -47 49 0 97 29
97 59 0 10 -12 30 -26 46 -21 23 -30 26 -57 20 -58 -13 -84 -15 -49 -5 17 6
32 13 32 15 0 10 -36 4 -62 -10z"/>
<path d="M3552 910 c-18 -3 -48 -18 -67 -33 -67 -54 -33 -119 45 -87 39 16 80
65 80 95 0 27 -13 33 -58 25z"/>
<path d="M3717 793 c-23 -23 17 -104 63 -128 33 -17 66 -19 75 -5 13 20 -8 81
-38 110 -29 29 -83 41 -100 23z"/>
<path d="M2015 495 c-66 -13 -185 -34 -265 -46 l-145 -22 -2 -55 c-2 -31 -10
-66 -19 -79 l-15 -24 39 20 c21 11 39 26 40 33 2 34 9 65 16 76 4 7 4 12 -1
12 -25 1 27 20 53 20 31 0 53 -23 33 -35 -5 -4 -7 -10 -4 -15 3 -5 -15 -23
-40 -41 -25 -18 -43 -34 -40 -37 2 -2 27 12 54 33 34 24 57 34 70 30 14 -4 26
5 50 43 l31 49 140 23 c77 13 140 27 140 31 0 5 -3 8 -7 8 -5 -1 -62 -12 -128
-24z"/>
<path d="M3245 366 c-35 -15 -105 -89 -105 -110 0 -29 -23 -28 -50 3 -29 31
-54 44 -30 16 7 -8 11 -15 9 -16 -50 -10 -113 -3 -104 12 4 5 1 9 -5 9 -6 0
-8 5 -5 10 3 6 1 10 -5 10 -6 0 -8 -12 -5 -32 5 -24 0 -37 -19 -57 -14 -14
-29 -37 -34 -51 -9 -23 -10 -20 -17 25 -4 28 -13 53 -19 57 -8 5 -7 8 2 8 9 0
9 7 -2 34 -8 19 -12 37 -8 40 13 13 -12 4 -56 -20 -43 -24 -45 -26 -15 -20 42
7 56 -17 58 -100 l2 -61 -32 10 c-17 5 -32 14 -33 21 -1 6 -9 39 -18 74 l-17
62 -46 0 c-25 1 -85 9 -133 19 -49 9 -88 17 -88 16 0 -11 95 -103 103 -101 7
2 9 1 5 -1 -4 -2 -4 -11 -1 -18 3 -10 10 -12 21 -6 12 6 32 0 67 -21 l50 -29
-57 3 c-56 3 -57 3 -51 -22 8 -35 50 -117 64 -126 6 -3 15 0 20 7 5 8 9 9 9 3
0 -8 63 -12 217 -13 191 -1 219 1 236 16 15 14 18 14 15 3 -4 -20 141 -28 153
-8 7 10 9 10 9 1 0 -18 57 -16 63 1 4 10 18 13 41 12 20 -2 33 1 30 6 -3 5
-13 7 -21 4 -8 -3 -11 -1 -8 5 4 6 20 8 38 4 24 -5 28 -4 17 4 -12 8 -8 10 17
8 17 -1 29 -5 27 -9 -2 -4 0 -10 6 -13 8 -5 7 -11 -1 -21 -10 -12 -4 -14 35
-14 44 0 46 1 46 29 0 36 -38 92 -74 110 -16 7 -46 14 -66 15 -36 1 -36 1 -30
36 25 135 -84 229 -205 176z"/>
<path d="M980 242 c-81 -84 -127 -120 -142 -110 -23 14 -72 9 -105 -12 -36
-22 -58 -52 -68 -93 l-7 -27 126 0 c124 0 126 0 126 23 0 12 -7 35 -15 51 -9
16 -13 37 -9 45 4 9 7 19 6 23 -1 4 12 17 29 28 l30 22 -3 -23 c-2 -13 -6 -28
-10 -34 -17 -28 11 -143 33 -130 5 4 7 10 4 15 -3 4 2 13 10 20 8 7 12 16 9
21 -3 5 0 8 6 7 7 -2 14 5 15 14 3 16 1 16 -21 2 -13 -9 -22 -20 -19 -24 3 -5
1 -11 -4 -14 -8 -5 -8 15 -1 34 1 3 2 9 1 13 -1 5 3 6 8 3 5 -4 12 -2 15 3 4
5 1 13 -4 16 -8 5 -5 14 7 27 10 11 17 22 16 24 -2 2 -3 5 -2 7 9 29 6 36 -11
27 -27 -15 -38 -35 -14 -27 18 7 18 7 0 -8 -14 -11 -16 -15 -5 -15 10 -1 8 -4
-5 -11 -13 -8 -15 -13 -6 -19 9 -5 8 -9 -3 -13 -10 -4 -14 0 -12 11 2 9 4 18
5 20 2 1 3 10 4 20 1 9 5 23 9 30 5 7 3 12 -5 12 -10 0 -9 3 2 9 8 6 17 8 21
5 4 -2 13 4 20 14 13 15 12 16 -3 3 -26 -19 -22 -5 8 35 38 49 27 42 -36 -24z"/>
</g>
</svg>
