<?xml version="1.0" standalone="no"?>
<!DOCTYPE svg PUBLIC "-//W3C//DTD SVG 20010904//EN"
 "http://www.w3.org/TR/2001/REC-SVG-20010904/DTD/svg10.dtd">
<svg version="1.0" xmlns="http://www.w3.org/2000/svg"
 width="600.000000pt" height="600.000000pt" viewBox="0 0 600.000000 600.000000"
 preserveAspectRatio="xMidYMid meet">
<metadata>
Created by potrace 1.16, written by Peter Selinger 2001-2019
</metadata>
<g transform="translate(0.000000,600.000000) scale(0.100000,-0.100000)"
fill="#000000" stroke="none">
<path d="M2805 4799 c-17 -12 -39 -33 -49 -46 -18 -25 -18 -25 3 -13 21 11 76
12 411 12 155 0 170 -2 196 -18 13 -9 29 -34 36 -58 7 -22 15 -43 19 -46 10
-7 19 -69 10 -74 -12 -8 0 -76 14 -76 17 0 40 156 30 202 -9 42 -29 81 -50 98
-13 10 -83 17 -264 26 -333 17 -322 17 -356 -7z"/>
<path d="M303 4604 c-3 -8 -13 -13 -21 -12 -18 3 -18 9 -6 -276 l7 -149 -27
19 c-14 10 -29 30 -32 44 -17 72 -26 87 -62 107 -33 19 -133 53 -154 53 -4 0
-8 -429 -8 -954 l0 -954 72 20 c91 26 103 34 106 79 2 20 9 53 17 74 10 31 20
42 51 52 43 15 74 40 74 60 0 7 4 13 9 13 10 0 27 -281 18 -303 -4 -11 -177
-71 -314 -109 l-33 -9 0 -909 c0 -818 2 -910 16 -910 8 0 12 -4 9 -10 -3 -5
-2 -10 4 -10 5 0 11 5 13 12 5 14 71 -13 67 -28 -1 -5 9 -15 22 -21 l24 -13
-27 0 c-17 0 -31 7 -38 20 -13 25 -38 26 -70 3 l-24 -17 24 -7 25 -7 -22 -7
c-24 -8 -31 -25 -10 -25 6 0 32 7 56 16 24 8 51 12 60 9 28 -12 311 -18 311
-7 0 5 9 12 21 15 17 5 19 9 10 26 -16 29 -14 31 25 25 34 -5 36 -4 31 15 -5
19 -1 21 51 21 32 1 192 3 357 6 331 6 607 6 614 -1 2 -3 -8 -5 -23 -5 -15 0
-25 -4 -22 -9 3 -4 -20 -6 -50 -4 -37 2 -53 0 -49 -7 3 -5 18 -10 33 -11 l27
-1 -30 -9 c-16 -6 -55 -10 -85 -10 -30 -1 -48 -3 -40 -6 8 -4 17 -9 20 -13 8
-11 89 -19 96 -9 3 5 13 9 22 8 11 0 12 -3 5 -6 -22 -8 -14 -23 13 -23 14 0
23 4 19 10 -7 11 27 13 74 4 17 -4 28 -11 25 -16 -5 -7 42 -8 137 -3 79 4 141
4 137 0 -7 -7 -59 -12 -255 -22 -62 -3 -113 -10 -113 -15 0 -5 -9 -6 -20 -3
-12 4 -20 2 -20 -5 0 -6 -5 -8 -10 -5 -6 4 -8 11 -5 16 4 5 -6 9 -22 9 -27 -1
-27 -1 -9 -15 18 -14 17 -15 -22 -15 -31 0 -42 -4 -42 -15 0 -11 11 -15 36
-15 21 0 33 4 29 10 -3 5 2 10 11 10 10 0 15 -3 11 -6 -16 -16 23 -31 73 -29
98 4 98 4 77 19 -16 13 -16 14 9 20 29 8 45 -1 25 -13 -9 -6 -6 -10 11 -15 22
-6 22 -7 5 -20 -14 -11 -15 -15 -5 -19 11 -4 11 -6 0 -6 -7 -1 -23 4 -34 10
-12 6 -18 7 -14 1 8 -14 -18 -22 -70 -22 -24 0 -44 -4 -44 -10 0 -11 59 -14
199 -10 63 1 92 -1 87 -8 -3 -6 -42 -10 -86 -10 -43 0 -87 -5 -97 -11 -13 -8
9 -11 87 -12 68 0 96 -3 79 -9 -39 -11 -229 -22 -460 -25 -113 -2 -216 -6
-228 -10 -12 -4 -27 -2 -34 3 -8 6 -80 6 -203 -1 -179 -9 -244 -7 -244 11 0
16 61 32 153 38 94 7 124 17 97 34 -7 4 -60 11 -118 15 -103 7 -170 24 -155
39 5 4 -1 14 -11 22 -19 13 -18 14 10 14 36 0 55 12 46 27 -8 13 -63 17 -202
15 -47 0 -96 -1 -110 -1 -139 0 -178 0 -195 1 -11 1 -32 1 -47 0 l-28 -2 0
-192 c0 -106 4 -187 8 -180 7 9 15 10 35 3 36 -14 397 -7 425 8 17 9 22 9 22
-1 0 -8 8 -4 18 8 20 25 65 44 110 47 40 3 42 16 2 24 -32 6 -41 23 -12 24 9
0 26 2 37 4 39 8 270 7 289 -1 12 -4 17 -4 13 2 -3 6 15 11 44 12 29 1 49 -2
49 -9 0 -5 5 -7 10 -4 6 3 20 3 31 0 17 -6 19 -9 8 -16 -11 -7 -9 -9 7 -9 12
0 24 7 28 15 6 17 101 22 111 5 3 -6 0 -11 -7 -12 -7 0 -17 -2 -23 -3 -5 -2
-20 -3 -32 -4 -13 0 -23 -5 -23 -9 0 -5 65 -10 145 -11 80 0 145 3 145 8 0 4
19 5 43 0 23 -4 50 -8 60 -9 25 0 21 18 -5 23 -13 2 -4 5 19 6 32 1 41 -2 37
-12 -3 -8 3 -14 13 -15 28 -3 248 -2 341 2 75 2 82 1 82 -17 0 -14 -5 -17 -16
-13 -14 5 -15 4 -5 -8 7 -8 19 -12 27 -9 8 3 26 2 42 -2 24 -6 25 -8 10 -19
-13 -10 -9 -12 27 -14 30 -1 45 3 49 13 7 19 26 20 26 1 0 -8 11 -17 25 -20
16 -4 23 -11 19 -18 -5 -7 -3 -8 6 -3 7 4 38 7 71 6 32 0 61 3 64 9 4 7 12 7
25 0 26 -14 63 -13 79 2 10 11 14 10 22 -4 9 -17 103 -18 1754 -18 l1745 0 0
466 0 465 -27 -19 c-121 -86 -400 -119 -663 -78 l-35 6 31 -10 c17 -5 77 -16
135 -24 57 -8 92 -14 77 -15 -15 -1 -30 -6 -33 -12 -16 -26 -273 18 -371 63
-45 21 -119 80 -133 106 -5 10 -12 42 -16 72 l-7 55 37 -40 c20 -22 33 -33 28
-25 -17 33 -25 120 -11 120 7 0 6 5 -1 14 -9 11 -9 15 0 18 8 3 9 9 4 19 -5 8
-10 19 -11 24 -1 6 -5 19 -9 30 -4 11 3 5 15 -14 31 -48 48 -64 65 -57 28 10
15 76 -28 139 -17 25 -21 27 -36 13 -10 -9 -22 -12 -30 -7 -10 7 -8 13 10 29
22 22 29 68 12 94 -4 7 -9 22 -10 33 -2 11 -10 23 -17 27 -8 5 -13 16 -11 26
2 9 4 24 4 32 1 8 19 -21 40 -65 85 -171 230 -282 420 -320 36 -7 55 -14 41
-14 -24 -2 -24 -2 -6 -16 11 -8 15 -15 8 -15 -8 0 -9 -11 -5 -32 5 -24 2 -34
-13 -46 -13 -10 -15 -16 -6 -19 14 -6 16 -33 2 -33 -6 0 -3 -12 7 -26 16 -25
16 -27 -3 -41 -13 -11 -15 -17 -6 -20 19 -7 14 -21 -10 -25 -49 -9 141 -20
228 -15 118 8 216 31 279 65 l50 27 2 1348 3 1347 -63 0 c-95 0 -94 -4 -100
246 -4 150 -2 215 6 223 8 8 4 11 -15 11 -34 0 -36 -17 -33 -250 1 -102 -2
-193 -7 -203 -8 -15 -20 -17 -86 -15 l-77 3 4 165 c2 91 8 176 13 189 6 17 5
27 -3 31 -25 16 -181 56 -294 75 -44 8 -118 21 -165 30 -47 9 -107 20 -135 25
-405 76 -834 113 -1310 114 -435 1 -671 -21 -1065 -98 -203 -40 -200 -38 -237
-164 -46 -152 -146 -593 -207 -910 -18 -94 -19 -105 -8 -98 4 2 29 0 56 -6 77
-16 69 -36 135 372 17 102 40 258 52 348 l22 162 29 0 c16 0 60 -7 97 -16 65
-14 69 -17 76 -47 4 -18 9 -587 12 -1265 5 -1193 4 -1234 -14 -1228 -10 3
-130 39 -268 80 -137 41 -326 97 -420 126 -93 29 -197 60 -230 70 -143 42
-967 296 -1177 363 l-97 30 -5 51 c-3 28 -10 188 -16 356 -12 325 -44 1092
-60 1430 -5 113 -12 282 -16 377 l-7 172 62 -16 c34 -9 63 -14 65 -12 7 9 -17
178 -25 174 -11 -7 -59 5 -59 15 0 4 12 5 28 3 48 -7 2 14 -77 36 -62 17 -73
18 -78 5z m2857 -392 c-36 -16 -94 -44 -130 -64 -83 -45 -142 -60 -195 -48
-59 14 -77 10 -25 -5 25 -7 37 -13 28 -14 -25 -1 -61 -39 -54 -57 3 -8 1 -14
-4 -14 -6 0 -10 4 -10 10 0 11 -50 25 -145 40 -38 6 -74 16 -80 22 -10 10 27
7 106 -8 20 -4 26 -1 26 13 0 10 -4 21 -9 24 -5 3 14 5 44 3 l53 -3 -44 9
c-25 5 -49 14 -54 19 -18 18 345 85 538 99 11 1 -9 -11 -45 -26z m1047 -112
c392 -6 671 -14 685 -20 18 -8 10 -9 -32 -5 -30 2 -414 7 -852 11 -454 4 -795
10 -792 15 7 11 166 11 991 -1z m-3905 -497 c5 -234 8 -223 -59 -223 l-36 0 7
158 c15 330 22 384 48 405 l23 19 7 -73 c3 -41 8 -169 10 -286z m4806 307
c260 0 292 -2 292 -16 0 -9 6 -14 13 -11 6 2 11 10 10 16 -2 6 11 11 30 11 22
0 28 -3 18 -9 -7 -5 -11 -13 -7 -19 3 -6 -4 -13 -16 -15 -14 -3 -8 -5 16 -6
36 -1 38 1 34 24 -4 20 -1 25 14 25 10 0 22 -8 25 -17 6 -15 7 -15 14 3 7 17
8 17 8 2 1 -10 6 -18 11 -18 6 0 10 -7 10 -15 0 -8 -4 -15 -9 -15 -12 0 -23
-48 -14 -63 4 -7 8 -30 8 -53 0 -32 -3 -40 -17 -39 -10 1 -21 4 -24 8 -13 12
-22 8 -27 -14 -4 -15 -2 -19 8 -15 9 3 12 0 8 -10 -4 -12 -17 -15 -58 -11 -29
2 -58 7 -64 11 -6 4 -11 2 -11 -3 0 -6 -7 -11 -16 -11 -10 0 -14 6 -11 15 9
22 -10 28 -35 11 -33 -23 -62 -21 -55 4 3 11 1 20 -4 20 -5 0 -9 -6 -9 -14 0
-11 -26 -14 -125 -15 -104 0 -132 -4 -167 -21 -43 -20 -67 -21 -28 0 12 6 19
14 16 17 -3 4 3 13 14 20 11 8 18 19 15 24 -8 12 -45 -8 -45 -25 0 -8 -12 -21
-26 -31 -15 -10 -23 -22 -20 -31 3 -9 1 -12 -4 -9 -13 8 -13 21 3 37 6 7 13
23 15 35 3 20 1 21 -22 10 -13 -6 -24 -16 -23 -22 1 -5 -9 -10 -23 -11 -14 0
-31 -4 -38 -8 -7 -4 -19 -5 -26 -3 -10 4 -13 -2 -12 -19 1 -18 5 -22 19 -18
25 8 21 -10 -5 -21 -13 -6 -23 -15 -23 -21 0 -15 -35 -48 -43 -40 -3 4 0 11 7
16 10 6 14 32 15 86 1 65 4 79 18 82 9 2 26 -6 38 -18 11 -11 25 -18 30 -15
37 23 -45 53 -99 37 -76 -23 -151 -23 -151 0 0 5 5 6 11 3 6 -4 17 2 25 13 7
11 30 23 51 27 49 9 52 11 46 35 -6 21 -37 27 -48 10 -5 -8 -12 -7 -23 2 -12
10 -16 10 -19 1 -3 -7 -11 -13 -19 -13 -8 0 -11 -6 -7 -16 4 -12 2 -15 -8 -12
-8 3 -13 10 -12 15 1 6 -14 9 -34 7 -26 -2 -33 0 -24 9 6 6 11 21 11 34 0 13
5 23 10 23 6 0 10 -7 10 -15 0 -8 5 -15 10 -15 6 0 10 9 10 20 0 14 -7 20 -21
20 -11 0 -17 5 -14 10 3 6 -1 10 -10 10 -9 0 -14 -4 -10 -9 3 -5 1 -12 -5 -16
-5 -3 -10 -1 -10 4 0 6 -7 11 -16 11 -8 0 -13 -4 -9 -10 6 -10 -49 -43 -58
-34 -11 11 5 34 24 34 10 0 19 4 19 9 0 5 8 12 18 14 9 3 0 5 -21 6 -23 1 -36
-3 -32 -9 3 -6 -4 -10 -17 -10 -18 0 -20 2 -8 10 11 7 5 10 -25 12 -22 1 64 5
190 8 127 3 239 5 250 3 11 -1 152 -3 313 -3z m-4790 -775 c3 -170 12 -153
-87 -158 l-53 -3 6 135 c10 191 7 183 75 179 l56 -3 3 -150z m4840 -1065 c1 0
10 0 20 0 11 0 28 -17 41 -41 21 -37 22 -46 12 -80 -14 -48 -22 -53 -74 -45
-51 8 -66 34 -73 125 l-5 59 38 -8 c21 -5 39 -9 41 -10z"/>
<path d="M1150 3926 c-110 -38 -135 -52 -173 -97 -47 -54 -67 -121 -67 -220 0
-212 146 -409 302 -409 77 0 211 30 250 57 165 112 166 410 0 594 -86 96 -183
119 -312 75z"/>
<path d="M1627 3549 c-5 -89 -16 -142 -38 -181 -7 -13 -4 -23 11 -38 20 -20
20 -20 1 -39 -10 -10 -35 -25 -55 -32 -35 -13 -50 -39 -22 -39 8 0 21 -6 28
-12 8 -7 24 -19 35 -25 29 -16 53 6 53 48 0 28 16 68 33 80 14 10 26 79 31
174 5 87 5 88 -6 35 l-12 -55 -7 50 c-5 28 -17 67 -27 89 l-19 38 -6 -93z"/>
</g>
</svg>
