<?xml version="1.0" standalone="no"?>
<!DOCTYPE svg PUBLIC "-//W3C//DTD SVG 20010904//EN"
 "http://www.w3.org/TR/2001/REC-SVG-20010904/DTD/svg10.dtd">
<svg version="1.0" xmlns="http://www.w3.org/2000/svg"
 width="1042.000000pt" height="1042.000000pt" viewBox="0 0 1042.000000 1042.000000"
 preserveAspectRatio="xMidYMid meet">

<g transform="translate(0.000000,1042.000000) scale(0.100000,-0.100000)"
fill="#000000" stroke="none">
<path d="M5050 7814 c-560 -43 -1063 -240 -1485 -581 -120 -97 -316 -296 -407
-413 -293 -378 -479 -830 -538 -1305 -6 -49 -13 -160 -15 -245 -24 -964 491
-1863 1340 -2337 260 -145 532 -240 846 -294 162 -28 576 -36 739 -14 588 80
1112 337 1520 745 408 408 665 932 745 1520 22 163 14 577 -14 739 -54 314
-149 586 -294 846 -455 815 -1296 1322 -2222 1339 -93 2 -190 1 -215 0z m1155
-756 c6 -27 35 -223 35 -238 0 -7 -346 -10 -1033 -10 l-1033 0 20 135 20 135
993 0 993 0 5 -22z m236 -437 c32 -32 33 -37 29 -160 -2 -99 -16 -126 -69
-141 -23 -6 -444 -10 -1199 -10 -982 0 -1168 2 -1197 14 -49 21 -65 59 -65
161 0 90 8 119 44 147 20 16 99 18 1224 18 l1204 0 29 -29z m-121 -498 c0 -21
-4 -90 -9 -153 -5 -63 -12 -162 -16 -220 -3 -58 -8 -121 -10 -140 -2 -19 -7
-80 -11 -135 -3 -55 -9 -135 -12 -178 l-7 -77 -120 -3 c-133 -3 -130 -5 -175
74 -38 65 -156 180 -243 237 -287 187 -692 193 -996 15 -87 -51 -217 -177
-266 -257 l-40 -65 -127 -1 -128 0 -1 28 c0 15 -2 38 -4 52 -2 14 -11 133 -20
265 -8 132 -17 258 -20 280 -2 22 -7 90 -10 150 -3 61 -9 122 -11 138 l-6 27
1116 0 1116 0 0 -37z m-894 -639 c138 -40 216 -86 319 -189 70 -70 98 -106
124 -162 l35 -73 166 0 c92 0 169 -2 171 -4 4 -5 -17 -338 -27 -413 l-5 -43
-172 0 -172 -1 -40 -60 c-181 -275 -579 -385 -911 -253 -131 52 -257 152 -330
261 l-35 53 -175 0 -174 0 -1 58 c0 31 -2 64 -3 72 -2 8 -6 62 -10 120 -4 58
-9 129 -12 158 l-6 52 173 0 174 0 23 53 c85 198 310 358 557 398 85 13 234 2
331 -27z m-921 -1095 c47 -59 147 -144 229 -193 139 -84 341 -132 516 -123
253 13 473 114 637 292 l70 75 122 0 123 0 -6 -87 c-4 -49 -8 -113 -11 -143
-8 -101 -14 -184 -20 -285 -4 -55 -8 -116 -10 -135 -2 -19 -9 -114 -15 -210
-6 -96 -13 -188 -15 -205 l-5 -30 -913 3 -914 2 -6 93 c-13 187 -47 664 -51
712 -3 28 -8 103 -12 168 l-7 117 124 0 124 0 40 -51z"/>
</g>
</svg>
