<?xml version="1.0" standalone="no"?>
<!DOCTYPE svg PUBLIC "-//W3C//DTD SVG 20010904//EN"
 "http://www.w3.org/TR/2001/REC-SVG-20010904/DTD/svg10.dtd">
<svg version="1.0" xmlns="http://www.w3.org/2000/svg"
 width="350.000000pt" height="300.000000pt" viewBox="0 0 350.000000 300.000000"
 preserveAspectRatio="xMidYMid meet">
<metadata>
Created by potrace 1.16, written by Peter Selinger 2001-2019
</metadata>
<g transform="translate(0.000000,300.000000) scale(0.100000,-0.100000)"
fill="#000000" stroke="none">
<path d="M0 2965 c0 -26 9 -44 40 -77 25 -27 41 -56 45 -80 5 -25 21 -53 46
-80 49 -53 51 -86 8 -122 -40 -34 -61 -34 -118 2 -3 1 -8 21 -12 45 -5 33 -7
24 -8 -45 l-1 -88 33 0 c18 0 49 -11 70 -25 32 -22 37 -31 37 -63 0 -20 -4
-42 -8 -48 -15 -23 -54 -35 -93 -29 l-39 7 0 -63 0 -63 28 25 c27 25 103 59
133 59 15 0 79 65 79 80 0 23 -14 40 -34 40 -29 0 -46 18 -46 51 0 34 25 64
70 87 27 13 39 29 53 67 10 28 27 59 38 71 27 29 24 40 -18 57 -21 8 -49 27
-62 41 -14 14 -30 26 -36 26 -23 0 -105 62 -105 80 0 25 -54 80 -79 80 -17 0
-21 -6 -21 -35z"/>
<path d="M610 2973 c-8 -16 -29 -42 -47 -60 -18 -18 -33 -37 -33 -43 0 -6 21
-24 48 -40 26 -16 55 -37 64 -46 29 -29 58 -98 58 -140 0 -21 8 -51 18 -67 27
-40 82 -78 99 -68 14 7 83 153 83 173 0 5 14 30 32 56 42 61 38 101 -14 159
-15 16 -19 29 -14 49 6 23 11 26 36 20 32 -6 33 -5 24 18 -5 14 -30 16 -173
16 l-168 0 -13 -27z"/>
<path d="M1040 2988 c0 -7 11 -30 24 -51 20 -33 22 -44 15 -83 -14 -72 24
-117 104 -128 27 -3 65 -14 85 -23 22 -10 61 -17 98 -18 136 0 124 -78 -24
-155 -32 -17 -54 -21 -86 -18 -26 3 -53 0 -67 -8 -13 -7 -34 -13 -45 -14 -15
0 -27 -11 -38 -35 -9 -19 -23 -35 -31 -35 -9 0 -12 -6 -8 -17 10 -28 121 -181
158 -216 40 -40 99 -146 117 -212 11 -39 14 -113 12 -333 -1 -156 -5 -286 -8
-289 -3 -3 -9 5 -14 17 l-9 24 -6 -25 c-4 -13 -3 -27 1 -31 11 -11 190 37 220
59 15 11 37 40 48 64 28 58 44 70 102 80 26 4 55 10 65 14 13 6 17 2 17 -19 0
-25 2 -26 47 -26 7 0 5 194 -3 237 -4 20 -1 24 13 19 10 -3 58 -10 107 -17 73
-9 90 -9 97 2 7 12 12 12 30 1 11 -7 60 -16 108 -19 65 -4 88 -9 88 -19 0 -8
-7 -14 -16 -14 -14 0 -14 -2 -1 -10 12 -8 12 -10 -5 -10 -15 0 -17 -2 -6 -9
11 -7 11 -9 0 -13 -13 -5 52 -28 79 -28 6 0 12 11 12 25 0 15 -6 25 -14 25
-26 0 -39 26 -25 52 6 13 13 24 14 26 1 1 21 -4 43 -12 31 -11 42 -12 42 -3 1
8 5 6 13 -3 7 -9 31 -25 54 -36 39 -19 46 -20 105 -8 35 8 78 14 96 14 22 0
31 4 26 11 -5 8 -43 10 -130 5 l-124 -8 0 26 c0 21 7 27 43 36 66 17 76 23 44
28 -15 2 -49 -1 -75 -7 -35 -7 -50 -7 -59 2 -18 17 -28 160 -13 186 9 18 8 21
-9 21 -32 0 -51 11 -51 30 0 10 7 20 15 24 8 3 15 16 15 29 0 19 7 26 31 31
41 8 183 8 243 0 39 -6 47 -11 53 -33 3 -14 13 -31 21 -37 18 -13 10 -44 -11
-44 -9 0 -12 -9 -9 -30 2 -16 -1 -44 -7 -62 -14 -40 -4 -48 66 -48 46 0 62 -6
120 -45 47 -32 75 -44 89 -41 39 10 49 -18 47 -128 -2 -114 -20 -189 -46 -194
-14 -3 -17 2 -15 23 3 25 0 28 -37 31 -22 2 -56 11 -75 19 -61 25 -250 45
-250 26 0 -19 53 -72 91 -91 28 -15 367 -80 414 -80 3 0 5 14 5 30 0 28 -3 30
-35 30 -34 0 -35 1 -28 28 4 15 7 91 8 169 l0 143 24 0 24 0 -6 266 c-4 207
-8 269 -19 276 -8 6 -266 7 -678 3 -618 -5 -666 -7 -683 -24 -17 -16 -17 -34
-7 -312 11 -280 8 -413 -10 -424 -14 -8 -20 54 -30 290 -5 126 -12 287 -15
356 -4 111 -3 128 13 141 14 13 71 18 292 26 151 6 357 11 458 12 101 1 194 5
208 10 22 9 24 14 19 62 -3 29 -8 160 -11 291 l-6 237 -769 0 c-609 0 -769 -3
-769 -12z"/>
<path d="M2716 2964 c-4 -20 -4 -150 0 -289 6 -221 9 -255 23 -258 31 -7 336
6 346 14 17 17 54 9 69 -14 12 -18 15 -68 17 -257 0 -129 3 -246 6 -259 l6
-24 13 25 c9 17 10 36 4 63 -5 22 -7 42 -4 45 7 7 44 -42 44 -60 0 -22 15 0
34 52 9 25 16 57 15 70 -4 43 1 79 10 74 14 -9 20 -58 10 -83 -13 -35 25 -66
71 -58 19 3 54 8 78 11 l42 6 0 49 c0 27 -4 49 -9 49 -5 0 -16 6 -23 13 -47
42 -64 51 -116 58 -45 6 -62 14 -79 36 -22 27 -23 62 -1 89 10 14 -1 154 -13
154 -5 0 -9 6 -9 14 0 7 -9 16 -20 19 -11 3 -20 13 -20 22 0 10 -6 23 -14 29
-8 6 -17 21 -21 34 -5 18 -3 22 17 21 13 0 32 -4 43 -8 31 -13 45 5 33 40 -6
16 -8 44 -5 62 2 18 -2 46 -11 64 -14 30 -14 34 3 53 15 17 16 22 4 36 -11 14
-10 18 6 30 16 12 17 17 5 39 -9 18 -19 23 -32 19 -22 -7 -25 21 -3 30 8 3 15
10 15 16 0 12 -198 14 -217 2 -7 -5 -11 -26 -10 -52 2 -44 2 -44 -37 -51 -23
-4 -46 -15 -55 -28 -14 -19 -21 -20 -43 -12 -33 12 -36 23 -30 94 l5 57 -70 0
-71 0 -6 -36z"/>
<path d="M3450 2981 c-5 -11 -10 -29 -10 -40 0 -11 -9 -43 -20 -71 -11 -28
-20 -61 -20 -74 0 -13 -7 -36 -15 -52 -19 -40 -27 -90 -30 -199 -4 -103 -11
-147 -31 -193 -9 -18 -12 -41 -9 -52 10 -31 54 -60 91 -60 29 0 34 3 34 25 0
37 21 75 42 75 17 0 18 16 18 330 0 321 -1 330 -20 330 -10 0 -24 -9 -30 -19z"/>
<path d="M832 2435 c-13 -49 -44 -76 -92 -80 -17 -1 -41 -11 -53 -22 -29 -27
-72 -36 -96 -22 -10 7 -25 9 -34 6 -19 -7 -37 -67 -37 -124 0 -41 1 -43 31
-43 19 0 44 11 68 30 30 24 48 31 87 32 45 1 51 -2 84 -41 36 -42 74 -53 98
-29 8 8 6 18 -10 40 -41 59 12 126 100 128 28 0 34 -5 48 -37 9 -21 20 -45 24
-53 6 -13 74 -34 92 -28 10 4 -116 181 -164 230 -38 40 -74 58 -112 58 -18 0
-24 -9 -34 -45z"/>
<path d="M223 2164 c-41 -18 -41 -27 0 -53 19 -11 39 -32 45 -45 10 -22 6 -34
-28 -95 -58 -102 -53 -131 10 -66 19 19 39 35 45 35 7 0 20 9 30 20 11 12 31
20 50 20 26 0 39 8 60 35 30 40 30 72 0 67 -11 -2 -31 -5 -45 -7 -28 -4 -57
16 -85 58 -25 39 -45 46 -82 31z"/>
<path d="M1035 2031 c-3 -6 -26 -13 -51 -17 -26 -4 -58 -17 -75 -32 -28 -23
-31 -23 -43 -7 -7 10 -19 16 -27 13 -8 -3 -31 2 -53 10 l-38 15 -32 -36 c-20
-23 -44 -38 -66 -42 -30 -6 -62 -25 -118 -70 -51 -41 -56 -59 -12 -42 25 9 39
8 75 -4 31 -11 46 -13 49 -5 3 7 7 8 13 1 14 -18 49 -33 59 -27 5 4 10 16 12
27 11 69 24 94 58 114 45 27 78 27 103 -1 28 -29 34 -53 22 -77 -8 -14 -7 -22
4 -31 13 -10 15 -8 15 14 0 39 22 31 44 -15 24 -49 30 -53 49 -34 9 8 31 15
49 16 31 0 32 1 11 11 -28 13 -28 18 -3 70 11 23 20 54 20 70 0 23 4 28 24 28
14 0 28 5 31 10 4 6 -10 10 -34 10 -31 0 -41 4 -46 20 -7 21 -30 27 -40 11z"/>
<path d="M320 1600 c0 -32 -44 -84 -65 -76 -8 3 -15 1 -15 -4 0 -4 -22 -33
-50 -63 -64 -70 -65 -117 -3 -101 10 3 44 -4 74 -15 49 -19 57 -26 67 -58 9
-29 8 -42 -4 -65 -8 -16 -12 -38 -9 -48 4 -13 -2 -29 -19 -47 -27 -29 -30 -26
-27 28 2 18 -5 28 -24 37 -37 17 -44 15 -57 -15 -7 -16 -21 -36 -32 -45 -18
-17 -20 -17 -48 0 -17 9 -47 32 -69 50 l-39 34 0 -85 c0 -96 1 -97 77 -97 48
0 148 -42 210 -88 20 -15 41 -22 53 -19 11 3 26 0 33 -6 7 -7 22 -17 32 -24
11 -6 19 -16 17 -22 -1 -6 5 -11 14 -11 8 0 13 -4 10 -9 -5 -7 19 -20 47 -25
4 0 11 -6 15 -11 15 -22 62 -45 78 -38 11 4 15 3 10 -5 -5 -9 21 -25 46 -27 3
0 10 -3 14 -7 4 -5 20 -8 36 -8 15 0 28 -4 28 -8 0 -9 87 -8 97 1 3 4 1 7 -5
7 -7 0 -12 4 -12 9 0 5 9 7 20 4 12 -3 29 2 39 11 10 9 32 19 47 20 16 2 30 5
32 6 1 1 6 3 11 4 12 1 52 52 50 63 -1 4 1 17 6 28 4 11 14 35 21 54 8 18 12
37 9 41 -3 4 3 10 13 13 27 8 295 103 315 112 16 7 17 -2 17 -106 0 -63 -5
-145 -11 -184 -6 -38 -12 -131 -13 -205 -2 -118 0 -138 17 -161 26 -36 14 -91
-30 -140 -33 -37 -34 -39 -22 -78 17 -57 -4 -87 -68 -97 -90 -14 -403 22 -403
46 0 13 84 21 187 20 163 -2 153 -4 153 30 0 44 -38 58 -129 49 -48 -5 -82 -4
-112 6 -26 8 -36 14 -24 15 17 2 16 3 -5 9 -20 6 -13 9 34 14 36 5 63 4 71 -3
15 -12 101 -18 112 -7 10 11 -16 26 -47 28 -24 2 -24 2 -2 6 12 2 20 9 17 14
-6 9 -52 2 -70 -11 -5 -4 -50 -8 -98 -8 -56 -1 -99 -7 -118 -16 -17 -8 -36
-13 -43 -10 -7 3 -20 -1 -28 -9 -8 -9 -27 -13 -48 -10 -27 3 -31 2 -20 -6 12
-9 10 -11 -12 -11 -18 0 -28 -5 -28 -14 0 -19 -39 -31 -53 -17 -8 8 -7 21 2
47 16 46 4 57 -55 48 -32 -4 -48 -1 -76 18 -20 12 -42 33 -49 45 -7 13 -18 23
-26 23 -7 0 -13 9 -13 20 0 10 -9 24 -20 30 -11 6 -20 17 -20 26 0 17 -28 48
-51 57 -28 9 -33 56 -10 81 12 12 21 29 21 38 0 33 -136 187 -165 188 -45 0
-57 -42 -29 -99 20 -39 13 -58 -23 -67 -78 -18 -85 -39 -53 -172 11 -45 21
-112 23 -147 l3 -64 -23 21 -23 21 0 -45 c0 -42 2 -46 30 -51 55 -12 53 -112
-3 -112 -27 1 -27 1 -27 -72 l0 -73 150 0 c149 0 150 0 138 21 -11 17 -10 22
5 30 24 14 21 24 -9 38 -23 10 -26 16 -19 44 4 18 6 55 5 83 0 36 4 57 15 68
33 33 79 10 95 -45 17 -58 13 -76 -20 -88 -17 -5 -30 -17 -30 -26 0 -25 19
-55 34 -55 8 0 20 -7 27 -16 10 -12 25 -15 57 -11 36 4 51 0 80 -19 31 -22 45
-24 143 -24 61 0 119 5 134 12 19 9 28 9 37 0 9 -9 286 -12 1120 -12 l1107 0
-3 65 c-2 43 1 65 8 65 6 0 4 5 -4 11 -12 8 -12 12 -2 16 9 3 10 9 3 17 -8 9
-4 30 11 72 14 39 19 67 14 80 -14 32 -6 108 12 122 32 25 47 10 53 -53 6 -49
3 -67 -13 -99 -14 -28 -21 -61 -22 -112 0 -40 2 -70 5 -68 4 2 5 -17 3 -42 -2
-30 0 -43 7 -38 7 4 7 -1 0 -15 l-12 -21 186 0 185 0 0 214 c0 162 -3 216 -12
220 -10 5 -10 7 0 12 9 4 12 56 12 210 0 112 -3 204 -7 205 -137 12 -166 12
-208 4 -39 -8 -70 23 -67 66 1 16 -2 29 -8 29 -6 0 -22 12 -35 26 -19 21 -25
23 -25 10 0 -30 -34 -53 -73 -50 -29 3 -37 -1 -43 -19 -5 -15 -1 -24 11 -32
10 -5 29 -20 43 -31 l26 -21 -34 -36 c-80 -81 -90 -93 -90 -108 0 -9 -10 -23
-22 -31 l-21 -14 20 -60 c12 -32 24 -67 28 -76 10 -25 -19 -23 -62 3 -18 12
-41 18 -50 15 -26 -11 -85 5 -79 20 3 8 -4 35 -15 61 -19 45 -19 48 -3 60 11
8 48 13 95 13 75 0 77 1 101 33 13 17 27 40 31 50 9 25 -32 23 -85 -5 -58 -31
-168 -30 -201 0 -12 11 -40 25 -62 31 -51 14 -62 21 -72 48 -8 22 -8 22 -52
-7 -50 -34 -112 -40 -149 -14 -14 10 -32 14 -48 10 -18 -5 -26 -2 -30 11 -3
10 -12 30 -20 45 -19 36 -18 56 6 70 25 16 25 19 0 48 -15 17 -20 19 -20 7 0
-8 -6 -18 -13 -20 -9 -4 -9 -6 1 -6 19 -1 14 -29 -8 -43 -24 -15 -26 -34 -4
-42 13 -5 14 -14 9 -49 -4 -23 -9 -53 -10 -67 -1 -14 -7 -35 -14 -48 -10 -19
-19 -23 -49 -20 l-37 3 -7 80 c-3 44 -2 85 2 90 5 6 5 31 0 56 -5 25 -7 78 -5
117 4 57 2 72 -10 72 -7 0 -17 -4 -20 -10 -9 -15 -41 -12 -56 6 -11 14 -10 18
6 30 10 8 15 14 9 14 -5 0 -18 -7 -28 -15 -11 -8 -36 -15 -55 -15 -45 0 -81
-10 -81 -21 0 -5 -19 -28 -42 -52 -24 -23 -60 -71 -81 -105 -45 -74 -80 -101
-107 -84 -10 6 -34 14 -54 17 -37 7 -65 38 -46 50 5 3 10 25 10 48 0 34 7 49
36 80 33 35 39 37 97 37 44 1 57 3 46 10 -15 9 -135 7 -343 -5 -43 -2 -106
-13 -140 -24 -129 -41 -297 -71 -400 -71 -36 0 -42 36 -22 118 22 88 45 111
120 119 31 3 58 9 61 13 2 3 -17 4 -43 1 -47 -6 -106 -1 -171 16 -32 8 -34 12
-56 88 -12 44 -31 116 -41 160 -23 95 -40 106 -85 53 -16 -18 -29 -36 -29 -40
0 -4 -13 -15 -29 -24 -17 -10 -32 -27 -35 -38 -3 -12 -15 -25 -27 -31 -14 -6
-28 -28 -38 -60 -20 -62 -37 -92 -47 -82 -13 13 -6 85 10 115 26 48 38 76 43
108 5 29 2 32 -48 54 -30 13 -71 24 -91 25 -35 2 -38 0 -38 -25z m1665 -561
c5 -15 14 -19 38 -17 27 3 33 -1 35 -21 2 -13 -6 -37 -18 -53 -12 -17 -22 -46
-23 -71 -2 -38 -5 -42 -29 -45 -19 -2 -30 3 -38 17 -6 12 -21 21 -33 21 -23 0
-47 17 -47 33 0 5 13 6 28 2 44 -9 57 13 44 78 -11 56 -2 90 23 81 8 -3 17
-15 20 -25z m365 -253 c6 -8 11 -25 10 -38 -2 -29 10 -68 20 -68 5 0 19 14 32
30 l24 31 84 -7 c126 -11 144 -35 109 -151 -6 -17 -15 -33 -22 -36 -25 -9
-197 0 -210 11 -11 10 -18 -6 -36 -88 -12 -55 -26 -102 -32 -105 -5 -4 -9 -16
-9 -27 0 -20 -1 -20 -19 -4 -16 15 -18 29 -14 114 2 53 11 118 20 144 14 39
14 52 4 74 -8 18 -9 30 -2 37 6 6 6 16 -1 27 -14 21 -2 70 16 70 7 0 19 -7 26
-14z m-108 -108 c7 -13 14 -41 15 -63 2 -22 5 -73 9 -113 5 -68 4 -75 -16 -89
-17 -12 -21 -24 -19 -59 3 -50 -4 -62 -25 -44 -10 8 -15 27 -14 57 2 32 -2 47
-14 54 -13 7 -18 33 -23 124 -7 103 -5 118 10 135 24 27 61 25 77 -2z m-216
-23 c3 -13 1 -55 -5 -92 -6 -37 -12 -81 -14 -98 -2 -34 -28 -45 -54 -24 -13
12 -15 29 -9 118 4 57 9 108 12 113 3 4 18 8 34 8 23 0 31 -5 36 -25z"/>
<path d="M2119 1558 c30 -9 47 -20 52 -35 6 -16 5 -23 -4 -23 -8 0 -6 -4 3
-10 8 -5 10 -10 5 -10 -6 0 -10 -19 -9 -42 l1 -43 54 -3 c69 -3 99 -10 99 -22
0 -6 -24 -10 -53 -10 -29 0 -57 -4 -63 -10 -5 -5 -19 -11 -31 -13 -13 -2 -26
-6 -29 -10 -4 -4 -18 -7 -30 -7 -13 0 -26 -5 -30 -11 -5 -8 -33 -10 -90 -6
-57 4 -84 3 -84 -5 0 -7 42 -9 135 -6 95 3 141 1 152 -7 22 -16 8 -35 -26 -35
-15 0 -33 -6 -40 -12 -8 -9 -55 -13 -162 -13 -82 0 -149 -3 -149 -6 0 -11 175
-21 240 -13 58 6 63 5 57 -10 -6 -16 -2 -17 41 -11 58 8 69 -2 71 -62 0 -23
10 -57 20 -74 l20 -32 8 32 c11 41 26 44 34 6 6 -29 7 -29 8 7 2 53 24 62 132
55 49 -4 113 -10 143 -13 l54 -7 10 -55 c5 -30 7 -63 5 -73 -6 -21 21 -27 33
-8 4 7 21 9 41 6 31 -5 34 -4 31 16 -2 16 -8 21 -23 18 -57 -11 -60 -9 -65 52
-4 40 -11 62 -22 68 -10 5 -14 17 -11 29 11 43 29 39 398 -75 61 -19 134 -39
163 -46 46 -9 53 -14 50 -32 -3 -22 0 -22 119 -22 120 0 123 1 123 22 0 24 3
23 -156 43 -132 16 -464 93 -579 134 -121 43 -185 59 -234 58 -47 0 -58 3 -83
29 -16 16 -33 29 -38 29 -10 0 -20 26 -20 48 1 10 7 5 16 -13 8 -16 12 -22 10
-13 -3 9 0 19 7 21 7 3 -3 19 -26 41 -44 42 -47 43 -47 15 0 -11 4 -18 9 -15
5 3 12 -1 15 -10 11 -30 6 -33 -19 -10 -27 25 -49 73 -35 78 17 6 -58 95 -95
112 -20 10 -62 19 -93 22 l-57 4 44 -12z"/>
</g>
</svg>
