<?xml version="1.0" standalone="no"?>
<!DOCTYPE svg PUBLIC "-//W3C//DTD SVG 20010904//EN"
 "http://www.w3.org/TR/2001/REC-SVG-20010904/DTD/svg10.dtd">
<svg version="1.0" xmlns="http://www.w3.org/2000/svg"
 width="2759.000000pt" height="2496.000000pt" viewBox="0 0 2759.000000 2496.000000"
 preserveAspectRatio="xMidYMid meet">
<metadata>
Created by potrace 1.16, written by Peter Selinger 2001-2019
</metadata>
<g transform="translate(0.000000,2496.000000) scale(0.100000,-0.100000)"
fill="#000000" stroke="none">
<path d="M9295 22285 c-199 -55 -392 -257 -546 -570 -16 -33 -35 -89 -43 -125
-28 -125 -56 -276 -67 -360 -6 -47 -13 -96 -15 -110 -11 -91 -14 -314 -4 -480
6 -107 15 -301 20 -430 5 -129 12 -271 14 -315 3 -44 8 -186 12 -315 3 -129 8
-251 9 -270 7 -71 29 -1950 25 -2120 -2 -104 -25 -162 -95 -234 -65 -67 -58
-72 145 -86 148 -10 480 -43 711 -70 424 -50 624 -159 683 -375 51 -184 56
-193 121 -214 22 -7 72 -29 110 -48 247 -124 388 -289 417 -491 11 -75 15 -85
37 -94 18 -6 101 -3 261 12 472 42 568 50 711 60 81 5 176 16 212 23 46 10 70
11 83 4 12 -7 203 -16 494 -23 482 -13 792 -27 968 -44 53 -5 241 -14 417 -20
622 -19 987 -53 1340 -125 233 -47 414 -116 453 -173 25 -35 66 -146 92 -247
44 -170 26 -147 147 -190 116 -41 246 -102 303 -143 52 -38 117 -112 139 -158
26 -55 45 -201 37 -289 -6 -66 -4 -76 24 -135 17 -36 34 -70 38 -76 4 -6 22
-32 40 -59 28 -43 32 -57 32 -116 0 -37 -4 -71 -10 -74 -12 -7 -14 -45 -2 -45
5 0 31 19 60 43 64 52 87 70 203 156 165 122 230 175 240 193 5 10 16 18 23
18 25 0 332 245 348 278 8 16 23 28 38 31 14 1 35 10 46 20 12 9 68 52 124 95
57 43 110 86 119 95 32 31 119 101 126 101 4 0 27 18 52 40 25 22 49 40 54 40
4 0 21 12 37 28 16 15 60 50 98 77 87 64 99 73 139 113 18 17 37 32 43 32 5 0
20 11 33 25 13 13 29 25 34 25 6 0 18 9 27 20 16 18 16 20 0 32 -38 28 -45 70
-36 216 13 193 7 1359 -7 1472 -9 66 -10 101 -9 200 0 30 -2 90 -5 132 -14
206 -19 353 -13 407 0 3 -1 8 -2 11 -7 19 -10 66 -14 215 -2 94 -6 184 -9 200
-7 40 -16 223 -22 430 -10 355 -16 499 -21 506 -2 4 -7 74 -10 155 -3 82 -10
154 -15 161 -7 7 -6 14 2 18 8 5 10 26 5 64 -3 31 -8 99 -11 151 -7 126 -21
241 -46 375 -26 140 -69 309 -80 313 -5 2 -9 13 -10 25 0 12 -3 16 -6 10 -2
-7 5 -61 17 -120 11 -60 23 -146 25 -193 3 -47 10 -175 15 -285 6 -110 15
-252 20 -315 5 -63 12 -160 15 -215 7 -130 22 -363 34 -540 6 -77 12 -183 15
-235 3 -52 10 -149 15 -215 12 -140 25 -375 47 -815 24 -500 29 -699 40 -1457
l6 -401 -22 -12 c-15 -8 -25 -9 -32 -2 -7 7 -10 211 -9 594 1 321 -3 705 -8
853 -16 414 -30 713 -41 895 -25 392 -42 683 -55 935 -24 446 -53 905 -75
1163 -12 130 -37 279 -69 396 -10 39 -22 88 -25 109 -12 65 -134 367 -195 482
-130 243 -253 410 -430 585 -175 174 -362 298 -549 365 -160 57 -211 67 -377
71 -393 10 -874 25 -915 29 -25 2 -112 6 -195 10 -82 3 -251 12 -375 20 -124
8 -279 17 -345 20 -66 4 -147 8 -180 10 -33 2 -127 6 -210 10 -82 3 -348 17
-590 30 -242 13 -498 26 -570 29 -164 8 -439 23 -755 41 -135 8 -303 17 -375
20 -71 3 -193 10 -270 15 -77 5 -270 17 -430 25 -159 9 -292 18 -296 20 -3 3
-93 9 -200 15 -107 6 -264 15 -349 20 -85 6 -240 14 -345 20 -233 12 -328 18
-470 30 -149 13 -280 11 -340 -5z m1822 -1859 c37 -8 115 -17 173 -21 139 -8
204 -14 270 -25 31 -6 73 -10 95 -9 22 0 105 -8 185 -19 80 -11 152 -20 160
-20 17 0 61 -5 195 -22 50 -6 119 -13 155 -15 92 -6 177 -15 235 -25 28 -5 93
-12 145 -15 171 -12 265 -20 315 -29 40 -7 121 -15 225 -21 111 -7 152 -12
170 -19 18 -7 82 -14 128 -15 21 -1 31 -5 26 -12 -5 -8 -1 -8 13 0 11 6 22 8
25 6 5 -6 60 -11 219 -24 58 -4 111 -11 117 -15 6 -3 14 -2 17 4 7 12 94 3
135 -13 14 -5 59 -11 100 -13 41 -2 86 -6 99 -9 13 -3 75 -8 139 -10 68 -3
121 -10 129 -17 11 -9 16 -9 23 1 6 10 21 11 61 5 30 -4 58 -7 63 -6 4 2 13
-2 20 -7 6 -5 27 -10 46 -10 66 -1 85 -6 93 -25 5 -14 10 -16 21 -7 10 8 16 8
25 -3 6 -8 19 -12 29 -10 34 8 70 -63 86 -172 8 -55 20 -113 26 -129 6 -17 20
-145 30 -285 11 -140 24 -307 30 -371 32 -351 -89 -660 -297 -757 -75 -35
-188 -40 -362 -18 -69 9 -250 30 -401 47 -359 40 -498 55 -650 73 -69 8 -262
31 -430 50 -372 43 -314 36 -725 90 -187 25 -376 50 -420 55 -44 6 -143 15
-220 21 -209 16 -265 25 -320 51 -58 26 -119 71 -155 113 -32 38 -89 128 -90
141 0 6 -6 21 -13 35 -40 78 -75 204 -88 315 -16 143 -17 161 -24 325 -3 85
-10 232 -15 325 -21 381 -22 402 -11 442 14 52 45 73 118 82 6 0 42 -5 80 -13z"/>
<path d="M18640 15238 c-19 -13 -71 -53 -115 -89 -82 -65 -113 -89 -200 -155
-204 -155 -269 -205 -335 -259 -41 -34 -185 -144 -318 -246 -134 -101 -323
-244 -420 -318 -367 -279 -460 -348 -508 -381 -27 -19 -51 -36 -54 -39 -3 -3
-30 -24 -60 -47 -30 -22 -127 -94 -215 -160 -213 -158 -205 -153 -277 -203
-35 -24 -64 -48 -66 -53 -2 -4 -10 -8 -17 -8 -7 0 -15 -7 -19 -15 -3 -8 -10
-15 -17 -15 -6 0 -45 -27 -87 -59 -136 -106 -248 -188 -293 -216 -24 -15 -51
-35 -60 -44 -28 -28 -64 -55 -100 -75 -18 -11 -38 -24 -44 -28 -5 -5 -37 -26
-69 -48 -33 -21 -79 -57 -103 -80 -23 -22 -48 -40 -55 -40 -7 0 -39 -22 -70
-48 -91 -76 -131 -106 -160 -121 -16 -8 -28 -18 -28 -23 0 -4 -6 -8 -14 -8 -7
0 -29 -14 -47 -31 -19 -17 -65 -51 -103 -76 -74 -48 -96 -66 -96 -80 0 -9 -48
-33 -67 -33 -7 0 -13 -4 -13 -8 0 -5 -11 -15 -25 -22 -14 -7 -25 -19 -25 -27
0 -7 -7 -13 -16 -13 -9 0 -25 -11 -36 -26 -11 -14 -22 -23 -25 -20 -3 2 -13
-3 -23 -12 -36 -33 -49 -42 -60 -42 -17 0 -60 -31 -55 -40 3 -4 -5 -10 -16
-13 -12 -3 -18 -10 -14 -16 3 -7 0 -8 -10 -5 -11 5 -14 2 -9 -10 4 -9 1 -16
-6 -16 -24 0 -110 -45 -115 -60 -6 -16 -107 -90 -124 -90 -6 0 -16 -9 -23 -20
-7 -11 -17 -20 -21 -20 -5 0 -36 -21 -70 -47 -34 -26 -68 -47 -77 -45 -8 1
-38 -15 -65 -36 -28 -21 -58 -41 -68 -45 -9 -3 -17 -11 -17 -17 0 -5 -6 -10
-13 -10 -8 0 -20 -11 -27 -25 -7 -14 -19 -25 -27 -25 -7 0 -13 -4 -13 -8 0 -5
-12 -15 -27 -23 -16 -8 -30 -16 -33 -19 -3 -3 -27 -17 -55 -32 -27 -15 -49
-32 -48 -37 2 -6 -3 -8 -10 -5 -7 2 -34 -16 -59 -41 -26 -25 -61 -51 -79 -57
-19 -6 -52 -25 -75 -42 -22 -17 -50 -37 -62 -45 -11 -8 -19 -17 -17 -21 2 -3
-17 -17 -43 -30 -26 -14 -60 -37 -76 -52 -16 -16 -35 -28 -42 -28 -7 0 -21
-14 -31 -30 -11 -20 -25 -30 -38 -29 -35 2 -39 -1 -21 -14 16 -12 16 -14 -7
-39 -15 -16 -29 -23 -37 -18 -8 5 -9 9 -1 11 6 3 7 9 2 18 -7 11 -26 5 -97
-30 -49 -24 -105 -53 -124 -65 -19 -12 -46 -25 -60 -29 -24 -8 -24 -7 5 17 46
38 94 70 108 72 29 4 510 319 827 541 74 52 185 129 245 171 61 41 169 118
240 170 72 52 170 122 218 156 49 35 103 75 120 89 18 14 59 44 92 67 33 23
85 60 115 82 52 39 148 108 194 140 108 77 348 253 424 311 26 20 72 53 102
74 30 21 73 53 95 72 22 19 83 64 135 101 52 36 163 118 245 182 83 64 175
133 205 154 69 45 161 118 157 122 -2 2 -59 -22 -128 -52 -68 -31 -144 -62
-169 -69 -25 -7 -117 -39 -205 -70 -88 -32 -203 -70 -255 -85 -52 -15 -108
-33 -125 -40 -16 -6 -82 -25 -145 -42 -63 -16 -131 -34 -150 -39 -36 -10 -134
-33 -205 -48 -22 -5 -110 -27 -195 -49 -85 -21 -186 -45 -225 -51 -38 -7 -131
-23 -205 -37 -213 -40 -630 -104 -675 -104 -23 0 -45 -4 -51 -10 -9 -9 -117
-25 -379 -55 -71 -8 -166 -20 -210 -25 -332 -40 -874 -82 -1400 -110 -219 -11
-984 -15 -1135 -6 -52 4 -207 13 -345 22 -441 26 -685 60 -975 134 -217 56
-394 150 -456 243 -70 106 -47 229 65 345 28 29 51 60 51 69 0 9 -16 69 -35
135 -23 76 -37 145 -40 194 -3 77 -11 94 -46 94 -8 0 -19 -4 -25 -9 -5 -4 -49
-14 -99 -21 -49 -7 -94 -15 -100 -19 -12 -8 -64 -15 -117 -15 -21 0 -38 -5
-38 -10 0 -5 -3 -6 -7 -3 -3 4 -17 0 -30 -8 -21 -14 -24 -14 -30 1 -3 9 -1 19
5 23 13 8 -32 26 -88 35 l-35 6 30 -14 30 -14 -35 -3 c-111 -7 -148 -5 -143 7
6 17 -16 29 -30 15 -8 -8 -7 -11 4 -11 12 0 12 -2 0 -9 -9 -6 -25 -5 -40 1
-17 6 -27 6 -29 -1 -2 -6 -10 -11 -18 -11 -9 0 -13 4 -10 9 3 4 -6 6 -19 3
-14 -2 -25 -8 -25 -13 0 -5 -9 -9 -20 -9 -11 0 -20 5 -20 10 0 20 -19 10 -22
-12 -4 -27 -21 -33 -41 -13 -21 21 -32 19 -49 -7 -13 -20 -18 -21 -40 -11 -33
15 -112 -3 -104 -23 6 -16 -29 -20 -39 -4 -3 6 -16 10 -28 10 -18 0 -19 -2 -7
-10 13 -9 13 -10 0 -11 -8 -1 -18 -1 -22 0 -11 1 -29 -37 -21 -42 5 -2 22 -3
38 -2 17 0 35 -3 41 -7 6 -5 24 -2 40 7 34 17 45 11 18 -11 -10 -8 -13 -13 -6
-9 6 3 12 1 12 -4 0 -13 -13 -14 -26 -2 -5 6 -24 4 -49 -6 -59 -22 -117 -32
-144 -26 -13 3 -26 1 -31 -7 -4 -6 -22 -13 -41 -15 -19 -2 -72 -11 -119 -19
-114 -20 -223 -36 -296 -42 -32 -2 -102 -11 -154 -19 -52 -8 -135 -17 -185
-20 -49 -3 -137 -9 -195 -12 -210 -15 -873 -8 -1075 10 -410 37 -713 94 -870
162 -181 79 -332 135 -360 135 -18 0 -60 -22 -117 -60 -48 -33 -91 -60 -95
-60 -5 0 -47 -28 -95 -63 -48 -34 -100 -69 -116 -78 -43 -24 -45 -60 -17 -268
37 -277 64 -493 91 -716 13 -110 30 -249 38 -310 8 -60 17 -139 21 -175 3 -36
14 -119 25 -185 10 -66 21 -140 24 -165 3 -25 14 -117 25 -205 55 -430 64
-537 55 -635 -4 -52 -8 -117 -7 -145 2 -68 51 -786 62 -910 6 -55 12 -140 16
-190 3 -49 10 -133 15 -185 5 -52 12 -138 15 -190 7 -116 8 -138 39 -525 22
-277 35 -480 51 -773 12 -241 25 -328 62 -417 24 -58 58 -91 132 -126 36 -17
86 -41 111 -53 25 -11 47 -24 50 -28 3 -3 28 -15 55 -26 28 -11 93 -40 145
-65 52 -25 138 -63 190 -86 52 -23 118 -53 145 -66 28 -13 73 -33 102 -44 28
-11 93 -40 145 -64 51 -24 109 -51 128 -59 19 -9 54 -24 78 -34 23 -10 42 -21
42 -25 0 -3 18 -9 39 -13 22 -3 41 -9 43 -13 4 -11 75 -43 93 -43 8 0 15 -4
15 -9 0 -5 13 -11 28 -14 16 -3 73 -27 128 -52 133 -62 204 -93 232 -100 12
-4 22 -11 22 -16 0 -5 7 -9 15 -9 8 0 55 -18 104 -40 49 -22 94 -40 100 -40 6
0 11 -4 11 -10 0 -5 12 -13 28 -16 15 -4 43 -15 62 -25 76 -38 156 -73 167
-72 7 0 13 -2 13 -6 0 -3 15 -12 33 -19 17 -8 55 -24 82 -37 116 -54 187 -85
196 -85 5 0 9 -4 9 -10 0 -5 11 -10 25 -10 14 0 25 -4 25 -10 0 -5 18 -14 40
-20 21 -6 42 -15 45 -20 3 -6 16 -10 29 -10 12 0 31 -6 41 -14 11 -8 25 -12
32 -9 7 3 13 0 13 -6 0 -7 13 -17 30 -22 16 -6 30 -14 30 -19 0 -4 8 -7 18 -7
30 0 85 -25 72 -33 -14 -9 55 -35 82 -32 9 2 19 -2 22 -7 4 -6 13 -8 21 -4 9
3 15 -1 15 -10 0 -10 7 -13 20 -10 11 3 26 -2 35 -11 9 -9 21 -14 26 -11 5 4
9 0 9 -8 0 -9 7 -13 18 -11 22 6 125 -30 130 -46 3 -8 8 -8 17 0 9 8 15 8 20
0 3 -5 0 -10 -7 -10 -7 0 35 -17 94 -37 59 -20 105 -39 103 -43 -3 -4 11 -11
30 -14 19 -4 78 -27 131 -52 53 -24 99 -42 102 -39 3 2 21 -4 41 -15 20 -10
52 -25 71 -33 19 -8 62 -26 95 -39 33 -14 75 -29 93 -32 18 -4 30 -12 26 -17
-3 -5 6 -9 19 -9 14 0 51 -12 83 -27 33 -15 77 -33 99 -39 41 -12 135 -51 263
-111 41 -19 83 -36 94 -38 42 -8 55 -13 213 -80 99 -42 184 -75 207 -81 16 -3
25 -10 22 -15 -3 -5 1 -6 9 -3 8 3 18 1 22 -5 3 -6 13 -11 21 -11 8 0 34 -9
56 -20 23 -11 47 -20 54 -20 6 0 17 -6 23 -14 7 -8 27 -18 44 -22 17 -3 38
-10 47 -14 8 -4 35 -16 60 -25 25 -10 61 -24 80 -32 19 -8 44 -18 55 -22 11
-5 54 -21 95 -36 41 -15 79 -32 85 -36 5 -5 17 -9 27 -9 10 0 41 -11 68 -25
27 -14 58 -25 70 -25 11 0 20 -4 20 -8 0 -5 19 -15 43 -21 23 -7 66 -24 95
-37 29 -13 57 -24 62 -24 5 0 33 -11 62 -24 68 -30 257 -108 328 -136 30 -11
64 -24 75 -29 11 -5 36 -16 57 -25 20 -9 89 -37 155 -62 127 -49 160 -63 238
-100 28 -12 64 -26 80 -30 17 -4 46 -15 65 -25 19 -10 67 -29 105 -44 39 -15
84 -33 102 -41 17 -8 34 -14 37 -14 6 0 156 -58 221 -85 17 -7 62 -25 100 -40
39 -15 84 -34 100 -41 17 -8 80 -31 140 -53 61 -22 141 -52 179 -66 114 -43
217 -67 296 -71 41 -2 109 -10 150 -18 135 -26 269 -31 336 -11 58 17 491 175
589 216 11 4 81 31 155 59 74 28 151 57 170 65 19 7 78 30 130 50 52 20 104
40 115 44 11 5 63 25 115 45 52 19 167 63 255 96 88 34 225 85 305 115 80 29
186 69 235 88 50 18 189 71 310 116 121 46 248 94 283 107 34 13 92 36 130 50
37 14 83 32 102 39 19 8 134 50 255 95 121 45 249 93 285 107 36 14 144 55
240 90 96 36 229 85 295 110 66 25 154 57 195 73 41 15 149 55 240 90 149 56
251 94 410 152 30 11 91 34 135 50 44 17 108 40 142 52 34 12 65 25 69 29 4 4
13 7 21 7 7 0 32 9 56 19 23 11 74 31 112 45 39 14 149 55 245 91 96 36 202
75 235 86 33 11 74 26 90 33 33 14 104 41 210 80 39 13 117 42 175 64 58 21
170 62 250 91 80 29 153 57 162 62 10 5 23 9 28 9 6 0 52 17 103 38 51 21 135
55 187 74 52 20 160 61 241 92 80 31 149 56 153 56 7 0 34 10 161 61 27 11
124 46 255 94 25 9 64 25 87 35 24 11 50 20 58 20 8 0 15 5 15 10 0 6 12 10
26 10 14 0 35 5 47 12 12 6 63 26 112 44 50 18 155 58 235 89 80 30 201 76
270 101 127 47 142 52 195 74 17 7 68 25 115 42 47 16 96 34 110 40 14 6 34
14 45 18 11 4 45 16 75 27 30 12 71 26 90 33 19 7 49 18 65 25 34 15 88 35
195 72 41 14 82 32 91 39 8 8 21 14 27 14 14 0 58 76 66 115 14 69 27 318 31
590 4 254 14 504 30 740 3 39 9 178 15 310 9 212 19 410 35 670 3 44 12 204
20 355 8 151 17 309 20 350 2 41 7 156 10 255 3 99 9 214 15 255 5 41 17 149
26 240 8 91 24 244 35 340 10 96 32 321 49 500 17 179 34 361 40 405 5 44 11
112 15 150 3 39 10 104 15 145 5 41 14 136 20 210 6 74 15 168 20 208 15 111
13 136 -13 160 -13 12 -28 22 -34 22 -11 0 -567 221 -728 289 -11 5 -45 19
-75 31 -30 11 -64 25 -75 29 -11 5 -47 20 -80 34 -33 14 -96 39 -140 57 -44
17 -89 36 -100 40 -99 42 -181 77 -300 125 -190 78 -225 94 -260 119 -16 13
-52 29 -80 36 -61 16 -224 84 -361 150 -97 46 -183 80 -205 80 -11 0 -301 111
-362 139 -23 11 -78 33 -122 51 -44 17 -93 38 -110 45 -16 8 -75 32 -130 55
-55 23 -125 54 -155 70 -30 16 -98 44 -150 63 -52 19 -111 41 -130 50 -19 8
-55 23 -80 33 -25 10 -63 25 -85 35 -22 9 -101 43 -175 74 -74 31 -153 65
-175 75 -22 10 -78 36 -125 58 -47 22 -129 61 -182 86 -125 60 -152 65 -198
34z m1800 -2536 c18 -16 40 -62 40 -83 0 -5 -8 -9 -18 -9 -10 0 -23 -5 -30
-12 -6 -6 -44 -12 -86 -13 -52 -1 -83 -7 -101 -19 -31 -20 -33 -19 -45 23 -6
20 -5 31 2 31 5 0 30 18 55 40 51 44 93 53 93 20 0 -11 5 -20 11 -20 6 0 8 8
5 18 -5 13 1 22 16 30 32 15 36 14 58 -6z m-14705 -8 c25 -10 45 -58 60 -142
7 -43 25 -129 39 -192 61 -270 79 -358 81 -402 3 -41 1 -48 -15 -48 -11 0 -38
18 -62 41 -95 90 -197 181 -273 241 -90 72 -105 94 -105 159 0 152 78 306 171
336 40 13 81 15 104 7z m340 -43 c125 -59 232 -162 310 -298 45 -79 50 -94 50
-148 0 -64 -20 -126 -39 -122 -6 1 -10 -3 -9 -10 2 -7 -17 -29 -42 -50 -25
-20 -45 -41 -45 -46 0 -15 -44 -46 -65 -47 -20 -1 -20 -1 0 -9 16 -7 13 -9
-18 -15 -22 -4 -37 -13 -37 -21 0 -17 -5 -18 -29 -6 -26 15 -79 150 -105 271
-2 14 -12 54 -21 90 -8 36 -17 74 -20 85 -3 11 -16 70 -30 130 -15 61 -29 131
-32 157 -5 43 -3 49 18 57 37 15 50 13 114 -18z m13713 -167 c132 -27 192 -78
192 -163 0 -23 9 -67 20 -98 14 -40 20 -83 20 -144 0 -98 -14 -141 -66 -205
-19 -22 -34 -48 -34 -57 0 -9 -32 -144 -71 -299 -38 -156 -92 -372 -120 -481
-55 -223 -77 -275 -144 -336 -143 -132 -357 -131 -458 3 -59 77 -58 61 -57
625 l1 518 -25 38 c-20 29 -26 50 -26 92 0 75 34 189 74 248 18 27 37 64 41
80 11 47 90 117 165 144 132 48 349 64 488 35z m-14683 -148 c86 -22 251 -118
385 -221 168 -130 337 -317 361 -398 10 -36 2 -90 -12 -81 -5 3 -12 -2 -15
-10 -8 -20 -75 -54 -123 -62 -26 -4 -48 -1 -72 11 -40 21 -111 74 -122 92 -4
7 -15 13 -22 13 -8 0 -15 4 -15 8 0 4 -35 37 -77 72 -43 36 -162 149 -265 252
-149 149 -189 195 -199 228 -28 93 43 132 176 96z m13817 -53 c21 -19 40 -83
40 -133 -1 -88 -77 -211 -137 -222 -61 -12 -125 61 -125 143 0 50 29 141 51
162 10 10 19 22 19 27 0 5 17 19 38 30 41 22 85 20 114 -7z m1371 -64 c35 -73
-15 -170 -95 -184 -57 -11 -78 17 -78 101 0 59 3 68 30 95 26 26 36 30 77 27
44 -3 49 -6 66 -39z m-15311 -159 c18 -21 56 -63 83 -95 28 -32 137 -145 243
-252 108 -110 192 -202 192 -212 0 -30 -25 -43 -105 -52 -41 -4 -92 -13 -112
-18 -21 -6 -48 -11 -60 -11 -21 0 -93 61 -93 79 0 5 -4 11 -8 13 -7 3 -38 51
-91 142 -102 177 -170 382 -142 434 15 29 54 17 93 -28z m15271 -59 c33 -13
51 -60 42 -113 -10 -61 -74 -123 -119 -114 -46 9 -66 39 -66 100 0 99 65 157
143 127z m391 -253 c-9 -29 -25 -40 -40 -27 -9 7 -15 6 -21 -4 -4 -8 -27 -24
-50 -36 -32 -16 -52 -19 -87 -15 -33 5 -46 3 -46 -5 0 -7 -4 -10 -9 -6 -6 3
-27 3 -49 -1 -34 -5 -42 -12 -60 -50 -13 -25 -34 -50 -52 -59 -38 -20 -38 -31
0 -38 58 -12 78 -81 44 -152 -20 -43 -48 -64 -97 -72 -53 -8 -77 21 -77 95 1
65 14 95 55 122 l30 19 -31 11 c-36 13 -54 45 -54 96 0 78 47 134 114 134 27
0 41 -8 66 -36 23 -27 34 -34 43 -25 6 6 40 11 76 11 41 0 70 5 80 14 19 17
105 44 144 45 25 1 28 -2 21 -21z m-10741 -47 c9 -9 25 -83 82 -386 20 -104
42 -219 50 -255 85 -396 85 -395 -12 -239 -86 138 -141 213 -238 330 l-73 87
-7 98 c-13 191 29 335 109 370 30 13 73 11 89 -5z m243 -57 c201 -120 400
-475 459 -818 17 -99 20 -297 6 -372 -27 -141 -87 -230 -177 -264 -31 -11 -64
-18 -74 -15 -22 7 -27 29 -86 320 -25 127 -77 383 -115 570 -38 187 -79 392
-90 455 -11 63 -23 125 -26 138 -8 34 32 29 103 -14z m7076 -68 c13 -20 8 -84
-7 -100 -9 -9 -34 -20 -55 -26 -22 -5 -57 -14 -78 -20 -22 -5 -63 -14 -92 -20
-29 -6 -70 -15 -92 -20 l-38 -11 0 -175 c0 -142 3 -176 14 -180 8 -3 71 8 141
25 159 39 192 40 201 6 3 -14 3 -41 0 -59 -8 -42 -31 -52 -211 -92 -66 -15
-126 -32 -134 -38 -11 -9 -13 -44 -9 -184 3 -95 8 -175 11 -178 2 -3 75 13
161 36 185 47 196 46 196 -28 0 -26 -4 -53 -9 -60 -9 -15 -386 -112 -435 -112
-26 0 -35 5 -40 23 -10 38 -7 1097 4 1117 7 13 46 26 147 50 76 18 170 40 208
50 70 18 104 17 117 -4z m-565 -119 c6 -4 8 -16 5 -30 -6 -20 -188 -375 -268
-524 -19 -34 -34 -67 -34 -74 0 -6 29 -52 64 -103 136 -195 256 -378 256 -391
0 -18 -19 -31 -65 -44 -30 -8 -44 -8 -59 2 -11 8 -74 94 -140 192 -67 98 -126
180 -133 182 -6 3 -30 -32 -52 -78 l-41 -82 0 -152 c0 -170 -1 -173 -68 -182
-30 -4 -40 -1 -45 11 -3 8 -9 267 -13 574 l-7 559 24 16 c30 22 85 22 93 1 3
-9 6 -100 7 -202 1 -103 4 -225 8 -272 l6 -85 49 95 c27 52 74 145 106 205 31
61 85 164 120 230 72 139 77 145 121 154 39 9 49 8 66 -2z m-7146 -155 c52
-34 138 -124 241 -254 72 -90 188 -253 188 -263 0 -3 12 -24 27 -48 48 -76
102 -186 139 -285 31 -82 38 -113 42 -198 3 -62 1 -104 -5 -107 -11 -7 -66 44
-123 113 -19 23 -43 52 -54 64 -10 11 -30 37 -45 56 -14 19 -44 57 -66 85 -43
53 -195 279 -195 289 0 3 -15 30 -34 59 -54 84 -204 395 -211 437 -8 44 7 80
33 80 10 0 38 -13 63 -28z m11100 -42 c14 0 10 -13 -11 -38 -12 -15 -34 -25
-57 -28 -21 -2 -80 -16 -130 -30 -51 -15 -99 -24 -107 -21 -10 4 -22 -8 -36
-37 -27 -57 -50 -77 -97 -83 -32 -4 -42 -1 -62 21 -21 22 -23 32 -19 87 4 54
8 66 36 90 25 23 42 29 76 29 27 0 48 -6 56 -15 17 -20 91 -17 153 6 27 10 54
16 60 13 7 -2 32 0 57 5 25 5 51 7 58 5 8 -2 18 -4 23 -4z m-4992 -58 c6 -11
50 -129 100 -263 89 -243 196 -533 252 -683 16 -43 27 -87 24 -97 -5 -16 -59
-39 -92 -39 -21 0 -40 39 -93 191 -59 168 -50 159 -154 135 -34 -8 -112 -27
-174 -42 -62 -14 -115 -30 -117 -35 -3 -4 -24 -70 -46 -146 -79 -270 -74 -259
-125 -272 -76 -19 -77 -12 -33 139 16 58 45 157 64 220 68 234 87 296 106 360
11 36 41 135 65 220 73 254 92 306 117 318 37 18 95 14 106 -6z m-511 -150 c3
-51 2 -53 -30 -66 -18 -7 -62 -19 -98 -26 -36 -7 -68 -16 -71 -19 -4 -3 -3
-240 2 -525 6 -328 6 -523 0 -529 -5 -5 -29 -12 -54 -14 -38 -5 -46 -2 -50 13
-3 11 -8 201 -12 424 -5 389 -12 590 -21 599 -2 3 -45 -3 -95 -13 -50 -10 -93
-16 -95 -13 -3 2 -7 26 -10 53 -5 36 -2 53 7 60 8 6 82 26 164 43 83 18 184
41 225 51 41 11 89 18 105 17 29 -2 30 -4 33 -55z m-3943 -59 c60 -15 172 -68
211 -101 11 -10 28 -29 38 -44 l17 -27 -103 -76 c-57 -42 -110 -81 -118 -88
-8 -7 -62 -48 -120 -91 -58 -44 -127 -99 -155 -121 -50 -42 -155 -115 -165
-115 -3 0 -6 98 -6 218 -1 183 -4 231 -22 307 -24 103 -23 104 55 129 112 37
245 40 368 9z m-1530 -343 c66 -105 120 -189 155 -240 46 -68 71 -116 64 -123
-3 -3 -25 1 -47 9 -23 8 -60 14 -82 14 -22 -1 -46 -1 -52 -1 -24 2 -65 107
-142 366 -43 141 -53 183 -58 240 -4 49 -3 48 65 -85 37 -74 81 -155 97 -180z
m2966 180 c5 0 9 -7 9 -15 0 -8 -5 -15 -11 -15 -7 0 -8 -41 -5 -127 7 -145 23
-1214 31 -2008 3 -291 7 -701 10 -910 3 -209 7 -573 10 -810 3 -236 7 -558 10
-715 2 -157 7 -530 11 -830 3 -300 10 -617 13 -705 4 -88 8 -284 9 -435 0
-151 6 -308 12 -348 12 -72 9 -102 -8 -102 -29 0 -47 208 -58 630 -15 635 -20
1037 -22 1765 -1 424 -5 865 -7 980 -3 116 -10 638 -15 1160 -9 814 -25 1986
-32 2348 -3 104 -3 107 -25 107 -13 0 -23 4 -23 9 0 12 51 31 68 25 8 -2 18
-4 23 -4z m7803 -270 c9 7 19 10 23 6 3 -3 2 -6 -4 -6 -6 0 -10 -21 -8 -52 2
-50 0 -54 -33 -76 -20 -13 -44 -21 -54 -19 -10 3 -20 1 -23 -4 -3 -4 -12 -6
-21 -2 -8 3 -40 -2 -70 -12 -59 -19 -69 -15 -79 26 -6 23 -2 30 24 45 17 10
31 22 31 26 0 12 56 38 82 38 13 0 36 9 52 19 23 15 33 17 47 8 13 -8 21 -8
33 3z m-2623 -70 c25 -14 24 -40 -5 -130 -13 -41 -59 -190 -101 -330 l-78
-255 1 -165 c1 -106 -3 -177 -11 -200 -11 -31 -18 -36 -87 -57 -41 -13 -85
-23 -98 -23 -40 0 -50 46 -50 230 l0 165 -72 190 c-156 406 -151 392 -122 418
28 26 188 64 210 51 10 -7 32 -61 57 -142 22 -73 43 -132 46 -132 8 0 8 3 50
165 44 177 43 175 159 206 81 21 77 21 101 9z m-854 -228 c11 -7 20 -30 87
-242 21 -63 59 -182 86 -265 140 -435 144 -451 117 -473 -16 -13 -158 -52
-191 -52 -30 0 -42 15 -58 73 -6 26 -17 47 -23 47 -22 0 -199 -51 -211 -61 -7
-5 -20 -39 -30 -75 -11 -42 -25 -71 -38 -79 -12 -7 -60 -24 -109 -36 -81 -21
-88 -22 -104 -7 -18 19 -19 14 39 218 17 58 50 182 75 275 25 94 63 235 84
315 21 80 48 181 60 225 11 44 28 88 37 98 28 32 149 58 179 39z m2759 -115
c17 -9 36 -23 43 -31 16 -19 35 -147 35 -241 1 -62 -3 -76 -30 -120 -18 -28
-35 -68 -39 -90 -4 -22 -27 -123 -51 -225 -99 -409 -89 -381 -150 -443 -62
-63 -107 -81 -200 -82 -72 0 -84 3 -116 27 -69 53 -70 61 -67 422 3 293 2 325
-14 349 -28 43 -18 120 28 221 14 31 28 69 31 86 19 92 185 152 404 146 63 -2
105 -8 126 -19z m919 10 c33 -25 -7 -52 -115 -76 -30 -7 -62 -15 -70 -19 -8
-3 -20 -6 -26 -7 -6 0 -19 -8 -28 -18 -20 -19 -66 -23 -83 -6 -15 15 -29 5
-49 -36 -29 -61 -113 -95 -158 -62 -24 17 -32 89 -16 138 15 44 61 79 103 79
22 0 80 -37 99 -64 4 -6 15 -6 30 2 13 7 46 17 73 22 28 5 82 21 120 34 83 29
95 30 120 13z m-4126 -6 c10 -6 12 -22 8 -57 -12 -105 -182 -1037 -192 -1054
-9 -14 -131 -50 -170 -50 -35 0 -45 16 -59 95 -30 171 -79 412 -86 418 -4 5
-15 -43 -25 -105 -48 -314 -75 -462 -87 -473 -21 -20 -180 -55 -195 -44 -18
15 -21 30 -134 542 -72 326 -99 471 -92 478 15 15 195 60 215 53 9 -2 19 -15
22 -27 6 -27 86 -469 86 -479 0 -5 4 -8 8 -8 10 0 22 62 62 330 17 113 35 215
40 227 6 14 26 26 63 37 80 23 116 21 126 -7 5 -13 28 -124 51 -248 23 -123
44 -226 46 -228 10 -11 17 18 34 146 42 308 55 387 70 405 8 11 47 27 85 38
81 21 104 23 124 11z m2424 -243 c28 -15 67 -85 67 -122 0 -46 -32 -147 -59
-184 -32 -46 -82 -73 -119 -66 -43 9 -69 41 -79 99 -16 89 17 189 81 246 40
37 75 45 109 27z m1307 -27 c33 -23 77 -34 82 -20 4 11 101 21 129 13 20 -6
14 -44 -6 -44 -7 0 -15 -5 -17 -11 -2 -7 -24 -14 -48 -16 -25 -2 -49 -9 -54
-14 -6 -5 -22 -9 -36 -9 -19 0 -29 -8 -39 -32 -8 -18 -26 -43 -40 -56 -25 -23
-25 -24 -6 -38 36 -25 45 -34 51 -58 8 -35 -13 -101 -41 -128 -30 -28 -32 -45
-5 -53 11 -3 20 -11 20 -16 0 -17 52 -31 75 -20 24 12 72 8 87 -7 14 -14 -7
-42 -33 -42 -10 0 -21 -5 -24 -10 -4 -6 -10 -8 -15 -5 -5 3 -11 1 -15 -5 -3
-5 -17 -10 -29 -10 -16 0 -32 -13 -50 -41 -47 -70 -127 -87 -162 -34 -22 34
-14 116 15 155 21 30 28 60 13 60 -14 0 -32 49 -32 88 0 37 29 97 58 118 13 9
12 13 -5 25 -65 46 -56 167 16 214 40 26 70 24 111 -4z m-5098 -85 c4 -6 21
-49 37 -96 16 -47 48 -137 71 -200 22 -63 47 -133 54 -155 8 -22 42 -119 76
-215 98 -276 105 -299 89 -315 -22 -21 -209 -66 -230 -55 -9 5 -22 33 -29 61
-7 28 -19 53 -26 56 -8 3 -69 -8 -136 -24 l-122 -28 -14 -50 c-36 -128 -24
-117 -150 -149 -83 -21 -116 -26 -124 -18 -8 8 31 165 145 583 86 315 160 576
165 581 15 15 145 47 167 41 11 -3 23 -11 27 -17z m2722 -978 c-4 -35 -11 -69
-17 -76 -20 -25 -72 -46 -130 -52 -56 -6 -58 -5 -63 20 -9 42 -13 50 -24 50
-9 0 -11 -8 -10 -35 1 -15 -33 -66 -49 -75 -33 -17 -69 -12 -76 11 -6 17 -9
19 -16 8 -5 -8 -9 -9 -9 -4 -1 6 -5 0 -11 -13 -10 -26 -26 -21 -39 12 -8 21
-8 21 -15 1 -16 -50 -33 -72 -75 -92 -31 -16 -55 -21 -78 -17 -26 4 -39 -1
-63 -20 -36 -30 -55 -32 -81 -9 -35 31 -14 128 33 153 11 6 33 8 50 5 23 -5
36 -1 60 19 17 14 36 26 42 27 29 2 65 10 99 24 20 8 60 17 89 21 34 5 59 14
69 27 13 16 28 19 93 18 42 0 77 4 77 9 0 13 34 30 83 40 72 14 69 16 61 -52z
m3458 12 c19 -40 9 -107 -23 -154 -19 -29 -30 -36 -54 -35 -34 2 -85 -16 -85
-29 0 -5 -21 -3 -47 3 -43 11 -51 10 -74 -6 -15 -10 -32 -32 -39 -49 -7 -16
-17 -27 -22 -24 -6 4 -5 10 3 16 22 14 -71 -1 -109 -18 -27 -13 -31 -18 -21
-30 13 -16 81 -12 87 6 2 5 18 10 35 10 18 0 47 9 65 20 18 11 38 20 45 20 7
0 19 6 25 12 7 7 37 13 66 13 42 0 61 6 95 29 40 28 98 45 86 25 -4 -5 -1 -9
6 -9 14 0 133 38 176 56 17 8 36 14 43 14 6 0 23 9 37 20 16 12 41 20 64 20
33 0 41 -5 54 -31 15 -28 15 -33 -2 -67 -19 -39 -86 -81 -131 -82 -12 0 -49
-11 -82 -25 -33 -14 -67 -25 -77 -25 -10 0 -27 -7 -37 -15 -11 -8 -30 -15 -43
-15 -13 0 -23 -4 -23 -8 0 -10 -90 -32 -133 -32 -35 0 -97 -20 -97 -32 0 -24
-265 -118 -332 -118 -16 0 -48 -9 -71 -21 -45 -23 -94 -37 -142 -43 -17 -2
-46 -13 -65 -25 -19 -11 -48 -21 -63 -21 -15 0 -42 -7 -60 -17 -37 -19 -86
-32 -139 -38 -21 -3 -48 -11 -61 -20 -57 -37 -93 61 -46 126 12 17 28 29 38
27 18 -3 91 30 102 46 4 5 23 6 43 2 38 -7 71 7 113 50 12 12 47 30 77 39 31
10 56 22 56 26 0 5 -3 9 -7 9 -5 0 -23 13 -40 29 -47 41 -46 90 1 137 19 19
43 35 55 35 29 2 29 2 92 26 31 12 69 21 85 21 16 0 49 11 74 26 25 14 54 26
64 26 11 0 27 7 37 15 10 10 45 18 88 22 60 5 77 11 104 34 18 16 39 29 47 29
8 0 33 7 55 15 65 23 90 19 107 -15z m-4316 -198 c29 -19 35 -51 18 -102 -22
-68 -65 -90 -105 -54 -16 15 -19 14 -36 -5 -9 -12 -25 -21 -34 -21 -9 0 -22
-7 -29 -16 -23 -27 -47 -35 -74 -24 -17 6 -27 6 -31 -1 -4 -5 -15 -7 -25 -4
-10 3 -21 1 -25 -5 -4 -6 -17 -10 -28 -8 -13 1 -33 -9 -49 -25 -32 -32 -71
-35 -91 -7 -15 22 -27 15 -40 -22 -4 -11 -12 -15 -22 -12 -9 4 -26 -2 -38 -13
-12 -10 -34 -24 -49 -31 -16 -6 -28 -18 -28 -27 0 -8 -6 -15 -14 -15 -18 0
-29 63 -24 135 3 44 7 51 36 68 19 11 48 19 65 19 18 -1 47 6 65 14 18 8 38
14 44 12 7 -3 20 4 30 14 11 11 33 18 53 18 25 0 38 5 42 18 11 32 36 52 66
52 22 0 28 -4 23 -15 -8 -23 19 -29 46 -11 12 9 35 16 51 16 15 0 42 7 58 16
17 8 37 13 43 11 7 -3 26 3 42 14 31 20 43 23 60 11z m662 -95 c26 -20 1 -117
-37 -144 -19 -13 -26 -13 -48 -2 -19 10 -28 10 -41 1 -40 -28 -149 -73 -172
-70 -78 9 -44 145 42 169 24 6 49 16 56 22 7 6 36 12 63 13 28 1 60 9 72 17
22 14 41 13 65 -6z m2718 -14 c3 -16 7 -33 9 -40 2 -6 -3 -19 -10 -30 -8 -10
-15 -25 -15 -35 0 -17 -69 -78 -88 -78 -6 0 -12 -5 -14 -12 -6 -17 -100 -11
-114 7 -6 8 -14 41 -18 72 -8 73 12 98 75 96 29 -2 52 5 78 22 50 35 89 33 97
-2z m-3115 -128 c0 -37 -3 -75 -6 -84 -8 -25 -97 -65 -128 -57 -67 16 -33 154
42 171 16 3 39 17 52 31 31 33 41 19 40 -61z m2336 71 c106 -28 187 -102 251
-227 23 -46 42 -90 42 -97 0 -7 5 -23 11 -34 18 -34 17 -106 -2 -111 -11 -3
-15 1 -12 17 3 13 -4 29 -16 40 -12 11 -21 29 -21 41 0 26 -71 152 -97 175
-10 8 -28 28 -41 44 -12 16 -22 26 -22 22 0 -3 -17 5 -39 18 -137 87 -371 28
-530 -135 -74 -75 -122 -138 -151 -196 -19 -37 -47 -86 -61 -108 -14 -22 -28
-49 -32 -60 -3 -11 -22 -64 -41 -119 -20 -54 -36 -117 -36 -140 0 -23 -4 -46
-10 -52 -5 -5 -12 -84 -14 -174 -5 -142 -3 -175 14 -238 51 -192 132 -308 255
-367 52 -25 72 -29 150 -29 84 0 95 3 167 38 43 20 84 43 90 49 7 7 31 25 52
41 21 16 51 42 66 58 33 34 45 36 28 6 -15 -26 -108 -118 -120 -118 -4 0 -8
-6 -8 -14 0 -8 -10 -18 -22 -22 -20 -6 -30 -13 -61 -40 -7 -6 -18 -9 -26 -6
-7 2 -16 -1 -20 -7 -4 -6 -33 -19 -65 -30 -63 -21 -204 -23 -228 -4 -7 6 -24
14 -37 18 -22 7 -87 59 -115 93 -6 7 -18 22 -28 32 -29 33 -98 180 -104 223
-2 23 -9 44 -15 48 -7 4 -9 42 -7 102 3 61 1 100 -6 107 -8 8 -7 13 3 19 10 7
10 13 2 29 -6 11 -9 27 -6 34 3 8 8 29 10 48 19 143 60 325 79 355 9 14 16 32
16 42 0 10 9 33 20 51 11 18 20 41 20 52 0 11 4 20 8 20 4 0 14 16 21 35 7 19
16 35 21 35 4 0 16 23 26 52 11 30 26 53 37 56 9 2 17 13 17 23 0 11 7 19 15
19 8 0 15 7 15 15 0 8 12 27 28 43 15 17 47 51 71 76 24 26 59 54 77 62 19 9
34 20 34 25 0 5 5 9 10 9 6 0 30 10 53 21 89 45 197 58 284 35z m-3393 -75 c9
-10 17 -27 17 -37 -1 -78 -42 -130 -93 -120 -20 4 -39 -2 -65 -20 -27 -18 -44
-23 -65 -19 -25 6 -29 4 -34 -24 -8 -38 -23 -50 -36 -27 -6 10 -22 16 -47 16
-23 0 -44 6 -51 15 -16 19 -15 77 1 107 24 45 40 53 108 53 l65 0 0 -35 c1
-24 6 -36 18 -38 13 -2 18 8 25 50 7 47 11 53 35 56 14 2 34 12 44 23 22 24
56 24 78 0z m793 2 c3 -10 15 -28 26 -40 18 -20 19 -26 7 -70 -14 -50 -44 -93
-67 -93 -7 0 -22 6 -33 12 -16 10 -24 10 -42 -2 -13 -8 -47 -27 -76 -42 -45
-23 -57 -25 -78 -16 -21 10 -28 8 -52 -15 -33 -32 -77 -36 -92 -8 -38 71 36
185 98 152 27 -14 25 -15 60 19 18 17 42 30 55 30 13 0 34 13 49 30 31 35 56
38 66 9 7 -19 9 -19 21 -5 8 9 10 16 6 16 -5 0 0 9 10 20 22 25 34 25 42 3z
m-10183 -25 c8 -13 17 -61 21 -108 3 -47 9 -93 11 -102 7 -22 32 -23 54 -3 30
27 85 30 125 6 20 -11 42 -21 49 -21 7 0 35 -11 62 -25 43 -22 132 -50 215
-69 14 -3 40 -19 57 -36 27 -26 39 -30 86 -30 69 0 100 -24 138 -107 l28 -63
30 22 c17 12 30 25 30 29 0 4 14 12 32 18 27 10 39 8 83 -13 27 -13 65 -29 83
-35 18 -6 45 -19 60 -29 15 -11 40 -20 56 -20 37 1 61 -28 70 -81 7 -48 19
-50 66 -11 41 36 81 39 130 9 41 -25 51 -37 91 -106 17 -29 37 -53 43 -53 7 0
25 11 40 25 47 44 77 42 166 -10 14 -8 37 -15 53 -15 20 0 32 -8 46 -30 15
-25 19 -61 24 -225 4 -107 4 -202 1 -210 -9 -21 -44 -19 -70 6 -12 12 -39 22
-65 24 -55 5 -84 27 -132 99 -21 31 -45 60 -53 63 -8 3 -30 -9 -50 -27 -33
-28 -42 -31 -77 -26 -54 9 -74 25 -127 97 -25 34 -50 64 -55 66 -6 2 -16 -10
-22 -27 -14 -38 -53 -41 -80 -6 -15 18 -26 22 -50 19 -23 -4 -40 1 -59 16 -15
12 -38 21 -52 21 -39 0 -105 36 -124 67 -9 16 -25 38 -35 50 -10 12 -23 30
-30 40 -11 17 -11 17 -18 -2 -13 -38 -22 -50 -43 -53 -33 -5 -45 33 -53 168
-7 130 -19 175 -50 183 -39 10 -50 -23 -52 -154 l-2 -124 -25 0 c-37 0 -47 31
-55 175 -6 107 -10 131 -26 149 -24 26 -54 27 -64 4 -4 -10 -6 -64 -5 -120 0
-57 -4 -112 -10 -123 -13 -23 -48 -27 -56 -5 -4 9 -19 15 -41 15 -19 0 -46 6
-61 14 -15 7 -50 19 -78 25 -57 14 -84 35 -134 109 -19 29 -39 52 -44 52 -4 0
-24 -13 -43 -30 -47 -41 -100 -42 -141 -1 -59 59 -89 171 -48 179 10 2 33 -4
52 -14 56 -30 59 -19 56 187 -2 99 0 184 3 189 11 18 54 11 69 -12z m14558
-72 c21 -5 28 -14 33 -39 13 -77 -26 -121 -142 -157 -36 -11 -79 -26 -96 -34
-61 -27 -253 -88 -337 -107 -46 -11 -98 -28 -115 -38 -16 -10 -46 -24 -65 -31
-19 -8 -51 -24 -70 -35 -19 -12 -53 -23 -75 -24 -22 -1 -59 -8 -83 -16 -23 -8
-53 -15 -65 -15 -12 0 -51 -14 -85 -31 -44 -21 -79 -31 -119 -32 l-57 -2 -18
47 c-14 38 -15 53 -6 79 22 64 42 76 133 84 51 4 96 14 117 25 67 37 114 57
151 63 21 3 58 15 81 27 23 11 51 20 62 20 11 0 44 9 74 20 30 11 75 25 100
31 25 6 63 18 85 28 92 42 117 51 141 51 13 0 41 7 61 15 19 8 52 15 72 15 34
0 50 6 136 53 17 9 37 15 45 13 8 -2 27 -7 42 -10z m-1815 -16 c3 -11 9 -17
14 -14 5 3 12 -2 15 -11 6 -14 10 -13 31 9 23 26 25 26 48 9 14 -10 28 -28 31
-39 8 -29 -31 -104 -54 -104 -25 0 -62 28 -62 47 0 12 -7 14 -29 10 -26 -5
-31 -3 -40 24 -8 24 -7 37 4 60 18 34 35 37 42 9z m-3800 -16 c3 -9 0 -20 -8
-24 -11 -7 -10 -13 5 -29 21 -23 16 -59 -10 -85 -18 -18 -32 -20 -53 -7 -11 7
-24 2 -45 -16 -24 -20 -37 -24 -65 -19 -20 3 -41 0 -48 -6 -25 -21 -34 6 -31
98 3 75 6 89 21 92 12 3 17 -3 17 -22 0 -32 13 -33 41 -5 17 17 29 20 59 15
27 -4 41 -2 50 9 16 20 59 19 67 -1z m3541 -38 c16 -57 6 -79 -49 -103 -27
-12 -49 -28 -49 -35 -1 -17 -35 -58 -49 -58 -6 0 -19 15 -27 34 -24 50 -9 85
50 116 27 15 55 38 62 53 21 39 51 35 62 -7z m-2790 -18 c17 -22 24 -59 17
-94 -7 -38 -34 -47 -37 -11 0 12 -2 27 -3 32 -2 6 -3 16 -4 23 0 6 -7 12 -15
12 -15 0 -32 -53 -22 -68 8 -13 -24 -54 -39 -48 -7 2 -23 -7 -36 -21 -20 -20
-31 -24 -61 -20 -27 4 -41 0 -53 -13 -23 -26 -69 -34 -95 -18 -19 12 -23 10
-41 -14 -23 -32 -81 -47 -104 -28 -22 18 -22 178 0 186 8 4 22 1 30 -6 10 -9
35 -11 75 -7 l59 5 8 -41 c12 -57 26 -53 37 11 8 45 13 53 35 59 14 3 38 15
53 26 16 12 35 18 50 14 13 -3 36 3 53 13 35 22 78 25 93 8z m-1204 -29 l6
-31 31 26 c34 29 42 31 70 15 32 -17 39 -50 22 -103 -20 -60 -52 -84 -91 -67
-21 10 -28 10 -37 -1 -16 -20 -77 -44 -103 -40 -14 2 -29 16 -39 37 -24 51 -2
103 54 130 23 11 42 27 43 36 1 40 36 39 44 -2z m-214 -100 c0 -10 -7 -19 -15
-19 -22 0 -18 -17 5 -23 15 -4 20 -14 20 -40 0 -46 -28 -71 -70 -62 -25 5 -36
3 -51 -14 -42 -45 -109 -12 -109 55 0 21 -4 33 -10 29 -5 -3 -10 -30 -10 -60
0 -57 -11 -75 -35 -55 -11 10 -19 6 -38 -15 -44 -51 -117 -23 -117 45 0 45 40
94 79 98 18 2 38 -1 44 -7 7 -7 18 -2 34 15 17 18 31 24 45 21 13 -4 33 2 51
15 26 18 34 20 61 10 40 -15 47 -15 44 0 -4 14 40 38 58 31 8 -3 14 -14 14
-24z m848 -61 c17 -44 9 -108 -13 -108 -8 0 -16 10 -16 23 -1 12 -3 29 -4 37
-1 8 -3 21 -4 28 -2 17 -28 15 -35 -4 -3 -9 -6 -36 -6 -60 0 -34 -4 -46 -17
-50 -10 -4 -35 -14 -57 -24 -63 -30 -96 -6 -96 71 0 27 6 51 13 58 19 15 27 4
27 -41 0 -26 5 -41 16 -45 22 -8 34 14 34 64 0 41 2 43 53 68 67 33 88 29 105
-17z m-6350 -11 c6 -7 14 -93 18 -192 10 -265 10 -318 -1 -322 -6 -2 -26 25
-44 59 -19 35 -57 96 -84 135 l-51 73 13 66 c25 136 106 234 149 181z m4958
-12 c27 -27 44 -34 24 -10 -13 16 -4 38 13 32 6 -2 12 -43 15 -100 4 -94 3
-97 -17 -97 -12 0 -34 -9 -50 -20 -22 -17 -32 -19 -54 -11 -18 7 -27 18 -27
32 0 19 4 20 35 15 32 -6 35 -5 35 17 0 17 -9 27 -32 38 -27 12 -34 20 -36 50
-3 30 2 41 24 58 34 27 40 26 70 -4z m944 -40 c0 -30 14 -32 42 -5 41 38 98
16 98 -38 0 -17 -4 -33 -10 -37 -5 -3 -7 -12 -3 -21 7 -19 -34 -64 -59 -64
-11 0 -28 5 -39 10 -15 9 -21 7 -25 -5 -7 -16 -65 -45 -92 -45 -76 0 -64 155
13 174 15 4 30 17 35 31 13 33 40 33 40 0z m-5734 -27 c53 -58 87 -139 125
-293 30 -120 32 -327 5 -427 -23 -84 -73 -148 -116 -148 -36 0 -38 5 -45 165
-3 72 -8 180 -10 240 -3 61 -7 148 -10 195 -10 156 -14 298 -8 304 8 8 34 -8
59 -36z m9627 1 c-1 -19 -5 -57 -8 -85 -6 -44 -4 -53 12 -65 33 -24 66 -116
59 -166 -6 -53 -23 -78 -41 -63 -7 6 -25 38 -40 71 -16 37 -35 63 -46 66 -36
10 -37 103 -3 181 9 20 22 52 30 70 18 42 40 37 37 -9z m-4098 -71 c-4 -13
-10 -46 -14 -75 -4 -29 -9 -54 -12 -57 -12 -12 -103 -46 -124 -46 -29 0 -55
24 -55 51 0 10 -4 19 -10 19 -5 0 -10 -21 -10 -46 0 -38 -3 -45 -17 -42 -14 2
-19 17 -24 58 l-6 55 -2 -45 c-2 -69 -10 -85 -45 -98 -71 -26 -87 -11 -95 88
-3 35 -20 -10 -23 -60 -2 -41 -7 -55 -18 -55 -11 0 -16 14 -18 53 -4 70 -20
66 -24 -5 -3 -53 -5 -58 -26 -58 -13 0 -30 -9 -38 -20 -10 -13 -29 -19 -63
-22 -27 -1 -66 -12 -86 -23 -72 -41 -121 -19 -119 54 1 54 29 91 75 101 22 5
29 12 29 31 0 13 4 24 9 24 5 0 23 3 40 6 24 5 31 3 31 -10 0 -9 -7 -16 -15
-16 -8 0 -15 -4 -15 -10 0 -16 46 -12 60 5 7 8 25 15 41 15 22 0 30 6 35 25 7
26 38 50 53 40 5 -3 7 -14 4 -25 -5 -17 -2 -18 28 -10 68 20 78 15 81 -37 3
-40 6 -48 23 -48 17 0 21 8 25 58 4 49 9 60 30 70 14 7 26 23 28 35 5 30 36
28 50 -3 13 -28 27 -32 39 -11 12 20 48 36 85 36 18 0 40 5 48 10 8 5 23 10
34 10 15 0 17 -5 11 -22z m932 -25 c-5 -25 14 -69 37 -85 6 -4 8 -8 6 -10 -3
-2 -24 -13 -48 -26 -36 -19 -46 -21 -59 -11 -12 11 -17 10 -27 -2 -18 -25 -54
-40 -80 -33 -16 4 -37 -3 -67 -22 -38 -24 -47 -25 -73 -15 -25 9 -32 8 -39 -5
-15 -27 -74 -46 -99 -33 -16 9 -23 8 -29 -3 -4 -8 -26 -23 -48 -33 -38 -17
-42 -17 -66 -1 -25 16 -29 29 -25 76 4 47 37 89 71 90 9 0 21 11 27 25 14 30
38 33 47 5 3 -11 13 -20 21 -20 8 0 14 -9 14 -19 0 -11 5 -32 10 -46 15 -40
38 -16 42 43 3 39 6 47 23 47 23 1 63 26 107 68 16 15 32 27 34 27 2 0 9 -12
15 -26 l10 -27 22 22 c17 15 36 21 70 21 26 0 47 5 47 10 0 6 14 10 31 10 29
0 31 -2 26 -27z m-6992 -43 c11 -4 43 -25 71 -46 126 -96 235 -269 285 -449
24 -89 23 -188 -2 -193 -13 -2 -77 73 -171 203 -4 6 -27 35 -50 65 -24 30 -59
76 -78 103 -41 56 -150 200 -180 240 -21 26 -21 29 -5 53 27 41 64 48 130 24z
m6173 -143 c4 -33 7 -33 44 -2 72 61 132 -32 75 -116 -25 -37 -61 -48 -97 -29
-16 9 -20 8 -20 -5 0 -10 -7 -15 -17 -13 -15 3 -18 17 -21 87 -2 47 0 91 3 98
8 23 30 9 33 -20z m-6227 -188 c148 -195 188 -252 189 -265 0 -12 -181 -27
-206 -17 -43 16 -134 266 -134 368 0 100 17 90 151 -86z m6969 137 c0 -23 23
-25 53 -3 24 16 33 17 53 8 33 -15 46 -52 32 -93 -23 -70 -71 -96 -110 -61
-19 17 -20 16 -37 -6 -10 -13 -23 -21 -28 -18 -6 4 -21 -5 -34 -19 -18 -19
-29 -23 -52 -18 -22 4 -34 1 -52 -16 -19 -18 -31 -21 -55 -16 -24 4 -39 0 -64
-19 -36 -28 -57 -31 -85 -13 -17 10 -24 7 -49 -20 -17 -18 -37 -32 -46 -32 -9
0 -21 -12 -26 -26 -19 -48 -35 -21 -40 67 -3 46 -2 92 2 101 8 18 55 31 102
30 16 0 38 4 48 9 20 11 25 4 31 -46 2 -17 10 -31 19 -33 13 -2 18 10 25 50 6
41 13 54 28 57 11 2 32 12 47 22 14 11 42 19 61 19 20 0 42 7 51 15 8 8 24 15
35 15 12 0 27 12 38 30 18 31 53 41 53 16z m-859 -17 c17 -17 20 -29 16 -61
-10 -74 -63 -118 -110 -88 -17 10 -22 9 -29 -4 -16 -29 -38 -19 -39 19 -2 58
-3 60 -24 60 -17 0 -21 -8 -25 -60 -4 -44 -9 -60 -20 -60 -12 0 -16 16 -18 72
-3 71 -2 72 27 88 36 18 55 19 80 3 17 -10 24 -7 49 20 35 37 63 41 93 11z
m4107 -112 c8 -32 19 -39 84 -52 37 -7 43 -38 23 -117 -19 -76 -58 -155 -90
-184 -16 -15 -20 -25 -13 -32 8 -8 2 -13 -18 -18 -16 -4 -32 -12 -36 -17 -13
-20 -68 -9 -89 17 -11 15 -26 32 -34 39 -29 30 -55 98 -55 146 0 43 4 54 33
80 17 17 38 31 46 31 26 0 90 61 102 98 6 20 14 40 16 45 8 13 23 -3 31 -36z
m-4500 3 c23 -22 29 -55 11 -65 -6 -4 -8 -13 -5 -21 8 -20 -42 -74 -69 -74
-36 0 -68 47 -61 90 5 32 4 34 -9 16 -8 -11 -15 -41 -15 -67 0 -49 -13 -70
-32 -51 -8 8 -21 3 -46 -19 -26 -23 -43 -30 -71 -28 -20 1 -43 -1 -52 -5 -8
-4 -29 -8 -45 -9 l-29 -2 -3 96 -3 95 43 11 c24 6 51 14 61 18 14 6 20 2 24
-13 4 -17 10 -20 34 -15 18 3 38 -1 54 -11 24 -16 25 -16 25 3 0 25 34 44 60
36 13 -4 30 1 46 14 34 26 54 26 82 1z m-4738 -20 c39 -20 109 -94 122 -129 4
-13 0 -25 -13 -37 -19 -17 -202 -133 -247 -156 -33 -17 -43 -1 -31 52 6 25 12
95 14 155 2 61 4 115 4 122 2 28 90 24 151 -7z m5250 -75 c11 -30 14 -31 40
-5 22 22 42 25 71 9 35 -18 42 -55 20 -105 -24 -53 -58 -73 -97 -55 -22 10
-28 9 -39 -6 -10 -14 -16 -15 -28 -5 -12 10 -16 10 -20 -2 -3 -8 -17 -22 -31
-32 -36 -23 -74 -11 -91 29 -12 26 -14 28 -15 10 0 -12 -5 -34 -10 -48 -9 -23
-13 -25 -26 -14 -13 10 -17 10 -25 -2 -5 -8 -9 -16 -9 -19 0 -9 -64 -30 -89
-30 -14 0 -28 11 -39 30 -9 16 -19 30 -22 30 -3 0 -11 -21 -18 -46 -10 -38
-16 -45 -34 -42 -14 2 -25 14 -32 36 -11 33 -12 33 -29 14 -10 -10 -15 -26
-12 -34 3 -8 -3 -24 -13 -36 -22 -25 -80 -30 -100 -10 -10 10 -14 8 -18 -7 -6
-24 -52 -47 -97 -49 l-32 -1 -3 89 c-2 49 0 96 3 104 11 29 23 -3 29 -78 3
-41 5 -76 6 -78 0 -2 12 -2 28 0 l27 3 3 93 c2 73 6 92 17 92 10 0 15 -10 15
-30 0 -16 4 -30 8 -30 15 0 40 34 44 59 3 25 32 50 43 39 4 -3 2 -15 -4 -26
-9 -17 -7 -20 17 -25 15 -3 29 -1 30 4 7 19 42 8 56 -18 l14 -28 10 25 c6 14
13 33 16 43 4 12 14 17 29 15 13 -1 36 7 51 20 16 12 43 22 60 22 36 0 56 15
56 42 0 24 32 23 48 -2 15 -25 27 -25 54 0 15 14 33 20 58 18 33 -3 35 -1 38
30 4 39 28 43 42 7z m-5049 -252 c20 -49 13 -178 -13 -246 -43 -116 -148 -197
-257 -199 -83 -1 -221 98 -221 158 0 31 14 45 76 80 27 15 100 60 161 101 62
40 116 73 120 73 5 1 26 14 48 30 51 37 72 38 86 3z m-972 -79 c44 -9 138 -96
147 -136 5 -27 2 -35 -22 -55 -16 -13 -35 -23 -41 -23 -7 0 -13 -4 -13 -8 0
-4 -30 -25 -67 -45 -38 -21 -97 -56 -133 -78 -36 -23 -86 -52 -112 -65 -42
-21 -47 -22 -59 -7 -19 22 -24 147 -9 197 34 107 71 158 150 205 36 21 97 27
159 15z m10131 -56 c0 -25 -37 -68 -58 -68 -18 0 -63 -35 -55 -44 3 -3 -3 -6
-15 -6 -12 0 -47 -14 -77 -31 -56 -31 -85 -33 -85 -4 0 8 -4 15 -10 15 -15 0
-12 19 6 38 14 14 57 23 162 34 6 1 12 5 12 9 0 11 68 72 88 80 23 9 32 2 32
-23z m-1702 -110 c7 -7 12 -37 12 -67 0 -39 6 -63 19 -80 23 -30 11 -76 -22
-85 -87 -26 -128 -35 -140 -30 -8 3 -31 -6 -52 -20 -21 -14 -42 -26 -48 -26
-6 0 -30 -9 -53 -21 -39 -18 -45 -19 -72 -5 -28 14 -30 14 -52 -16 -18 -25
-27 -29 -50 -25 -20 4 -33 0 -45 -13 -10 -11 -28 -20 -41 -20 -13 0 -38 -9
-57 -20 -45 -27 -123 -50 -169 -50 -20 0 -40 -5 -44 -11 -12 -21 -98 -51 -128
-45 -22 5 -32 1 -43 -14 -15 -22 -57 -27 -69 -9 -4 7 -7 57 -7 112 0 111 11
132 66 124 17 -2 33 3 44 15 20 22 62 24 68 3 16 -50 16 -50 30 -12 17 49 30
64 61 70 21 4 29 -2 44 -25 l18 -29 8 37 c11 46 47 74 105 81 24 3 74 21 111
39 37 19 86 36 110 40 24 3 67 13 95 21 29 8 61 12 71 9 12 -4 27 3 42 19 27
29 56 32 81 9 16 -14 18 -14 24 5 3 12 18 28 33 36 33 18 35 18 50 3z m-1677
-175 c1 -10 3 -40 5 -68 9 -104 -27 -178 -94 -191 -26 -5 -36 -1 -62 24 l-30
30 0 -29 c0 -31 -30 -69 -55 -69 -22 0 -35 41 -35 107 0 39 -5 62 -17 75 -13
15 -14 23 -5 43 16 35 46 46 172 62 25 3 49 12 53 19 12 21 67 18 68 -3z
m-6478 -40 c3 -5 8 -71 11 -148 3 -77 9 -187 11 -245 3 -58 8 -185 10 -282 4
-173 4 -178 -15 -178 -12 0 -25 10 -32 25 -6 14 -14 25 -18 25 -8 0 -60 111
-60 128 0 6 -6 26 -14 44 -23 53 -48 216 -48 303 1 153 27 255 77 310 23 24
68 34 78 18z m204 -71 c18 -26 43 -58 55 -72 13 -14 40 -48 60 -75 21 -28 41
-54 46 -60 17 -21 150 -195 229 -298 81 -106 86 -121 60 -154 -17 -23 -70 -25
-115 -5 -179 80 -368 365 -397 599 -8 60 1 113 18 113 7 0 27 -21 44 -48z
m-443 9 c4 -5 2 -42 -3 -83 -6 -40 -12 -106 -15 -146 -3 -39 -8 -77 -11 -82
-10 -16 -62 -11 -108 10 -49 23 -111 84 -122 118 -9 29 25 60 136 127 46 28
86 53 87 58 5 10 30 9 36 -2z m6364 -107 c2 -92 0 -115 -13 -128 -21 -20 -54
-21 -61 -1 -9 22 -21 18 -36 -12 -8 -17 -24 -30 -43 -34 -16 -3 -43 -14 -60
-23 -16 -9 -44 -16 -61 -16 -39 0 -44 14 -44 130 0 98 12 125 63 135 17 4 51
14 75 22 39 13 46 13 67 -1 30 -20 35 -20 35 -2 0 23 30 47 54 44 20 -3 21 -9
24 -114z m-5510 49 c36 -52 80 -148 103 -223 25 -83 33 -220 12 -227 -10 -4
-94 93 -158 181 -11 15 -29 38 -40 50 -11 13 -29 36 -40 52 -11 15 -31 42 -45
59 -46 54 -80 103 -80 114 0 6 23 8 63 5 34 -3 76 -1 92 5 51 16 73 13 93 -16z
m6400 -69 c22 -25 26 -42 22 -99 -7 -103 -121 -183 -183 -127 -11 9 -22 13
-24 7 -21 -58 -57 -80 -88 -55 -10 9 -15 7 -20 -9 -9 -30 -38 -43 -70 -31 -34
13 -32 13 -37 -8 -5 -18 -57 -42 -143 -64 -22 -6 -47 -14 -55 -18 -8 -4 -42
-15 -75 -24 -33 -10 -68 -22 -77 -27 -10 -5 -28 -9 -40 -9 -13 0 -32 -7 -42
-15 -11 -8 -30 -15 -42 -15 -13 0 -26 -4 -29 -10 -9 -14 -53 -12 -58 3 -2 7
-19 -2 -45 -25 -44 -40 -92 -50 -133 -28 -16 9 -21 7 -29 -15 -11 -28 -16 -31
-138 -70 -66 -21 -86 -24 -97 -15 -12 10 -20 8 -40 -12 -14 -14 -47 -31 -73
-37 -26 -7 -55 -17 -65 -22 -10 -6 -38 -7 -61 -4 -38 6 -44 4 -60 -19 -16 -26
-66 -37 -66 -16 0 6 -4 10 -10 10 -5 0 -10 -7 -10 -15 0 -9 -12 -21 -26 -27
-39 -18 -54 9 -54 95 0 38 -3 67 -7 65 -5 -2 -20 -10 -35 -17 l-27 -14 29 -27
c33 -31 37 -57 15 -100 -20 -38 -48 -53 -101 -52 -27 1 -44 -4 -47 -12 -6 -16
-101 -41 -117 -31 -6 4 -10 53 -10 125 l0 118 45 17 c24 10 54 15 65 12 13 -3
35 4 57 19 20 13 50 24 69 24 18 0 36 4 39 10 8 14 103 40 120 33 19 -7 19
-47 0 -63 -16 -13 -22 -140 -7 -140 4 0 20 46 36 103 35 126 41 137 70 137 29
0 41 -13 57 -68 7 -23 18 -47 26 -53 11 -9 13 3 13 70 0 80 1 82 28 92 48 19
91 22 107 9 9 -7 16 -11 18 -9 1 2 7 13 13 24 7 13 22 20 40 20 29 0 29 0 34
-74 3 -46 10 -76 17 -78 16 -6 22 24 25 112 l3 70 39 19 c33 16 44 17 70 8 27
-11 32 -9 51 12 37 44 93 59 136 36 16 -9 21 -7 29 14 6 16 20 28 37 31 15 3
42 13 58 21 31 15 62 11 78 -10 6 -8 10 -6 14 3 12 31 53 61 82 61 16 0 33 5
36 10 3 6 15 10 26 10 11 0 41 11 67 25 26 14 61 25 79 25 17 0 35 5 38 10 8
13 48 13 62 -1 8 -8 14 -6 21 8 16 28 147 86 178 79 17 -5 34 0 57 18 56 42
96 42 135 0z m-1319 -9 c35 -18 41 -32 41 -98 -1 -103 -56 -163 -145 -160 -43
1 -54 -2 -57 -15 -5 -18 -103 -50 -115 -38 -4 3 -13 0 -22 -8 -22 -19 -89 -39
-106 -32 -8 3 -15 12 -15 21 0 22 -7 19 -41 -19 -31 -36 -113 -71 -141 -61 -8
3 -21 -1 -28 -10 -7 -8 -23 -15 -35 -15 -18 0 -24 7 -29 40 -6 41 -14 48 -33
29 -6 -6 -22 -17 -35 -23 -17 -8 -24 -21 -26 -49 -3 -30 -8 -38 -29 -43 -16
-4 -28 -2 -34 7 -5 8 -9 64 -9 126 l0 111 45 17 c28 11 58 15 80 12 40 -7 60
14 44 45 -13 23 40 84 64 75 23 -9 21 -36 -5 -64 -20 -21 -20 -23 -3 -23 10 0
26 7 35 15 28 25 112 31 143 10 27 -17 27 -17 27 9 0 32 36 57 99 67 25 4 59
11 75 15 38 9 46 -6 46 -89 0 -60 2 -68 17 -65 14 3 17 11 15 41 -8 90 58 184
131 186 10 1 31 -6 46 -14z m-5533 -272 c10 -16 46 -72 82 -126 l64 -99 -11
-57 c-16 -80 -46 -138 -84 -162 -32 -19 -32 -19 -48 0 -13 16 -18 55 -23 183
-4 90 -9 191 -12 226 -7 69 4 81 32 35z"/>
<path d="M18766 12201 c-16 -16 -25 -34 -22 -39 4 -6 2 -13 -4 -17 -17 -10
-11 -66 11 -112 19 -40 24 -43 60 -43 l38 0 -20 35 c-16 27 -21 54 -23 120 0
47 -4 85 -7 85 -3 0 -18 -13 -33 -29z"/>
<path d="M15547 10993 c-19 -34 -135 -458 -126 -461 12 -5 238 47 262 60 21
11 24 0 -55 223 -61 170 -72 194 -81 178z"/>
<path d="M14986 9235 c-16 -75 -26 -139 -23 -142 7 -6 95 14 114 25 9 6 5 36
-18 122 -17 63 -34 119 -38 123 -4 4 -20 -53 -35 -128z"/>
<path d="M6958 8039 c-25 -14 -33 -88 -14 -134 42 -99 124 -98 128 2 3 86 -63
162 -114 132z"/>
<path d="M7756 7728 c-45 -64 20 -218 85 -201 34 9 54 69 40 121 -24 92 -88
133 -125 80z"/>
<path d="M8206 7558 c-31 -44 -9 -155 36 -186 15 -11 45 -17 90 -18 64 0 68 1
77 26 16 46 0 93 -38 112 -19 9 -51 33 -71 53 -41 40 -72 45 -94 13z"/>
<path d="M8521 7447 c-31 -38 -12 -156 31 -192 41 -34 74 -33 93 5 18 34 19
52 5 102 -22 77 -95 125 -129 85z"/>
</g>
</svg>
